<svg width="643" height="388" fill="none" xmlns="http://www.w3.org/2000/svg"><path d="m506.3 74.3-4.7 11.4a21 21 0 0 1-4.2 7.5l-13.2 21-12.8 14a87.8 87.8 0 0 1-23.8-14.9c-11.4-10-14.1-17.4-14.1-17.4l17.9-17.5s13.6-16 17.5-21.6c2.2-3.2 4.2-6.6 6-10a56 56 0 0 0 12.4 15.5c5.5 4.4 11.5 8.1 17.7 11.2l1.3.8ZM559 314.8l5.8 13.7-25.4 16.8-18.7 23.2-33.4-1.2-5.1-.4-1.7-24 13.5-10 21.9 2.6 15.1-13 28-7.7Z" fill="#FEFEFE"/><path d="M545.4 112.8c-.1.5.3.7.6 1 1.3.8.8 1.7 0 2.7l-2.3 3.2c-.3.5-.5.6-1.1.3-4.2-1.9-8.4-3.9-12.7-5.3-4.2-1.4-8.3-3-12.6-4-1.8-.5-3.7-1.2-5.4-2-2.4-1-4.6-2-6.2-4.3l-2.3-3.5c-1.2-2.6-2.9-5-5-7-.4-.4-.3-.5 0-.9a85.5 85.5 0 0 0 8.5-18.6c.2-.5.1-.7-.5-1a48.2 48.2 0 0 1-12.9-7 .3.3 0 0 0-.2 0h-.2c0 .1-.1.3 0 .4.4.6.5 1.2 1.2 1.7 2.4 1.5 4.8 3 7.3 4.2a9 9 0 0 0 3 1c1.3.2 1.4.8 1 1.9a93.6 93.6 0 0 1-3.7 8.5l-2.4 5c-.3.7-.7 1.3-1.2 1.8-1.5 1.8-1.4 1.8-3.3.5-2-1.4-4.2-2.4-5.9-4.3l-1-.9c-.4-.4-.3-1.6-1.4-1.2-1.1.5-2.2 1.2-2.3 2.7 0 2 .6 4.2 1.8 6 .5 1 1.2 2 2 3a2.9 2.9 0 0 1 .4 2.5c-.2 1.9-.2 3.8.2 5.6a3.4 3.4 0 0 1-.5 2.7c-2.6 3.7-5.3 7.3-8.2 10.7-2.3 2.6-4.4 5.3-6.9 7.7-2 1.8-1.6 1.7-3.7.9a71.4 71.4 0 0 1-21-13.6 89.3 89.3 0 0 1-14.2-16.8c-.3-.6-.5-.7.1-1.2 4.7-3.5 9-7.6 13-12 2-2.3 4.4-4.4 6.5-6.8 3.8-4.2 7.2-8.7 10.7-13.2a119.5 119.5 0 0 0 10-15.6c2 3.7 4.3 7 7.1 10 3 3.3 6.2 6.3 9.7 9 .4.3.8.6 1.1.2.4-.3 0-.7-.2-1-1-1.2-2.2-2.1-3.4-3a59.4 59.4 0 0 1-13.6-16c-.4-.7-.7-1-1.3 0-2.1 3.3-4.2 6.6-6 10.1a40.2 40.2 0 0 1-4 5.2c-3.5 4.6-7 9.1-10.8 13.6-1.8 2-3.7 4-5.8 5.8l-6 6.1c-2.4 2.4-5 4.7-7.6 7-.8.7-1.2 1.2-.4 2.3a77.6 77.6 0 0 0 21.2 22.6c5 4 10.7 7 16.7 9.2 1.2.3 1.7-.7 2.3-1.2a116 116 0 0 0 12-14 .9.9 0 0 1 .6.1c2.3 1 4.8 1.6 7 2.6 1.7.7 3.3 1.6 4.8 2.8a363 363 0 0 0 11.5 9.1l8.6 5.9c3 2 5.9 4.3 9 6.3 3.8 2.4 7.4 5.2 11.7 6.7 2.4.8 5 1.2 7.5 1.2a29 29 0 0 0 10.6-2.2c3-1.3 5.8-3 8.4-4.8l4-3c.2 3.8.2 7.6 0 11.3 0 .9-.5.9-1 1-1.4.6-3 1-4.3 1.7-3.8 1.7-7.7 3.2-11.6 4.5-3 1-5.7 2.4-8.5 3.4l-9 3a23 23 0 0 1-11.9.6c-2.1-.6-4.3-1-6.5-1a52.6 52.6 0 0 0-13 4.5 68.2 68.2 0 0 0-9.6 5.9c-.8.9-1.4 2-1.8 3-.5 1 0 1.4.9 1.5 1.4.2 2.9.3 4.3.3 2.3-.2 4.6.6 7 .5 3.7-.2 7.4-.2 11.2-.2 3 .1 6.2 0 9.2-.3 3.5-.5 7-.2 10.4-1.4 1.9-.5 3.9-.5 5.8 0 4 1 8.1.8 12.2 1.1 5.5.5 11 .5 16.5.5-5.2 4-10.2 8.2-15.4 12.1-3.2 2.4-6.3 5-9.5 7.6-2 1.6-4 3.4-6.1 4.8-3.2 2.2-5.9 5-9.2 6.8a42.6 42.6 0 0 1-8.6 3.4l-6.4 2.3a72.3 72.3 0 0 0-12.9 6.3 17.5 17.5 0 0 0-8 12.1c-1.2 6.4-1.4 13-1.8 19.4l-.9 12.9c-.2 2.2-.3 4.4-.2 6.7 0 1.8-.1 3.7-.4 5.5-.1 2 0 4-.3 6-.3 2.5-.3 5-.4 7.5l-.5 9.6-.5 10.2c0 .6.3.6.7.6 2.9 0 5.7 0 8.5-.2 2-.1 2.1-.2 2.4 1.8l1.9 11.4a.9.9 0 0 1-.3 1c-2.8 3.2-6.1 6-9.7 8.5l3.8 2.3 2.1 1.5c.4.3.8.8.3 1.4-.4.5-.8.2-1.2 0-1.8-1-3.7-2-5.4-3.1-1-.7-1.6-.7-2.3.1-.5.5-1 1-1.5 1.3l1.6 1.5 3.7 3.2c.4.4.8 1 .4 1.5-.5.6-1 0-1.5-.3a33.1 33.1 0 0 1-5.2-4 2 2 0 0 0-2.3.3c-2 1.4-2 1.4 0 2.7 1.2.8 2.4 1.6 3.4 2.6.5.5.9 1.1.4 1.7-.5.5-1 0-1.5-.3-1.7-1-3.3-2.3-4.7-3.7-.6-.6-1-.6-1.6-.2a155.6 155.6 0 0 1-23.2 13l-10.9 4.4-.4.3c-.9.8-2.2 1.6-2 2.6.4 1 1.9.7 2.9.8l25.7 2.3c2 0 4 .2 6 .4l6 .4c1 0 2-.2 3-.7 7-2.8 13.8-6.3 20.1-10.6 7-4.6 13.6-9.5 20-14.7a92.4 92.4 0 0 0 7.8-7.5v-.9c-.5-2.4-1.4-4.7-2.6-6.8-.5-.7-.6-1.6-1.1-2.4-.4-.5.3-.7.6-.8l15.7-4.2 9.1-2.5c.9-.3 1.4-.2 1.9.8 1.4 3.2 2.2 6.6 4 9.7.3.7-.2 1.4-.6 2a16 16 0 0 1-7.7 5.6c-2.8 1.2-5.7 2-8.7 2.1-3 0-6.3.4-9.3-1a1 1 0 0 0-1.3.3c-3.8 3.4-7.6 6.9-11.7 10-.8.6-.6.8 0 1.2a101.7 101.7 0 0 1 5.6 3.7c.2.2.7.5.4 1-.3.4-.7.2-1.2 0-2.3-.9-4.5-2-6.5-3.3-.8-.5-1.2-.5-1.8 0-.5.5-1.2 1-1.9 1.4l4.3 3 1.1.8a.8.8 0 0 1 .2 1c-.2.5-.7.3-1 .2a17 17 0 0 1-5-3.1c-.8-.8-1.4-.8-2.2 0-.5.4-1 .8-1.6 1 1.2 1.2 2.5 2.3 3.8 3.2l1 1c.3.3.6.6.3 1-.3.5-.7.4-1.1.2-1.7-.7-3.1-1.8-4.3-3.1-1-1-1.6-1-2.6-.2-7 5.2-14.8 9.4-23 12.4-4.1 1.6-8.2 3.3-12.2 5.2-2 1-2.5 2.6-1.1 3.8.7.6 1.6 1 2.6 1 5.7-.3 11.4-.5 17.2-.6l15.8-.2 13-.4 6-.1c3.2 0 6.4-.1 9.5-.3 1.5-.3 3-1 4.2-1.8 2.6-1.5 5.5-2.6 8-4.3.7-.5 1.3-.3 1.5.6 0 .4 0 .7.2 1 1.3 2.7 1.6 2.9 4.7 2.5 4.3-.5 8.5-.7 12.8-1.3l10.2-1.2c.9 0 1-.4.7-1.2-.7-2.4-1.8-4.7-2.8-7.1l-5.2-13.3c-2-5.3-4.2-10.5-6.3-15.8l-3.8-10-3-7c-.4-1.1 0-1.2.8-1.4l6.2-1.8c4.7-1.3 9.4-2.3 14.1-3.8.8-.3 1.7-.5 2.6-.6 1 0 1.3-.8.7-1.7-2.2-3.3-4.5-6.5-7-9.6-2.3-2.6-4-5.6-6.2-8.3-3.5-4.3-6.8-8.8-10.1-13.3l-12.2-16-.3-.8c4-.3 5.7-2.3 3.5-4.9l6.5-1.2c2.3-.5 4.6-1.2 7-1.5l6.2-1c3.9-.6 7.7-1.6 11.6-2 3.6-.5 7-1.4 10.5-2.2 2.9-.6 5.8-1.1 8.8-1.9 2.8-.7 5.5-1.8 8.3-2.4 2.3-.5 4.6-1.2 6.7-2.1 3.8-2 7.1-4.9 9.9-8.2 3.8-4.3 6-9.6 7.8-15 1.2-3.4 2-7 2.1-10.6.1-4 0-7.8-.5-11.8l-1.4-12.5c-.3-2.6-.8-5-1.3-7.6-.2-2.1-.7-4.2-1.3-6.2-.4-1 .9-1 1-1.7-.2 0-.4 0-.7.2-3.2 2-6.8 2.8-10.4 3.7l-6.6 1.3c-4.2.8-8.4 1.4-12.7 2.1-1.7.3-3.5 0-5.2.6-.3 0-.7.4-.9 0-.2-.5.3-.7.6-.9 3.7-1.9 7-4.6 9.7-7.8.4-.4 1-.8.5-1.6l-.5.1a30.3 30.3 0 0 1-14.4 10.4 64 64 0 0 1-11.6 2c-4.1.4-8.2.6-12.3.7-5.7.2-11.4 0-17-.5-2.8-.3-5.6-.1-8.4-.7-3.8-.7-7.6-.6-11.3.1-3.3.7-6.5 1-9.8 1.1-5.5.2-11 .2-16.4.2-2.5 0-5 .5-7.5-.4a6.4 6.4 0 0 1 4.4-4l3.9-.9c1.8-.4 3.5-1 5-2a25 25 0 0 1-7 1.4c-3.2.4-5.9 1.4-7 4.6-.5 1-1.2 1.1-2 1l-2.4-.4c-1 0-1.1-.6-.8-1.4.3-.4.6-.9 1-1.2a18 18 0 0 1 9.7-4.6c2-.3 3.8-.9 5.6-1.7-2.1-.1-3.8.7-5.8.2a17 17 0 0 1 2-1l6.9-2.3c1.2-.4 2.5-.6 3.7-.6 2.7.2 5.3.6 8 1.2 2.4.6 5 .5 7.4-.2 6.2-1.7 12.3-3.8 18.3-6.2 3.8-1.6 7.8-2.7 11.5-4.5a65 65 0 0 1 9-3.4c2.9-1 5.7-2.1 8.7-2.8 1.3-.1 2.5-.5 3.6-1a5.7 5.7 0 0 0-4 0c-.7.3-1.5.5-1.6-.8-.3-3.4-1.5-6.6-2-10 0-1-.7-2.2-.4-2.8.5-.8 1.8-.1 2.7-.1 6.6 0 13.1 0 19.6.5 4 .4 8 .1 12 1 1 .1 1.3.6 1.3 1.2.3 2.4 1.1 4.7 1.4 7.1.9 7 .8 13.7-3.3 19.8-.2.3-.3.6-.3 1 .8 0 1.1-.7 1.5-1.2 3.2-4.5 3.3-9.7 3.5-14.8a89.5 89.5 0 0 0-3.3-17.8c-.4-1.3 0-1.3.9-1.3h.7c.6-.5 2 0 1.8-1-.1-.6-1.3-.2-2-.1-2.8.3-5.7.8-8.5 1-4 .5-8 .6-12 1.1-4.2.7-8.5 1-12.8 1.5l-10.8 1.2c-1 0-1.4-.2-1.4-1.4 0-2.3.3-4.6.4-7l.6-9.7c-1.1 4.5-1.5 9.1-2.7 13.7-1.6-1.5-3.3-2.7-4.9-4.1-4-3.6-8.4-7-12.6-10.6-.4-.4-.9-.7-1.5-.7Zm25.2 36.9h-.2.2c-.3-4 .6-7.9 0-11.8a.9.9 0 0 1 .1-1c1-1 2.2-2 3.5-2.8l.8 5c.5 2.6 1.4 5.2 1.7 7.8.1.7 0 .8-.5 1l-5.6 1.8Zm-43.2 107.8c-.1 1.3.2 2.7.8 4 1.6 4.6 3.8 9 5.4 13.7 2 5.6 4.2 11 6.1 16.5.9 2.4 2 4.6 2.8 7.1.7 2.6 2 5 2.7 7.6.7 2.5 2.1 4.7 2.6 7.2.1 1 .4 1.8.8 2.6.3.7 0 1-.6 1.1l-8 2-14.6 4c-.8.2-1.2 0-1.4-.7l-3.1-11-4.6-15.5c-1-4-2.3-7.9-3.4-11.9l-3.7-12.2-3.2-10.3-2.5-8.2c-1.4-4.1-2-8.5-1.7-12.8 0-3.4 1.3-6.7 3.5-9.3 1.3-1.4 2.7-2.7 4.2-3.8 1.5-1 2.7-2.5 4.2-3.6 3.1-2.3 6-5 9-7.4l22.1-17.2 17-13.4c2.3-2 4.8-4 7.3-5.7 1.6-1 3-2.7 5.3-2.5 2.4 0 4.8 0 7.2-.3 2.5-.1 5-.6 7.5-1 2-.4 4-.8 6.1-1 2.4-.1 4.7-.5 7-.6.9 0 .8.4.6.9a12 12 0 0 0-.3 5c.2 2.6 0 5.3 1 7.7a4.4 4.4 0 0 1-.1 4.3l-1.1 2.7.8-1c1.6-2.4 2.3-5.2 3.6-7.7 1.5-3.2 2.6-6.7 3.1-10.3.4-2 .3-2.1 2.5-2.3 6.6-.4 13.2.4 19.5 2.3a3.7 3.7 0 0 1 2.6 3.2c.7 3.2.7 6.4 1.4 9.6.2 1.8.3 3.7.3 5.5.3 2.7.4 5.4.5 8 0 4-.4 7.9-1.5 11.6a41 41 0 0 1-4.6 11.3 34.7 34.7 0 0 1-9.7 10.5 25 25 0 0 1-8.3 4c-2 .5-4 1-5.8 1.7-3.6 1.2-7.3 1.8-11 2.7a117 117 0 0 1-9.9 2c-4.8.8-9.5 1.8-14.2 2.7-3.4.6-6.7 1.4-10 1.9-4 .5-7.8 1.2-11.5 2.2l1 1.3c1 1.6 1.4 2.3-.9 3l-2 .7c-1.1.3-1 1-.4 1.6 1 1 2 2.2 2.7 3.4 3.2 4.5 6.7 8.8 10 13.3 2.6 3.8 5.5 7.4 8.3 11l5.5 7.4c2.9 4 6 7.7 8.6 11.8.4.6.4.8-.3 1l-6.4 1.7-16 4.2c-3.2 1-6.5 2-9.8 2.7-.6.1-.9.3-1-.5-.5-2-1.3-4-2-5.8-2.5-7.3-5.3-14.4-8-21.6-1.9-5.3-3.7-10.6-5.8-15.7-1.8-4.4-3.3-8.9-5.5-13-.3-.6-1.3-1.2-.7-2.4ZM486.9 85.8c1.7 3.2 4.8 4.9 7.5 6.8 2.4 1.5 4.4 3.5 6 5.8 1.4 2.4 3 4.7 4.6 6.8.8 1.1 1.8 2 3 2.6 2.3.8 4 2.5 6.5 2.9 1.5.3 3 .7 4.4 1.3 4 1.6 8 2.8 12.1 4.3 4.5 1.6 9 3.6 13.2 5.8 1 .8 2.2 1.2 3.4 1.3-.9-.8-1.9-1.5-3-2.1-.4-.3-.7-.5-.2-1a34 34 0 0 0 3-4.2c.4-.5.6-.6 1.2 0a97.2 97.2 0 0 1 17.3 20.4c.4.6 1.2 1.3 1.2 2-.1.8-1.3.9-2 1.4a42.8 42.8 0 0 1-10.3 5.9c-.2.2-.3.5-.3.8-.7-.9-.7-1-1.4-.7a18 18 0 0 1-9.4.7c-1.6-.4-3.3-.2-4.8-.9-4.2-1.8-8.2-4-11.8-6.6-3.8-2.7-7.4-5.5-11.2-8-3.4-2.3-6.6-4.7-9.7-7.2-3-2.5-6-5-9.3-7.2a34 34 0 0 0-9.5-4c-1-.2-1.2-1-.6-1.5 1-1 1.8-2.1 2.5-3.3.6.4.6 1.4 1.5 1.7v-1c-1-3-1.3-6.2-1-9.4a5.3 5.3 0 0 0-1.3-4c-1-1.4-2-2.9-2.5-4.5a4.2 4.2 0 0 1 1-5Zm38.2 126.8c-.8 1-1.8 2-2.9 2.6-4 2.8-7.3 6.3-11.2 9.3-2 1.6-3.8 3.7-5.7 5.5-2.6 2.3-4.7 5-5 8.5-.5 5 0 9.9 1.4 14.6 1.5 4.4 3 8.7 4.2 13.2.4 1.6 0 3.7 2 4.8.1 0 0 .2-.2.3-.4.2-.3.6-.2.9l2.2 7.2 2.9 9.7 3.1 11.4c1 2.7 1.7 5.4 2.3 8.2l-18.8 1.2c-2.4.1-4.9.3-7.3.6-2 .3-2.5 0-2.2-1.9.7-4.8.7-9.6 1-14.3l.7-13c0-2.5.4-5 .5-7.6l1-16.3c.1-3.2 0-6.5.4-9.7.4-5 .6-10 1.8-14.7.7-2.5 1.8-4.8 3.4-6.9 2-2.6 5.2-4.2 8.1-5.8 4-2.2 8.2-4 12.4-5.7l6.1-2.1ZM508.3 325h-.6a8 8 0 0 1-4-.8c-.8-.4-.3-1.8-.5-2.7-.7-3.2-1.2-6.5-1.8-9.7 0-.5 0-.7.4-.6l4.5-.3c3.6 0 7.1-.3 10.7-.8.7-.1 1.6-.2 2 1 .6 2.9 1.5 5.7 2.3 8.5.1.5.8 1.2.2 1.7-.5.6-1.2 1-2 1.4a27 27 0 0 1-11.2 2.3Zm96.4-135.9c-.7-2.3-1.1-4.8-1.2-7.2a18 18 0 0 1 .4-6.3c.2-.9.9-1.3 1.4-1.1 1.4.2 2.7-.4 4-.1-.3 2.5-.8 5-1.5 7.5-1 2.4-1.4 5-3.1 7.2Zm-101.3-20.8.5-.4s.3.1.1.3l-.4.3-.2-.2Z" fill="#0D0D0D"/><path d="M608.6 164c.6.7-.1 1.1-.4 1.5-2.8 3.3-6 5.9-9.8 7.8-.3.2-.8.4-.5.9.2.4.5 0 .8 0 1.7-.7 3.5-.3 5.3-.6 4.2-.7 8.5-1.3 12.7-2.1l6.5-1.3c3.6-1 7.3-1.7 10.5-3.7l.7-.2c2.2-1.8 2.8-4.3 3.2-6.9.9-5.1-1.5-9.4-3.8-13.5a8.2 8.2 0 0 1-.4-7.7c.8-2.1.4-3.3-1.5-4.6-1-.5-1.8-1.2-2.4-2-1-1.3-.4-2.7 0-4 .9-3.5.4-7.1-1.4-10.2l-2.7-5-8-14c-2.3-4-4.9-8-7.3-12-2-3.4-4.2-6.7-6.9-9.6l-4.1-4.6a13.5 13.5 0 0 0-5.7-3.4l-1.3-.4c-.7-.4-1.6-.3-2.3-.9-5-.2-9.8.2-14.2 2.9l-2 1.8a19.8 19.8 0 0 0-3.1 5.7c-1.4 4-3.5 7.7-6.2 11-3 3.5-5.8 7.4-8.9 11-3.4 4-6.4 8.4-9.8 12.3l-.2.6c.6 0 1.1.3 1.5.7l12.7 10.6c1.5 1.4 3.2 2.6 4.8 4.1 1.3-4.6 1.6-9.2 2.7-13.7l-.6 9.8c-.1 2.3-.4 4.6-.4 7 0 1.1.4 1.4 1.5 1.3l10.7-1.2c4.3-.5 8.6-.8 12.9-1.5 4-.5 8-.6 11.9-1l8.6-1.1c.6-.1 1.8-.5 1.9.1.1 1-1.2.5-1.8 1h-.7c-1 0-1.3 0-.9 1.3a89.6 89.6 0 0 1 3.3 17.8c-.1 5.1-.3 10.3-3.5 14.8-.4.5-.6 1.2-1.4 1.2Z" fill="#343434"/><path d="M589.8 67.5c.7.6 1.6.5 2.3.8a40 40 0 0 0-3.3-5.2l-2.6-3.8a3.8 3.8 0 0 1-.7-4.4 8.9 8.9 0 0 0 .1-7.4c-.6-2-1-4-.9-6.1a11.6 11.6 0 0 0-4.5-9c-2.7-2.2-5.6-1.6-8.4.2l-3.4 2.6c-1.3 1.1-3.3 1.2-4.3 2.8-1-.4-2 0-3-.3-1.5-.3-3-1-4.7-.9-2 .2-2.5.9-1.7 2.7 0 .3.2.6.4 1-1 0-1.9-.1-2.7-.3-2-.4-4.2 0-6 1.2-1.2.7-1.5 2.7-.7 4.3a7 7 0 0 0 2.8 3.2c1.7 1 3.5 2 5.4 2.6.3.1.7.2 1 .7-2.5.8-4.7-.7-7.4-.7a8.8 8.8 0 0 0 7.2 2.6c1.1-.1 1.7 0 2 1.4.4 2 1.2 4 1.7 5.9.2.5.4 1 1 .7.5-.2.4-.7.2-1.2-.4-1.1-.7-2.3-.9-3.5 1 1 1.6 2.3 1.9 3.7.3 1.2.9 2.3 1.5 3.3.8 1.5 2 3 3.5 4a6.5 6.5 0 0 0 7-.3c.8-.5.8-.4.8.3l.2 3.8 2-1.8c-.2-.3 0-.5 0-.7 1.2-2.7 2.1-5.5 2.9-8.4l-.9.7c-1.2 2.5-3.5 3.8-5.8 5-2.2 1.2-6.6.6-8-2.1a37.2 37.2 0 0 1-3.3-8.3c0-.4-.7-1 0-1.2.8-.4.8.5 1 1a7.7 7.7 0 0 0 2.1 3 2.6 2.6 0 0 0 4.1-.6 6.6 6.6 0 0 0 .2-5.5c-.2-.7-.2-.9.6-1.1 1.6-.6 2 .7 2.4 1.6 2.6 4.7 6.9 6.1 11.8 4 .6-.3 1-.2 1.2.5 1.3 3.5 4 6.1 6 9.2ZM579 57a7.4 7.4 0 0 1-7.7-5.9c-.4-2.8 2.8-7 5-7.1 4.1-.3 8.2 3.1 8.6 6.6a6 6 0 0 1-6 6.4Zm-11.8-1.1v.5c-.1 1 0 2-1.1 2.5a2.7 2.7 0 0 1-2.8-1.1c-.5-1.6-1.6-3.1-1.5-4.8 0-1 0-2.5 1.4-2.9a2.5 2.5 0 0 1 2.9 1.7 12 12 0 0 1 1.1 4Zm-1.4-17.2c0-.6 1.7-1.4 2.4-1 2 .8 4 2 5.5 3.7 1.2 1.1 1.3 1.3 0 2.3-.2 0-.3.2-.5.3-.8.8-1.5.7-2-.4-.1-.4-.3-.7-.6-1-1-1.5-2.9-2.1-4.2-3.3-.2-.2-.5-.3-.6-.6ZM562.5 49a4.4 4.4 0 0 0-1.7 4.5c0 .2.3.7-.3.7a.7.7 0 0 1-.7-.6c-.4-1-.5-2-.4-3 .2-2 1.3-2.6 3-1.6ZM480 104.8c-.8-1.5-2.6-2-4.1-2.9-.6-.3-1.2-.8-1.7-1.3-1.3-1-2.8-1.8-4-2.8l-3.6-3.1-4-3.2a45 45 0 0 0-5-4c-.7-.4-1.5-1.1-2-.6-.4.6.6 1 1 1.5 4.6 4 9.3 7.8 14.2 11.3 2.9 2 6 3.7 9.2 5ZM473 113.2c-.9-.9-2-1.6-3-2.1-3.5-2.2-6.3-5.3-9.3-8-3.1-2.8-6-6-9-8.7-.4-.2-.7-.4-1-.2-.5.2 0 .5 0 .8.1.3.3.6.6.8 1.6 1.7 3 3.5 4.7 5 2 1.6 3.8 3.5 5.8 5.3a60.1 60.1 0 0 0 8.1 5.8c.5-.1.9-.4.9.5a2.9 2.9 0 0 0 2.2.8ZM484.8 97.2l-4.2-2.9a58.2 58.2 0 0 1-7.8-6.2l-5-4.3a24.9 24.9 0 0 1-3.6-3.7l-1-.8c-.3-.3-.6-.5-.9-.2-.4.4 0 .7.2 1 2 2.5 4.4 4.9 7 7l6.7 5.5c2.5 1.7 5 3.3 7.8 4.7h.8ZM473.6 63a1.2 1.2 0 0 0 .5 1c3.2 2.6 6 5.7 9.4 8.2 2.6 2 5.4 3.6 8 5.6.3.2.8.7 1.1.2.4-.5-.3-.7-.6-.9A98 98 0 0 1 477.2 65c-.8-.9-1.9-1.4-2.8-2.1-.3-.4-.7-.3-.8.2ZM483.2 82.6l.3-.4c.2-.4-.2-.5-.4-.7l-4.6-3.8a76.9 76.9 0 0 1-8-7.6c-.5-.2-1-.8-1.4-.4-.5.5.1 1 .4 1.2a67 67 0 0 0 6.5 6c2 1.8 4.3 3.4 6.4 5l.8.7ZM496.5 80.4a7.4 7.4 0 0 0-2.7-1.7c1 .2 1 2.4 2.7 1.7Z" fill="#0D0D0D"/><path d="M527.4 257.5c-.6 1.2.4 1.8.7 2.4 2.2 4.2 3.7 8.6 5.5 13 2.1 5.1 4 10.4 5.9 15.7l8 21.6c.6 1.9 1.4 3.8 1.8 5.8.2.8.5.7 1.1.5l9.9-2.7 15.9-4.2 6.4-1.7c.7-.2.7-.4.3-1-2.5-4.1-5.7-7.8-8.6-11.8l-5.5-7.4c-2.8-3.6-5.7-7.2-8.4-11-3.2-4.5-6.7-8.8-10-13.3-.7-1.2-1.6-2.3-2.6-3.3-.7-.7-.7-1.4.4-1.7l2-.7c2.3-.7 1.9-1.4.8-3l-1-1.3c3.8-1 7.7-1.7 11.5-2.2 3.4-.5 6.7-1.3 10-2 4.8-.8 9.5-1.8 14.3-2.5 3.3-.5 6.6-1.3 10-2.1 3.6-1 7.3-1.5 10.9-2.7 1.9-.6 3.8-1.2 5.8-1.6a25 25 0 0 0 8.3-4c4-2.9 7.2-6.5 9.7-10.6a41 41 0 0 0 4.5-11.3c1.2-3.7 1.7-7.6 1.6-11.5-.2-2.7-.2-5.4-.5-8 0-2 0-3.8-.3-5.6-.7-3.2-.7-6.4-1.4-9.5a3.7 3.7 0 0 0-2.6-3.3c-6.3-2-12.9-2.7-19.5-2.3-2.2.2-2.1.2-2.5 2.3-.5 3.6-1.6 7-3.1 10.3-1.3 2.5-2 5.3-3.6 7.6l-.8 1.1 1.1-2.7a4.3 4.3 0 0 0 .1-4.3c-1-2.4-.8-5.1-1-7.7a12 12 0 0 1 .3-5c.2-.5.3-.9-.6-.9-2.3 0-4.6.4-7 .5l-6 1.2c-2.6.3-5.1.7-7.7.9-2.3.2-4.7.3-7.1.3-2.3-.2-3.7 1.4-5.3 2.5-2.5 1.8-5 3.7-7.3 5.7l-17 13.4-22 17.2-9.1 7.4c-1.5 1-2.7 2.5-4.2 3.6-1.5 1-3 2.4-4.2 3.8a14.1 14.1 0 0 0-3.5 9.3c-.3 4.3.3 8.7 1.6 12.8 1 2.7 1.8 5.5 2.6 8.2l3.2 10.3 3.7 12.2 3.4 12c1.4 5.1 3 10.3 4.6 15.5 1 3.6 2.1 7.2 3 10.9.3.8.7 1 1.5.7l14.7-4 7.9-2c.6-.2 1-.4.6-1.2-.4-.8-.7-1.6-.8-2.5-.5-2.5-1.9-4.7-2.6-7.2-.7-2.6-2-5-2.7-7.6-.7-2.5-2-4.7-2.8-7.1l-6-16.5c-1.7-4.6-4-9-5.5-13.8-.6-1.2-.9-2.6-.8-4Zm67.2-54.1c-.5.1-.3.6-.7.9l-5.4 3.6c-.2.2-.5.6-.8.2-.3-.4.2-.5.5-.7l6.4-4Zm-10.1 6.8.2-.2h-.1l-.1.2-.2.5c-2.3 1.2-4.2 3-6.4 4.3l-10.6 6.4-15.1 9.7a77.4 77.4 0 0 1-13.5 7.1 2 2 0 0 1-1-.1c.3-.7.9-.8 1.4-1a51 51 0 0 0 6.4-3c4.4-2.6 8.6-5.4 12.8-8 5.3-3.3 10.3-6.9 15.8-9.8a73.7 73.7 0 0 0 9.6-6l.8-.1Zm-57.8 46.1c-.4.2-.6 0-.6-.1a35.9 35.9 0 0 1-2.3-7.8 1.8 1.8 0 0 1 1.7-1.6l2.1-.6c1-.1.9-.4.7-1.2a2.6 2.6 0 0 1 1.1-3.4c2.3-1.5 4.9-2.1 7.2-3.5.3-.2.7-.2.8.2 0 .5-.3.5-.6.7-2.2.7-4.2 1.9-6.4 2.7-2 .8-2 1.1-1.2 3 .6 1.4.3 2.2-1.1 2.7l-1.8.4c-1.9.4-2 1-1.4 2.8l1.8 5.7Zm60.5-47.9c-.7.4-1 1.4-2.3 1.5.5-.8 1.4-1.3 2.3-1.5ZM608.6 164c0-.4 0-.7.2-1 4.2-6 4.2-12.8 3.3-19.8-.3-2.4-1-4.7-1.3-7.1-.1-.6-.4-1-1.3-1.2-4-.8-8-.6-12-1-6.5-.4-13-.5-19.6-.5-1 0-2.2-.7-2.7.1-.4.7.3 1.8.4 2.8.4 3.4 1.6 6.6 1.9 10 .1 1.3 1 1 1.7.9 1.3-.5 2.7-.6 4-.1-1.2.5-2.4.9-3.7 1-3 .7-5.8 1.9-8.7 2.9-3 .8-6 2-9 3.3-3.7 1.8-7.7 3-11.5 4.5-6 2.4-12 4.5-18.3 6.2-2.4.7-5 .8-7.4.3-2.6-.7-5.3-1-8-1.3-1.2 0-2.5.2-3.7.6L506 167l-2 1c2 .5 3.7-.3 5.9-.2-1.8.8-3.7 1.4-5.7 1.7a18 18 0 0 0-9.7 4.6c-.4.3-.7.8-1 1.3-.3.7-.1 1.3.8 1.4l2.4.3c.9.2 1.6 0 2-1 1.2-3.2 3.9-4.2 7-4.6a25 25 0 0 0 7-1.4c-1.5 1-3.2 1.6-5 2l-3.9.9a6.4 6.4 0 0 0-4.3 4c2.5.9 5 .4 7.4.4 5.5 0 11 0 16.4-.2 3.3 0 6.6-.4 9.8-1 3.7-.8 7.6-.9 11.3-.2 2.8.6 5.6.4 8.4.7 5.7.5 11.3.7 17 .5 4.1-.1 8.2-.3 12.4-.7 3.9-.3 7.7-1 11.5-2a30.2 30.2 0 0 0 14.5-10.4h.4Z" fill="#FEFEFE"/><path d="M487 85.8a4.2 4.2 0 0 0-1 5c.6 1.5 1.4 3 2.5 4.3a5.3 5.3 0 0 1 1.2 4c-.2 3.3.1 6.5 1 9.6.2.3.2.6 0 .9-.8-.3-.8-1.3-1.4-1.7-.7 1.2-1.6 2.3-2.5 3.3-.6.5-.4 1.3.6 1.5a34 34 0 0 1 9.5 4 116 116 0 0 1 9.3 7.2c3.1 2.5 6.3 5 9.7 7.2 3.8 2.5 7.4 5.3 11.2 8 3.6 2.6 7.6 4.9 11.8 6.6 1.5.7 3.2.5 4.8.9 3.1.6 6.4.4 9.4-.7.7-.2.7-.2 1.4.7a1.6 1.6 0 0 1 1-1.3c3.4-1.4 6.7-3.2 9.6-5.4.7-.5 1.9-.6 2-1.4 0-.7-.8-1.4-1.2-2a97.2 97.2 0 0 0-17.3-20.5c-.7-.5-.9-.3-1.2.1-.9 1.5-1.9 2.9-3 4.2-.5.5-.2.8.2 1 1.1.6 2.1 1.3 3 2.1-1.2 0-2.4-.5-3.5-1.3-4.2-2.2-8.6-4.2-13.1-5.8-4-1.5-8.1-2.7-12.1-4.3a21 21 0 0 0-4.4-1.3c-2.4-.4-4.2-2-6.5-2.9a8.3 8.3 0 0 1-3-2.6 52.6 52.6 0 0 1-4.5-6.8 21.7 21.7 0 0 0-6-5.8c-2.8-1.9-5.9-3.6-7.6-6.8ZM525.1 212.6l-6 2.1c-4.3 1.6-8.5 3.6-12.5 5.7-3 1.6-6 3.2-8.1 5.8-1.6 2-2.7 4.4-3.3 6.9-1.3 4.8-1.5 9.8-2 14.7l-.4 9.7c-.2 5.4-.5 10.9-.9 16.3l-.5 7.7-.7 12.9c-.3 4.8-.3 9.6-1 14.3-.3 2 .2 2.2 2.2 2 2.4-.4 4.9-.6 7.3-.7l18.8-1.2c-.6-2.8-1.3-5.5-2.3-8.1l-3.1-11.5-2.9-9.7-2.2-7.2c-.1-.3-.2-.7.2-.9.1 0 .4-.2.2-.3-2-1.1-1.6-3.2-2-4.8-1.2-4.5-2.7-8.8-4.2-13.2-1.4-4.7-1.9-9.7-1.3-14.5.2-3.5 2.3-6.3 4.9-8.6 2-1.8 3.7-3.9 5.8-5.5 3.8-3 7.2-6.5 11.1-9.2 1.2-.8 2.1-1.7 3-2.7ZM508.3 325.1a27 27 0 0 0 11.2-2.3c.8-.3 1.5-.8 2-1.4.6-.5 0-1.2-.2-1.7l-2.4-8.4c-.3-1.3-1.2-1.2-1.9-1.1-3.6.5-7.1.7-10.7.8-1.5 0-3 .3-4.4.3-.4 0-.6.2-.5.6.6 3.2 1.1 6.5 1.8 9.7.2 1-.3 2.3.5 2.7a8 8 0 0 0 4 .8h.6Z" fill="#FEFEFE"/><path d="m570.6 149.7 5.6-1.8c.6-.2.6-.3.5-1-.4-2.6-1.2-5.2-1.7-7.8l-.8-5c-1.3.8-2.5 1.7-3.5 2.9a.9.9 0 0 0-.2.9c.7 4-.2 7.8 0 11.8Z" fill="#343434"/><path d="M604.7 189.2c1.7-2.2 2.2-4.8 3-7.2.8-2.4 1.3-5 1.6-7.5-1.3-.3-2.6.3-4 0-.5 0-1.2.3-1.4 1.2a18 18 0 0 0-.4 6.3c0 2.4.5 4.9 1.2 7.2ZM503.4 168.4l.2.2.4-.3c.2-.2 0-.3-.1-.3l-.5.4Z" fill="#FEFEFE"/><path d="M570.6 149.7h-.2.1Z" fill="#343434"/><path d="M589.8 67.5c-2-3-4.6-5.7-6-9.3-.2-.6-.5-.7-1.1-.4-5 2.1-9.2.7-11.8-4-.5-1-.8-2.2-2.5-1.7-.8.3-.7.5-.5 1.2a6.6 6.6 0 0 1-.2 5.5 2.6 2.6 0 0 1-4.1.6c-1-.8-1.7-1.9-2.1-3-.2-.5-.2-1.4-1-1-.7.2-.1.8 0 1.2.8 2.9 1.9 5.7 3.3 8.3 1.3 2.7 5.8 3.3 8 2.1 2.3-1.2 4.6-2.5 5.8-5 0-.2.3-.3.9-.7-.8 2.9-1.7 5.7-2.8 8.4-.1.2-.3.4-.1.7 4.4-2.7 9.3-3 14.2-2.9Zm-24.4-3c.4-.3.5-1 1.2-.8.2 0 .3.2.1.4-.3.6-.6.9-1.3.5Z" fill="#FEFEFE"/><path d="M579 57a6 6 0 0 0 5.9-6.5c-.4-3.5-4.5-6.9-8.5-6.6-2.3 0-5.5 4.3-5 7.1a7.4 7.4 0 0 0 7.6 6ZM567.2 55.8a12 12 0 0 0-1.1-4.1 2.5 2.5 0 0 0-2.9-1.7c-1.4.4-1.4 1.8-1.4 2.9-.1 1.7 1 3.2 1.5 4.8a2.7 2.7 0 0 0 2.8 1c1.1-.3 1-1.4 1.1-2.4v-.5ZM565.8 38.6c.1.3.4.4.6.6 1.3 1.2 3.1 1.8 4.2 3.3l.7 1c.4 1 1 1.2 2 .4l.4-.3c1.3-1 1.2-1.2 0-2.3a19 19 0 0 0-5.5-3.8c-.7-.3-2.4.5-2.4 1Z" fill="#FEFEFE"/><path d="M562.5 49c-1.8-1-2.9-.4-3 1.6-.2 1 0 2 .3 3a.7.7 0 0 0 .7.6c.6 0 .3-.5.3-.7a4.4 4.4 0 0 1 1.7-4.5Z" fill="#FEFEFE"/><path d="M584.5 210.2a2 2 0 0 0-1.5.5c-2.9 2.1-5.8 4-8.9 5.6-5.5 3-10.5 6.5-15.8 9.8-4.3 2.6-8.4 5.4-12.8 8a51 51 0 0 1-6.5 3c-.4.2-1 .3-1.3 1a2 2 0 0 0 2-.2c4.4-1.9 8.5-4.2 12.5-6.8l15-9.7L578 215c2.2-1.4 4.1-3.1 6.4-4.3l.2-.5ZM526.7 256.3c-.5-2-1-3.8-1.8-5.7-.7-1.9-.5-2.4 1.4-2.8l1.8-.4c1.4-.5 1.7-1.3 1.1-2.7-.9-1.9-.8-2.3 1.2-3 2.2-.8 4.2-2 6.4-2.8.3 0 .7-.1.6-.6-.1-.5-.5-.4-.8-.2-2.3 1.4-5 2-7.2 3.5a2.6 2.6 0 0 0-1.1 3.4c.2.8.2 1-.7 1.2-.7 0-1.4.5-2.1.6a1.8 1.8 0 0 0-1.6 2.4 36 36 0 0 0 2.2 7c0 .1.2.3.6.1ZM594.6 203.4l-6.4 4c-.3.2-.8.3-.5.7.3.4.6 0 .8-.2l5.4-3.6c.4-.3.2-.8.7-.9ZM587.2 208.4c-1 .2-1.8.7-2.3 1.5 1.2 0 1.6-1.1 2.3-1.5Z" fill="#0D0D0D"/><path d="M584.5 210.2v-.2h.2l-.2.2ZM594.6 203.4ZM565.4 64.6c.7.4 1 0 1.3-.5.2-.2 0-.4 0-.4-.8-.2-1 .5-1.3.9Z" fill="#0D0D0D"/><path d="m184.7 368.7 9-19s-10.2-7-14.8-11c-4.7-4.1-14 1-14 1l-23.3-12-28.5-2.2-4 10 52.6 34.4 23-1.2ZM111.4 158.3l-3.2-.5-3 10.6 5.6-.7.6-9.4ZM109.1 98.9 107 95l-6 9 5.7 2L109 99ZM54 100.8l-2.7 5.6 11.3-.4-2.3-5.2h-6.2Z" fill="#FEFEFE"/><path d="M39.5 166.2a59.4 59.4 0 0 0-3.2 11l-1.7 8.2c-1 5-1.9 9.9-2.4 14.8-.5 4-.5 8.1 0 12.1a63.2 63.2 0 0 0 4.7 17c1.3 2.8 2.9 5.5 4.8 8a38 38 0 0 0 9.2 8l.1.4-8-1.1c-2.1-.5-4.3-.7-6.6-.6-.6.1-1.3-.4-2-.5-2.4-.1-4.8-.5-7.1-.8l-5.4-.6a3 3 0 0 0-2.4.9c-.8-3.1-.7-6.1-1.3-9-.7-4.2-1.5-8.3-1.9-12.4 0-1-.5-2-.7-3 0-.6-.5-.1-.6-.3-.3-.5-1.3-1-.1-1.5.6-.2.4-.5.4-1l-2.4-14.4-2.7-15.8c-.7-4.3-1.7-8.6-2-13-.2-1.5-.7-3-1-4.5a336 336 0 0 0-3.4-20c0-1-.2-2.2-.7-3.3 3.4-.3 5.4-2.5 6.7-5.2 2.5-5 3-10.5 4-16 .7-3.3 1.2-6.7 2-10.1.5-2.5.4-5 .7-7.5.4-2.7.5-5.4.8-8.1l1-9.3c.4-2.5.5-5.1.3-7.7-.2-3-1.5-4.2-4.4-4.3-1.3 0-1.4-.5-1.2-1.5l.7-4.2c0-.4 0-.9-.2-1.3-.1-.5-.3-1-1.2-.9-.9.1-1 .7-1 1.2C10.9 75.6 9.8 81.4 9 87c-.5 3.7-1.2 7.3-1.8 11-.9 5.6-1.8 11.3-2.5 17-.6 5-1.6 10-2.2 15-.3 3.3-.7 6.7-1.3 10-.5 2.3-.5 4.7.1 7 .5 1.3.7 2.7.6 4v.2c1.5.5.2 1.6.5 2.4.3 1.2.5 2.3.6 3.5l1.4 7.4.8 5.5c.2 2.5.8 4.9 1.2 7.3l1 6 1 6 1.4 8c.6 3 1 6.2 1.4 9.2a1022.9 1022.9 0 0 1 3.6 21.3c.8 2.8 1 5.7 1.6 8.5.9 3.5.7 7 1 10.6a4.5 4.5 0 0 0 4.3 4c1.3 0 2.5.6 4 0 .3-.1 1 .7 1 1.7-.4 3.6-.5 7.2-.8 10.7-.3 4.5-.8 8.9-.9 13.3 0 4.8-.6 9.6-.7 14.4 0 5.5-.8 10.9-1 16.3 0 4-.3 8-.5 11.9l-.9 14.2-.6 9.3c0 3.2-.4 6.3-.4 9.5 0 1.7-.5 3.5-.4 5.1.3 3-.8 5.9-.4 8.8l-.2 2.3c0 .7.3 1.5 1 1.4.6-.1 1.7 0 1.7-1.5l.1-7.9c.3-5.1.9-10.3 1-15.5 0-2.6.6-5.2.5-7.7 0-5 .7-10 .6-15 0-2.3.4-4.7.5-7l.6-13.2c.4-4.7.6-9.5.8-14.2.2-3.3.7-6.5.7-9.8 0-5.6.7-11.2.7-16.7 0-2.4.3-4.7.3-7v-1c-.3-1.6.2-2 1.6-1.6 3.2.8 6.5.6 9.8 1 4 .4 7.9.7 11.8 1.2l2.2.2c3.1 0 6.2.4 9.3.8 3.9.5 7.8.7 11.7 1 4.5.6 9 .7 13.6 1.4 3.3.4 6.6.4 10 .6l6.5.7c-.8.6-.4 1.4-.4 2.2-.5 5-.6 10-.8 15l-.6 16.3-.3 6-.1.6c-3.5 4-6.3 8.4-9.6 12.5-.4.4-.8.8-1.3 1a1 1 0 0 0-.5 1c.1.4.6.6 1 .6 3.2.4 6 2 9.2 2.4.7.1.6 1 .6 1.6l-.2 5.6c-.1 3.3 0 6.6-.3 9.9-.3 3.1-.3 6.3-.2 9.5.3 4.6-2 8.3-3.4 12.2-.8 2.5-1.9 4.8-2.8 7.2-.3.7-.4 1.4-.4 2.2.2 1.2-1.3 1.7-1.6 2.8-1 2.4-1.9 4.8-2.6 7.4-.2 1 .2 1.5 1.3 1.6 3.4.5 6.7.7 10 1 4 .3 7.8 1 11.8 1 1.6 0 3.2 0 4.8.3 1.1.3 1.4-.5 1.6-1 .5-1 .7-2 .8-3 0-1.5.9-.8 1.3-.5a48.9 48.9 0 0 0 10.6 4.7c1.2.3 2.5 0 3.8.1 4.6.5 9.2.3 13.7.5 2.6.1 5.1.5 7.6.5 2.2 0 4.4-.3 6.6-.2 5 .3 10 .2 15.1.6h4.7a3.4 3.4 0 0 1 2.6.4h.3c1.2-.4 2.5-.6 3.7-.6 1.8.2 3.7.1 5.5.1.8 0 1.9.5 2.4-.6a2.9 2.9 0 0 0-.8-3.5c-1.3-1.2-3-2.2-4.7-2.8-2.6-1-5-2.2-7.7-3.3a78.5 78.5 0 0 1-8.3-4 557.2 557.2 0 0 1-13.6-7.5 296 296 0 0 1-8.2 4c-.5.2-1 .6-1.3 0-.4-.5.3-.8.7-1 1.8-1.3 3.7-2.5 5.8-3.5l1.3-.7-2.3-1.4c-.6-.5-1 0-1.3.1l-5.9 3.1-1 .6c-.3.1-.7.2-.9 0-.2-.4 0-.7.2-1l2.4-1.5 4.5-2.6-.2-.1c-1.8-2-3.8-1.8-6-.5-1.3.8-2.8 1.5-4.2 2.1-.4.2-.8.4-1 0-.2-.4.1-.7.5-1 2-1.3 4.2-2.2 6.4-3.4a90.2 90.2 0 0 1-13.8-12.6c-1-.9-1.6-1.4-3-.6-.7.4-1.6.6-2.4.5-4.2.1-8.4-.5-12.4-1.8l-1.8-.3c-3.2-.5-5.6-2.7-8.5-3.6-.5-.2-.5-.4-.4-1 .3-1.3 1-2.3 1.4-3.5a2 2 0 0 1 1.9-1.5c3-.4 6.1-.4 9.2-.2l7.3.4 9.6.9c1.6.2 1.7.5.8 1.8-1.1 1.6-2.2 3.2-3.1 4.9-.4.7-.5 1.1.4 1.6.8.4 1.6 1 2 2 2.5 3.9 6.2 6.6 9.8 9.4 6.2 5 13.1 8.9 20 12.8a457 457 0 0 1 11.5 6.6c2 1.1 4.1 1.6 6.3 1.5l6.6.1c2.8 0 5.6.3 8.4.2 2.1-.2 4.3-.1 6.4-.1l9.4.1 7.5-.1c.8 0 1.5-.4 1-1.6-.7-1.6-2-2.9-3.6-3.6-3.1-2-6.8-2.5-10-4.5a20 20 0 0 0-4-1.7 60.5 60.5 0 0 1-11.9-6l-4-2.2a1.6 1.6 0 0 0-1.7 0l-6.8 3.4-1 .4c-.4.1-1 .3-1.2-.2-.2-.4.3-.7.6-1 2.1-1.2 4.3-2.3 6.6-3.2.4-.1 1.2-.1 1.1-.9 0-.6-.7-.7-1-.7-1.1-.1-1.5-1-2.2-1.6a1.4 1.4 0 0 0-1.7-.1l-7.3 3.8c-.4.2-1 .5-1.3 0-.3-.5.4-.8.8-1 2.5-1.4 4.8-3 7.4-4-1-1.5-2.7-2-3.8-3-.4-.4-.7 0-1 .2a217.5 217.5 0 0 0-6.3 3.4 2 2 0 0 1-1.2-.2c2-2.2 4.7-3.1 7.1-4.7-1.1-1-2.4-1.9-3.6-2.8-2.9-2.5-5.6-5-7-8.7-.5-1.1.1-2 .2-3 .4-2.9 1.4-5.6 1.6-8.4 0-.5.5-.8 1-.7 1.7.3 3.3 0 5 .4 2 .4 2.3-.2 2.4-2.3.1-3.1 0-6.3-.4-9.5-.4-5.8-.5-11.6-.3-17.4 0-2.8-.2-5.7-.4-8.5-.2-3 0-6-.3-8.8-.3-3-.7-6-.8-9-.1-4.4-.6-9-1.3-13.4-.4-3.2-1-6.4-1.6-9.5-1-4-3-7.5-5.8-10.4a14 14 0 0 0-6.6-3.4c-1.6-.4-3-1.5-4.7-1.7-2.1-.3-4-1.3-6-1.7-2.6-.5-5.2-1.2-7.8-2l-6.5-2c-2.1-.6-4.2-1.5-6.4-2.1-6-1.6-10.7-5.5-15.8-8.7-4.2-2.6-8.1-5.5-12-8.4a54.1 54.1 0 0 0-5.5-4.1c-2.4-1.3-3.8-3.4-5.8-5-.5-.5-1-1.1-1.4-1.8-.2-.5.1-.5.4-.6h.7c-.4-.9-1.2-.9-2-.8-2.4 0-5 0-7.4-.3-4.3-.4-8.5-1-12.7-1.3l1.4.7c3.1 1.1 6.4 1.7 9.6 3a59 59 0 0 0 6.8 2.3c2.1.6 4.3 1 6 2.7 3.1 3.4 7.5 5.5 11 8.5 1.6 1.3 3.2 2.5 5 3.6l11 7c1.8 1.4 3.8 2.5 5.9 3.6 2.9 1.6 5.7 3.3 8.6 4.8 2.1 1 4 2.4 6.3 3.3 1.1.5 2 1.5 3.1 1.9 2.4 1 4.4 2.5 6.7 3.4 2 .7 3.3 2.4 5.2 3 3.8 1.1 6.7 3.7 9.6 6.2.4.4.7 1 1.5 1-.2 1.5 1 2.4 1.8 3.5l1 2c.5 3.4-.3 6.7-.8 10-.7 3.5-1.7 6.8-3 10-.3.9.2 1.5.2 2.2 0 .5-1.4.9-1.5 1.8-.5 2.2-1.2 4.5-2 6.6-.9 3.2-1.7 6.5-2.8 9.6-1 3-2 6-2.8 9l-4.3 14.2c-1.2 4.3-2.6 8.6-3.9 12.8-.6 1.9-1 3.8-1.7 5.6-.1.5-.1 1.4-1 1-3.2-1.1-6.5-1.8-9.8-2.8-4-1.2-8-2.6-12.1-3.5-1.7-.4-.7-1.1-.5-1.6.8-1.6 1.6-3.4 2.2-5.2.3-1 .8-2 1.3-3 .7-1.2 2.2-2.5 1-4.2l.3-.2c1-.2.9-1 1.1-1.7.4-1 .3-2.3.9-3.1a12 12 0 0 0 1.8-3.4c.6-2 1.4-3.7 2.2-5.5 1-2.5 1.9-5 3-7.4a.8.8 0 0 0 .2-.7.8.8 0 0 0-.6-.5c-.9 1.6-1.6 3.2-2.2 4.9l-1.9 5c-1.6 3.9-3.3 7.7-4.8 11.6-.9 2.6-1.7 5-2.8 7.5-1 1.8-1.7 3.7-2.3 5.7-.1.5-.3 1.5-1.1 1.2a35 35 0 0 0-3.5-1l-11.6-3.5c-2.7-.8-5.5-1.5-8.2-2.4-1.8-.4-3.5-.8-5.2-1.4 3.5-5.6 8-10.2 11.7-15.6 1.8-2.7 3.8-5.4 5.9-8 1.5-1.8 2.7-3.8 4.2-5.6l4.3-5.6c1.9-2.5 3.7-5.1 5.8-7.6l4.1-5.3c.5-.6.8-1-.4-1.1-1-.1-2 0-3-.2-1.2 0-1.1-.5-.6-1.1l2.3-2.4c.3-.2.6-.4.4-.8a.8.8 0 0 0-1-.5c-1.8.6-3.7 0-5.5-.1l-11.3-.8c-7-.4-13.8-2.2-20.9-2.5-2.3-.3-4.5-.7-6.7-1.3-2-.4-4-1.1-6-1.4-.6 0-1.7 0-1.8-.2-.4-1-1.3-.8-2.1-1-.9 0-1.8-.2-2.7-.5-2.4-1-5.1-1.2-7.6-2.1l-4.7-1.6-5.5-2.3c-3-1.3-5.6-3-7.8-5.4-4-4.3-7-9.5-8.8-15.1-.6-2-1.4-3.8-1.8-5.7-.7-2.5-1.2-5-1.4-7.7a108.7 108.7 0 0 1 .5-15c.4-1.2.7-2.4.8-3.6.7-3.2 1-6.5 2-9.7 1.2-4.5 1.9-9.2 3.2-13.6.2-.8.5-1.5 1-2-.2-.8-.6-1.2-1.4-.8Zm99.8 54c1.4-.3 2 .8 3 1 2.4.5 4.7 1.5 7.1 2 3 .5 5.8 1.4 8.6 2.5 1.2.5 2.6.1 4 1.1 1.5 1.2 3.7 1.5 5.5 2.5a9 9 0 0 1 3.3 3 16 16 0 0 1 2.2 5.4c.4 1.7 1.3 3.3 1.3 5.2l.6 3.6c.2 1.2-.2 2.5.8 3.5-.8 2.4.3 4.8 0 7.2l.3 6.9c0 3 .7 6 .5 9 0 .8.2 1.2 1 1.3-1 .9-1.1 1.3-.6 2.4 0 .1.3.3.2.5-.3 2-.3 4 0 6 .3 4.5.2 9.1.3 13.8 0 .8.6 1.7.3 2.4a8.1 8.1 0 0 0-.1 4c.2 2.1.1 4.3.5 6.6.2 1.4-.3 2.8.1 4.3.2.6-.2.6-.6.5-3.6-.4-7.1-.7-10.7-.7-1.1 0-2.3.5-3.2.1-1.8-.6-3.5-.3-5.2-.5-1.1-.2-2.3-1-3.5-.2-.1-.4-1.2.1-.9-.9.7-1.9 1-3.9 1.8-5.7 1.8-4.6 2.8-9.5 4.4-14.2l4-12.8c1.3-4.5 2.8-9 4-13.4 1.4-4.8 3.2-9.6 4-14.6l.4-5c.1-3.5-1.7-6.2-3.8-8.7-1.8-2.3-4-4.3-6.5-5.7-3.3-1.7-6.4-3.8-9.8-5.4a100.9 100.9 0 0 1-13.3-7Zm-13.6 40c0 .5-.5.7-.7 1l-.7 1.1c-1 1.4-.5 2.3 1.1 2.5h3c-7.6 10-15.2 19.6-22.4 29.5a4 4 0 0 1-.4-2.8c.2-2.8 0-5.7.3-8.6.2-2.6 0-5.3.1-7.9.3-2.5.4-5 .3-7.5 0-2.6.1-5.1.5-7.7 0-.5.3-.8 1-.8 2.3.2 4.7.2 7 .5 1 .1 2-.3 2.8 0 1.5.3 3 .5 4.4.4 1.3-.2 2.5 0 3.7.2Zm43.1 64c0 4.2-.7 5.3-3.7 6.1-.7.2-1.5.2-2.2 0l-3.2-.7c-3-.6-6-1.7-8.6-3.2-.4-.2-1-.6-1-.8.5-1.8 1-3.5 1.8-5.2h.4l4.2-1.5c4-1.5 8.2-1.8 12.3-2.7 1-.2 1.2 0 1 1.2-.2 2.5-.7 4.9-1 6.8Zm-65.1 15.9c.2-2.6.4-5.2.4-7.9l.6-13.8c0-1.1.5-1 1.2-.7l6.9 1.8c.7.2 1 .5.6 1.2a73.6 73.6 0 0 0-4.5 11.5c-.2.2-.5.3-.8.3-1.4 0-1.6 1.3-2.1 2.3-.8 1.6-1 3.5-2.3 5.3Zm-81.3-1.5.2.3c0 .3-.2.4-.5.4-.1 0-.3 0-.2-.2 0-.3.3-.4.5-.5ZM76.2 28.8c-2.2.7-4.2 2-5.7 3.7-3.6 4-3.9 8.7-.4 12.2a9 9 0 0 0 6.3 2.8c-2.4 1.8-5.2 1-7.2-1l-2-1.9c-.2-.3-.6-.4-.9-.2-.3.2 0 .6.1.9 1.6 3.1 5 6.4 9.5 5h.7a7.6 7.6 0 0 0 .3 6.5c.9 2 2.3 3.7 4.2 4.9.5.3 1 .7 1.4 1.2 2 1.6 1.9 1.6.7 3.7a45 45 0 0 1-4.4 6.6c.4.2.8 0 1.2 0 .1-.3.2-.5.5-.3l3.3-4.2c1.6-2.3 2.5-5 4.4-7.2.2-.6 0-.7-.5-.9-1-.2-1.8-.7-2.6-1.2a6.1 6.1 0 0 1-1.6-6.8 6 6 0 0 1 5.8-4c4-.1 6.6 2.8 6.6 6.8a5.9 5.9 0 0 1-5.6 5.5c-.7 0-1.5.2-2.1.6a1.5 1.5 0 0 0 2 .9c1.3-.2 2.5-.7 3.5-1.5a9 9 0 0 0 2.8-3.6c.5-1 .7-2.3.5-3.5 0-.3-.3-.8.4-.7a3.4 3.4 0 0 0 3.6-2.3c.2-.7.5-.7 1.1-.2a6.5 6.5 0 0 0 5.5 1.5c.6 0 1 .3 1 .9.1 2-.1 4.2-.7 6.2a58 58 0 0 1-4.2 7.6c-.1.3-.2.6-.5.4-1.3-1-.9.2-1 .7 0 .2 0 .5-.2.6a6.4 6.4 0 0 1-7.5 1.1c-.8-.5-1.4-1.2-2.1-1.8-.4-.3-.7-1-1.1-.7-.4.3-.3 1-.2 1.6.5 2 1.2 3.9 2 5.7l2.2 1.3v-.1c-.4-.9-.5-1.8-.3-2.7.4-1.2 1.5-.1 2.3-.3 1.8-.3 3.6-1 5-2.2 2.3-1.5 4-3.7 4.9-6.2 1.2-2.4 2-5 2.4-7.7a2 2 0 0 1 1.5-1.9c2.5-1 3.5-3 3.9-5.7.4-3.4-1.4-5.3-4-6.5-.9-.4-2-.6-3-.5a3.4 3.4 0 0 0-2.6-3.5c-.6-.2-1.5-.3-.7-1.4a2.7 2.7 0 0 0-1.9-4.4c-1.4-.2-3-1-4.3.3-.2.4-.5 0-.8-.2a6.7 6.7 0 0 0-8.4.6c-1 .6-1.8 1.6-2.1 2.7l-.5-1c-1.2-2.7-3.8-3.7-6.2-5.1-1.2-.8-2.7-.6-4-1h-.3Zm26.2 5.2a1.1 1.1 0 0 1 1.5.8c.2.8-.5 1-1 1.3a25 25 0 0 0-7.8 11c-.3.9-.3 2-1.9 1.2-.8-.4-1.5-1-1.1-1.8 2-4.6 5-8.7 8.8-12 .4-.3.8-.7 1.5-.5Z" fill="#0D0D0D"/><path d="M95.3 75.7 93 74.4l-2.8-1c-3.1-1-6.5-1.1-9.7-.5 0 .2-.3.2-.5.2-.4 0-.8.3-1.2 0A82.7 82.7 0 0 0 53.4 102c3-.6 5.3-.2 6.4 2.6a8.8 8.8 0 0 0-4.8-2.3 2.6 2.6 0 0 0-2.4 1.7 70.6 70.6 0 0 0-4.5 10.4c-1.1 3.3-2.9 6.4-3.8 9.8-.4 1.8-2.1 2.6-3.4 3.7a3.9 3.9 0 0 0-1 4.4c.3 1.4.4 2.9.4 4.3a4 4 0 0 1-.9 2.4 80 80 0 0 0-5.3 8.2c-1.3 2.6-2.9 5.2-2.4 8.4.3 2.2 1.2 4.3 2.6 6 1.6 1.8 3.3 3.3 5.2 4.7.8-.4 1.2 0 1.4.7 2.8 2 6 3.7 9.2 4.8v-4l.3-4a.8.8 0 0 1 .7-.8c.2 0 .4.2.4.4 0 1.5 1 2.8.7 4.4l.2.2c0 1.2.3 2.3.8 3.4.3.8 1 1.5.3 2.4l2 2.6c1.7 1.9 4 3 5.8 4.7a.3.3 0 0 0 0 .2c.2.2.6.1.4.5a2.2 2.2 0 0 1 2 .4c2 1 4 1.8 6.3 2.2l12.7 1.3c2.5.3 5 .4 7.5.3.7 0 1.5 0 2 .8 10.5.2 21 .2 31.5-.4 1.3 0 2.6.3 3.8-.4l1.4-12.1c.4-4.4.5-8.7.8-13l-19.5-2.7a5.5 5.5 0 0 1 0 6c-.5.8-1 2-2.6 1.6 0-.8 1-.9 1.2-1.4a6.8 6.8 0 0 0 .7-5.6c-.2-.5-.4-.7-1-.8l-6.5-1.4c-1-.2-1.3-.7-.9-1.8l1-2.8c-1-.5-.3-1.3-.2-1.8.9-2.4 1.9-4.8 3-7 .2-.5.4-1 .9-1v6.6c-.2 1.2.5 2.5-.4 3.7a5 5 0 0 0 2.2.8c4.1 1.4 8.2 3.2 12.5 3.7a49 49 0 0 0 13.8 0 13.9 13.9 0 0 0 11-10l1.1-3.8c1.5-4.9 1-9.7.7-14.6-.1-2-.4-4-.6-5.9-.6-4.6-1.4-9.3-2.3-13.9-.6-3-1.6-5.7-2-8.7a4.8 4.8 0 0 0-2-3.7c-1 .4-2.2.6-3.4.6-6-.2-12-.6-17.9-.5-1.4.1-2.9 0-4.2-.6-.5 1.9-.4 3.8 0 5.7l.7 5.2.2.5c.4 0 .4.4.4.7l.5 6.5c0 .7 0 1.4-.2 2l-.6-1.1c-1.2-2.8-1.5-5.7-2.6-8.5-.2-.5-.6-1.3.2-1.8-1.6-2-2.7-4.5-4.3-7 0 1.5-.6 3-1.5 4-1 1-2.3 1.6-3.7 1.8-.3-1 .3-1.1.9-1.3 1.7-.6 2.3-2 3-3.4 1-1.9.2-3.1-.8-4.7-1.3-2-2.2-4.4-3.4-6.6a68.5 68.5 0 0 0-5.2-9.3c-.8-1-2-1.7-2.6-2.8ZM75.5 161l-.3.2a3.2 3.2 0 0 1-.8 3.8c.2-2 .7-4-.8-5.8L72 158c-.1-.1-.5-.4-.2-.7a.9.9 0 0 1 .6-.1 4.7 4.7 0 0 1 3.1 3.9Zm-2.3-27.1c2.2-1.6 3.3-3.5 3-6a10 10 0 0 0-.8-2.6c0-.2-.3-.5 0-.7a.8.8 0 0 1 .7.1c.2.2.5.5.6.8a5.3 5.3 0 0 1-3.5 8.4Zm21.5 31.3.3-2.4c.1-.4 0-1.2.7-1.1.5 0 .6.8.5 1.4v1.3a3 3 0 0 0 1.8 3.5l1.3.8c.2.1.5.3.4.5 0 .4-.4.4-.7.4a5.7 5.7 0 0 1-4.3-4.4Zm-9.5 7.9c-.6.4-1.2.6-1.9.8-1.6.4-3.4.5-3.9 2.9-.1 1.2-.4 2.4-1 3.6 0 .2 0 .5-.4.3a.9.9 0 0 1-.3-.4c.8-.6.1-1.4.3-2 1-3.4 2.2-6 7.2-5.2Zm-31.9-26.3c1.4.4 1.5-.9 2-1.5a5.3 5.3 0 0 0 .6-5.6c-.1-.3-.7-.7-.1-1 .5-.3.8.2 1 .6 1.3 1.5.7 3.2.4 4.8a3.5 3.5 0 0 1-3.9 2.7Zm74.2 4c1.5-.2 3-.5 4.3-1a3.1 3.1 0 0 0 2-1.6c0-.3 0-1 .7-.9.6.2.3.8.3 1.2 0 1.3-1 1.9-2 2.4a6.6 6.6 0 0 1-5.3-.2Zm-89-3c.7-.1.9.3 1.1.7 2 2.9 1.7 5-.6 7.8-.4.4-.5.2-.8 0-.5-.2-.4-.4-.1-.7 1.1-1.2 1.3-3 2.2-4.3.1-.2.3-.5 0-.6-1.4-.5-1-2-1.9-2.8Zm14.2-24.2-.3.3c-2 1.6-4.4 3-4.8 6a.4.4 0 0 1-.4.4c-.2 0-.3-.2-.3-.4-.2-.4-.2-.8 0-1.1.7-3 3-4.3 5.8-5.2Zm80.9-22.3.4.2a7.6 7.6 0 0 0 5.8 3.3c.2 0 .4 0 .4.3 0 .2-.1.4-.3.5-.5.2-1.1.5-1.6.2-1.4-.7-3.7-.5-3.6-3.1l-.5-.5c-.2-.2-.8-.2-.6-1Zm-10.8 8.1c-.3 0-1 .2-1-.5-.2-.6.5-.2.8-.4l.4-.4c1.4-.7 1.5-2.2 1.8-3.5 0-.3 0-.6.4-.7.2 0 .4.2.5.4 1 1.6-1 5.1-2.8 5.1Zm-32-25.3c-2.6 0-4 1.6-5 3.7 0 .2-.2.4-.3.5a.4.4 0 0 1-.4.1c-.2 0-.2-.2-.2-.4.3-3 3.4-5.4 6-4Zm44 49.5c.1-.7.6-.7 1-.7 1.5 0 2-1.1 2.3-2.2.3-.6.4-1.3.5-2a1.6 1.6 0 0 1 .7-1.3c1.2 2.9-1.3 6.7-4.6 6.2Zm-75-20c2.4.7 4.6.6 6.4-1.3a.3.3 0 0 1 .2-.1h.2v.1a.6.6 0 0 1 0 .8 4.6 4.6 0 0 1-6.7.5Zm.5 62.1c-2-2.3-1-5.3 2.2-7.4l-2 3.5a4 4 0 0 0-.2 4Zm30.9-21.2c-1.5-.8-1.4-2.2-1.7-3.2-.5-1.7.9-3.4 2.9-4-3 2-1.9 4.5-1.2 7.2Zm.1-58.4c1.7 2.6 1 6.4-1 7.4 1.9-2.1.7-4.7 1-7.4Zm-20-7.1a3.3 3.3 0 0 1 2.2 3.4 3.1 3.1 0 0 1-3 2.5c2-1.8 3.2-3.6.7-6Zm31.7 94c-.1-.8 0-1 1-1.2 1.7 0 3.5.5 4.8 1.6.3.1.7.3.5.6-.3.4-.5 0-.8 0-1.7-.9-3.4-1.7-5.5-1Zm20.8-49.8c-2.4-.7-3.4 1.3-4.9 2.4 1-3.3 2.6-4.2 5-2.4Zm-9.1 38.3a4 4 0 0 1 2.2.3c.2.1.6 0 .5.4 0 .3-.4.7-.7.5a6 6 0 0 0-4 0c-.4 0-.7-.4-.7-.7 0-.4.3-.3.6-.5.8-.3 1.6 0 2 0Zm18.8-56.8c.6 0 1.1.1 1.2.6.2.6-.5.5-.9.6-.8.1-1.7.5-2.4 1.1-.3.4-.5.2-.8 0-.3-.3-.1-.6 0-.8.8-.8 1.8-1.4 3-1.5Zm-30.9 16.4c-.6-1.7-1.8-3-3.4-3.9.9.3 2-.2 2.7.8a3.1 3.1 0 0 1 .7 3.1Zm19.7 32.2c.2 1.3.5 2.5 1 3.7.2.2.3.5 0 .6-.3.2-.7 0-.6-.3.3-.6-.4-.5-.5-.7-.3-1-.8-2 .1-3.3Zm-38.2-47-1.7-.4c-.2 0-.5-.3-.4-.6.1-.3.3-.6.8-.5l1.7.5c.4.2 1 0 1 .6-.1.5-.7.4-1.4.4Zm-3-2.8c.3.1.6.4.6.8 0 0-.1.6-.5.5a.9.9 0 0 1-.6-.8c0-.3.1-.5.5-.5Z" fill="#343434"/><path d="M129.7 160.8c-.3 4.3-.4 8.6-.8 13l-1.4 12.1c1 .7 1.2.2 1.4-.6l.5-3.5c0-.6.3-.8.9-.8l6.8.3c2.7 0 5.4 0 8 .3 3.3.3 6.5.2 9.7.3 4.1.1 8.2.3 12.3 0 .8 0 1.4-.4 1.3-1.5-.4-4.8-1.6-6.1-6.3-7.7l-4-1.4c-.8-.2-1.5-1-2.3-.2-.2.2-.2 0-.2-.1a3 3 0 0 0-2.3-1.2l-10-2-6.2-1.7-4.5-.7c-1.1-.1-2-.2-1.6-1.7 0-.8 0-1.7-.2-2.4 0-.9-.3-1-1-.5Zm32.7 20.2c-.3-.8-.7-.9-1.3-.8-1.1 0-2.4.1-3.2-1.4a7.7 7.7 0 0 0-5.2-4.4c-2-.4-4-1.5-6.2-1.5 1.7 1.7 3.9 2.1 5.8 3a6.4 6.4 0 0 1 4 3.8h-11.7c-2.3.2-4.6 0-6.9-.2-2.1-.3-4.3.7-6.4 0h-.3c-1.2.5-1.3-.4-1.2-1 .5-3 .8-6 .9-9.1 0-1-.1-2.2.4-2.7.7-.6 1.8.3 2.7.4 2.6.5 5.1 1 7.7 1.8l5.4 1.3c3.8.9 7.6 1.1 11 3.4 2.6 1.7 5 3.3 4.5 7.4Zm0-6.4 1.5.7c.6.2 1.2.6 1.6.5 1-.2.6.8 1 1-.4.7.3 1.3.4 1.9.5 2 .6 1.9-1.5 1.8-.6 0-1.3.2-1.2-.7.1-2-1.4-3.3-1.8-5.2Zm-.8-.1c0-.2.1-.3.2-.2.2 0 .3 0 .4.2.1.2 0 .2-.2.2a.4.4 0 0 1-.4-.2ZM114.3 95.8c1.4.5 2.8.7 4.2.6 6 0 12 .3 18 .5 1 0 2.2-.2 3.4-.6l-.2-.5c-1.7 0-1.8-1-1.9-2.4a57.6 57.6 0 0 0-3.2-16.2l-.9-2.5a6.7 6.7 0 0 0-4-4.3 2 2 0 0 1-1.3-1.6c-.2-1.1-.7-2-1.6-2.8a2.3 2.3 0 0 0-3.4.1c-.5.5-.8.5-1.2 0l-1.2-1c-1.2-.4-2.5-1-3.6-.1-1.2 1-2.3 2.2-2 4.2.4 2.4 1.1 4.8 1.6 7.1.2.7.2 1-.7 1-2.6.2-3.2 1.4-3 4l.8 4.3 1.5 7.6c.2.9.4 1.6-.8 1.8-.2 0-.3.5-.5.8ZM130 72.4c.5.2.8.6 1 1 .9 2 1.7 4.1 2.4 6.2 1.6 4.3 1.8 9 2.5 13.4.4 2-.2 2.5-2.2 2.4-5-.3-10-.5-15-.4-.9 0-1-.5-1.3-1.1a50 50 0 0 1-2-8.6l-.6-4.5c-.1-1.5 1.2-1.4 2-1.7.5-.2 1-.2 1 .4.1 1 .9 1.9.8 3 0 .4 0 1 .5 1 .7 0 .6-.7.6-1.2 0-1.3-.2-2.7-.6-4l-.9-3c-.1-1.2-.2-2.4-.5-3.6l-.5-3.4a1.8 1.8 0 0 1 1.3-2 3 3 0 0 1 3 2c.4.9.6 1.8.7 2.7 0 .4.3.8.9.7.6 0 .4-.5.4-.9 0-1 .1-1.9.5-2.8.6-1 1.4-1 2.1-.1a24.7 24.7 0 0 1 2 6.6l.6 4c0 .3.2.8.8.7.7 0 .6-.5.6-1 .1-1.8 0-3.7-.4-5.5-.2-.2-.3-.4-.2-.6.4-.2.4.2.5.3ZM105.4 152.4c.9-1.2.2-2.5.3-3.7.2-2.2 0-4.4 0-6.6-.4 0-.6.5-.8 1a61 61 0 0 0-3 7c-.1.5-.7 1.3.2 1.8.3-.7.8-.7 1.4-.4l2 .9ZM113 105c-1 .5-.4 1.3-.2 1.8 1 2.7 1.3 5.7 2.5 8.4l.6 1.2c.2-.6.3-1.3.2-2l-.5-6.5c0-.3 0-.7-.4-.7v.9l-2.3-3.1Z" fill="#0D0D0D"/><path d="M92.2 186.7h-.8c.3.2.5.3.8 0Z" fill="#343434"/><path d="M78.5 73.4c.2 0 .3 0 .3-.2-.2 0-.3 0-.3.2Z" fill="#0D0D0D"/><path d="M50.1 171.7a34 34 0 0 1-9.2-4.8c-.5.6-.8 1.3-1 2-1.3 4.5-2 9.2-3.3 13.7-.9 3.1-1.2 6.5-1.8 9.7l-.9 3.6v1.8a45.5 45.5 0 0 0 1 20.8c.3 2 1.1 3.8 1.7 5.8a39.1 39.1 0 0 0 8.8 15.1c2.2 2.3 4.9 4.1 7.8 5.4l5.5 2.3c1.5.6 3.2 1 4.7 1.5 2.5 1 5.2 1.1 7.6 2.2 1 .3 1.8.5 2.7.5.8.2 1.7 0 2.1 1 .1.2 1.2.2 1.8.2 2 .2 4 1 6 1.4 2.2.6 4.4 1 6.7 1.3 7 .3 14 2.1 21 2.5l11.2.8c1.8 0 3.7.7 5.6 0a.8.8 0 0 1 1 .6c0 .4-.2.6-.4.8l-2.4 2.4c-.5.6-.5 1 .5 1.1 1 .1 2 0 3.1.2 1.2.1 1 .5.5 1.1l-4.2 5.3c-2 2.5-4 5-5.8 7.6l-4.3 5.6c-1.5 1.8-2.7 3.8-4.2 5.6a107 107 0 0 0-6 8c-3.5 5.4-8.1 10-11.6 15.6 1.7.6 3.4 1 5.2 1.4 2.7 1 5.5 1.6 8.2 2.4a3037.8 3037.8 0 0 0 15 4.5c1 .3 1-.7 1.2-1.2.6-2 1.4-3.9 2.3-5.7 1.1-2.4 2-5 2.9-7.5 1.4-4 3.2-7.7 4.7-11.6.7-1.7 1.2-3.4 2-5a22 22 0 0 1 2.2-4.9c0-.4 0-.9.2-1.3.8-1.7.5-4 2.2-5.2 0-1.3.3-2.5 1-3.6.7-2.4 1.7-4.6 2.3-7 .7-2.2 1.7-4.4 2.1-6.7.5-2.5 1.4-5 1.7-7.5a3.4 3.4 0 0 0-3.1-4c-.5 0-1.3.2-1.5-.5-.1-.6.3-1 .7-1.4a2 2 0 0 0 .6-1.8 2 2 0 0 0-1.2-1.4c-.8-.3-1.4-1.2-2.4-1-.3.1-.3-.1-.3-.3 0-.3 0-.3.3-.3 1.2.2 2.3.5 3.2 1.1a2.2 2.2 0 0 1 .5 3c-.6.8-.5 1.2.6 1.3 1.7.2 3.8 2.4 3.7 3.9-.5 3.1-1.2 6.2-2.2 9.2l-1.3 4.3a74 74 0 0 1-2.5 8.4c-1 3-2.6 5.7-3.3 8.9a2.3 2.3 0 0 1-1.4 2 .8.8 0 0 1 .5 1c-1.2 2.5-2 5-3.1 7.5-.8 1.8-1.6 3.6-2.2 5.5a12 12 0 0 1-1.8 3.4c-.6.8-.4 2.1-.9 3.2-.2.6-.1 1.4-1 1.6-.2 0-.3.1-.3.2 1.1 1.8-.4 3-1 4.3-.6.9-1 2-1.4 3-.6 1.8-1.3 3.5-2.2 5.2-.2.4-1.1 1.1.5 1.5 4.1 1 8 2.3 12.1 3.5 3.3 1 6.6 1.7 9.8 2.9 1 .3 1-.6 1-1 .7-1.9 1.2-3.8 1.7-5.6l4-12.8c1.3-4.8 2.8-9.5 4.2-14.2l2.8-9c1.2-3.2 2-6.5 2.9-9.7.7-2.1 1.4-4.3 1.9-6.6.1-1 1.6-1.3 1.5-1.8 0-.7-.5-1.3-.2-2.2 1.3-3.2 2.4-6.5 3-10 .5-3.2 1.3-6.6.7-10-.1-.8-.5-1.4-.9-2-.7-1.1-2-2-1.8-3.6-.7 0-1-.5-1.5-.9-3-2.5-5.7-5-9.6-6.2-1.8-.6-3.2-2.3-5.2-3-2.3-.9-4.3-2.4-6.7-3.4-1-.4-2-1.4-3.1-1.9-2.2-.8-4.2-2.2-6.3-3.3-2.9-1.4-5.7-3.2-8.6-4.8-2-1-4-2.2-6-3.5-3.5-2.5-7.2-4.8-11-7.1-1.6-1-3.3-2.3-4.8-3.6-3.6-3-8-5-11.2-8.5-1.6-1.7-3.8-2.1-5.8-2.7a59 59 0 0 1-6.9-2.2c-3.1-1.4-6.5-2-9.6-3a5 5 0 0 1-1.4-.8 22.2 22.2 0 0 1-7.3-2.6h-1c.2.7-.6 1.7-.1 2a2.6 2.6 0 0 1 1 2.3c.2 1.3.6 2.4.7 3.6.1 1 1.1 2 .2 3 0 .2-.2.7.2.6 1.3-.4 1 .8 1 1.1.5 1.6 1 3.2 1.8 4.7.3.8.6 1.4-.3 2-1.7-3.6-3-7.3-3.9-11.3-.1-.6.5-1.1.2-1.6-1.2-1.8-1-4-1.7-5.9-.2-.4-.4-1 .4-1.2-1.8-1.6-4-2.8-5.7-4.7l-2-2.6-3.4-2Zm61.8 64.5c.5-.4 1-.9 2-.6a94 94 0 0 0 6.5 1.8c1.2.2 2.3.9 3.5 1.1 1.8.4 3.5 1.1 5.2 1.6 1 .2 1.8 1.1 3.3.9 1.5-.3 3.3 1 5 1.2.4 0 .5.2.5.5 0 .4-.3.3-.6.3l-1-.3a32 32 0 0 0-4.7-1.2c-2.3-.2-4.3-1.1-6.4-1.5-2.7-.5-5.1-1.6-7.7-2.2-2-.3-3.8-.9-5.6-1.6-2-.2-4-.6-6-1.2-.8-.1-.7-.6-.6-1.3 1 .7 2.5.2 3.3 1.2.5.5.7.5 1.3.3 1-.4 1.8 0 2 1Zm-45.2-33.9.6-.8c.3-.1.5.1.6.4l4.8 9.7c.3.6.3 1.5.7 1.7 1.5 1.2 1.7 3.2 3.2 4.3.3.2.4.6.1.8-.4.4-.6 0-.8-.3-.8-1-1.5-2-2-3l-3.2-6-3.5-6-.5-.8Zm24.4 28c.3-.4.7-.6 1.3-.4 3.5 1.6 7.2 2.8 11 3.5.3 0 .9 0 .8.6a.7.7 0 0 1-.4.5.7.7 0 0 1-.5 0h-.9l-6.5-2-2.3-1c-.6-.2-1-1.1-2-.8l-.5-.3Zm-8.8-5.9-.3-.2a22.3 22.3 0 0 1-5-4.4c-.1-.2-.3-.4 0-.6.3-.2.6 0 .7.2a21 21 0 0 0 4.7 4.3c.2 0 .4.1.3.4l-.4.3Zm8.4 5.3c-2.2-.1-3.5-1.7-5.1-3 2 .3 3.4 2 5.1 3Z" fill="#FEFEFE"/><path d="M139.3 220.2a100.9 100.9 0 0 0 13.3 7c3.4 1.6 6.5 3.7 9.8 5.4 2.5 1.4 4.7 3.4 6.5 5.7 2.1 2.5 4 5.2 3.8 8.7a49 49 0 0 1-.5 5c-.7 5-2.5 9.8-3.8 14.6l-4.1 13.4a394 394 0 0 1-4 12.8c-1.6 4.7-2.5 9.6-4.4 14.2-.8 1.8-1.1 3.8-1.7 5.7-.4 1 .7.5.8 1 1.2-.8 2.4 0 3.5 0 1.7.3 3.4 0 5.2.6.9.4 2.1-.2 3.2-.1 3.6 0 7.2.3 10.7.7.4.1.8 0 .6-.5-.4-1.5 0-3-.1-4.4-.3-2.2-.3-4.4-.5-6.6-.3-1.3-.2-2.6.2-3.9.2-.7-.4-1.6-.4-2.4 0-4.7 0-9.3-.3-13.9-.3-2-.3-4 0-6 0 0 0-.3-.2-.4-.5-1.1-.4-1.5.6-2.4-.8 0-1-.5-1-1.2.3-3-.4-6-.5-9.1-.2-2.3-.3-4.6-.2-6.9.2-2.4-.9-4.8 0-7.2-1-1-.7-2.3-.9-3.5a25 25 0 0 1-.6-3.6c0-2-.9-3.5-1.3-5.2-.4-1.9-1.2-3.7-2.2-5.4a9 9 0 0 0-3.3-3c-1.8-1-4-1.3-5.6-2.5-1.3-1-2.6-.6-4-1-2.7-1.2-5.6-2-8.5-2.7-2.4-.4-4.7-1.4-7-1.9-1-.2-1.7-1.3-3-1ZM168.8 324.2c.3-1.9.8-4.3 1-6.8.2-1.1 0-1.4-1-1.2-4 1-8.3 1.2-12.3 2.7a16.3 16.3 0 0 1-4.6 1.5c-.8 1.7-1.3 3.4-1.7 5.2 0 .2.5.6.9.8 2.7 1.5 5.6 2.6 8.6 3.2l3.2.7c.7.2 1.5.2 2.2 0 3-.8 3.8-2 3.7-6.1ZM22.4 338.6c-.2.1-.5.2-.5.5 0 .2.1.2.2.2.3 0 .5 0 .5-.4l-.2-.3ZM80.5 72.9c3.2-.6 6.6-.4 9.7.6 1 .2 1.9.6 2.8.9-.7-1.9-1.4-3.8-1.9-5.7-.1-.6-.3-1.3.2-1.6.4-.3.7.4 1 .7.8.6 1.4 1.3 2.2 1.8a6.4 6.4 0 0 0 7.5-1l.2-.7c.1-.6-.3-1.7 1-.7.3.2.4-.2.5-.4 1.6-2.4 3-5 4.2-7.6.6-2 .8-4.2.6-6.3 0-.5-.3-1-1-.8a6.5 6.5 0 0 1-5.4-1.6c-.6-.4-.9-.4-1.1.3a3.4 3.4 0 0 1-3.6 2.3c-.7 0-.5.4-.4.7.1 1.2 0 2.4-.5 3.5a9 9 0 0 1-6.9 5.2 1.5 1.5 0 0 1-1.4-1c-1.9 2.1-2.8 4.9-4.4 7.2l-3.3 4.2Zm17.4-13.4a3.6 3.6 0 0 1 2.6 2 1.1 1.1 0 0 1-.2 1 1.1 1.1 0 0 1-.9.5 3.5 3.5 0 0 1-2.8-2.7c0-1 1.3 0 1.3-.8Zm4.2 0a2.2 2.2 0 0 1-2-1.5c-.2-.5-1-1.2-.2-1.6.7-.4 1 .5 1.3 1 .3.3.4.8 1 .9.4 0 1.1-.4 1 .4 0 .6-.7.5-1.1.7Z" fill="#FEFEFE"/><path d="M88.2 61.4c.6-.3 1.4-.5 2-.5a5.9 5.9 0 0 0 5.7-5.5c0-4-2.6-7-6.6-6.8a6 6 0 0 0-5.8 4 6.1 6.1 0 0 0 1.6 6.8c.8.5 1.6 1 2.6 1.2.5.2.7.3.5.9ZM102.4 34c-.7-.2-1.1.2-1.5.5a32.2 32.2 0 0 0-8.8 12c-.4.8.3 1.4 1.1 1.8 1.6.8 1.6-.3 1.9-1.2a25 25 0 0 1 7.9-11c.4-.3 1.1-.5.9-1.3a1.1 1.1 0 0 0-1.5-.8ZM80 73.1c.2 0 .5 0 .5-.2-.3-.2-.4 0-.5.2Z" fill="#FEFEFE"/><path d="M61.3 181c-1 .1-.7.8-.5 1.2.7 2 .5 4 1.7 5.9.3.5-.3 1-.2 1.6.9 4 2.2 7.7 4 11.3.8-.6.6-1.2.2-2-.7-1.5-1.3-3-1.7-4.7 0-.3.2-1.6-1-1.2-.5.2-.3-.3-.3-.4 1-1.1 0-2-.2-3-.1-1.3-.5-2.5-.6-3.7a2.6 2.6 0 0 0-1-2.3c-.6-.3.2-1.3 0-2-.4 0-.4-.2-.3-.5h-.1v-.2ZM50.1 171.7l3.4 2c.7-.9 0-1.6-.3-2.4-.4-1-.7-2.2-.8-3.4l-.2.1c-.2 0-.1-.2 0-.3.2-1.6-.7-3-.7-4.4 0-.2-.2-.4-.4-.4a.8.8 0 0 0-.7.9l-.3 4v3.9Z" fill="#0D0D0D"/><path d="M73.2 133.9a5.3 5.3 0 0 0 2.9-9.2.8.8 0 0 0-.7 0c-.3 0 0 .4 0 .6.4.8.7 1.7.8 2.6.3 2.5-.8 4.4-3 6ZM94.7 165.2a5.7 5.7 0 0 0 4.3 4.4c.3 0 .6 0 .7-.4 0-.2-.1-.4-.4-.5l-1.3-.8a3.1 3.1 0 0 1-1.8-3.5V163c.1-.6 0-1.3-.5-1.4-.7-.1-.6.7-.7 1.2a16 16 0 0 0-.3 2.3ZM85.2 173.1c-5-.7-6.2 1.8-7.2 5.2-.2.6.5 1.4-.3 2 0 .2.2.3.3.4.4.2.4-.1.5-.3.5-1.2.8-2.4 1-3.6.4-2.4 2.2-2.5 3.8-3 .7 0 1.3-.3 2-.7ZM53.3 146.8a3.5 3.5 0 0 0 4-2.7c.2-1.6.8-3.3-.4-4.8-.3-.4-.6-1-1.1-.6-.6.3 0 .7.1 1a5.3 5.3 0 0 1-.6 5.6c-.5.6-.6 1.9-2 1.5ZM127.5 150.7a6.6 6.6 0 0 0 5.4.2c1-.5 1.9-1 2-2.4 0-.4.2-1-.4-1.1-.7-.2-.6.5-.8.8a3.1 3.1 0 0 1-1.9 1.6c-1.4.5-2.8.8-4.3 1ZM38.4 147.9c.8.9.5 2.3 1.9 2.8.3.1.1.4 0 .6-.9 1.4-1 3-2.2 4.3-.3.3-.4.5.1.7.3.2.4.4.8 0 2.3-2.7 2.5-4.9.6-7.8-.2-.4-.4-.8-1.2-.6ZM75.5 161a4.7 4.7 0 0 0-3-4 .9.9 0 0 0-.7.2c-.3.3 0 .6.2.7l1.6 1.3c1.5 1.8 1 3.8.8 5.8a3.2 3.2 0 0 0 .8-3.8c-.1-.2-.2-.4 0-.4.1 0 .3 0 .3.2ZM52.7 123.6c-2.7.9-5 2.2-5.9 5.2v1c.1.3.2.5.4.5a.4.4 0 0 0 .3 0 .4.4 0 0 0 .1-.4c.4-3 2.7-4.4 4.8-6l.3-.3ZM133.6 101.3c-.2.7.4.7.6 1 .2 0 .5.2.5.4-.1 2.6 2.2 2.4 3.6 3.1.5.3 1 0 1.6-.2.2-.1.4-.3.3-.6 0-.2-.2-.2-.4-.2a7.6 7.6 0 0 1-5.8-3.3l-.4-.2ZM122.9 109.4c1.8 0 3.7-3.5 2.8-5 0-.3-.3-.5-.5-.5-.3.1-.3.4-.4.7-.3 1.3-.4 2.8-1.8 3.5l-.4.4c-.3.2-1-.2-.9.4.1.7.8.5 1.2.5ZM90.8 84c-2.5-1.4-5.6 1-5.9 4 0 .2 0 .4.2.4a.4.4 0 0 0 .4 0l.3-.6c1-2 2.4-3.7 5-3.7ZM134.7 133.6c3.3.5 5.8-3.3 4.6-6.2a1.6 1.6 0 0 0-.7 1.2c0 .8-.2 1.5-.5 2.1-.4 1-.8 2.2-2.3 2.2-.4 0-.9 0-1 .7ZM59.9 113.6a4.7 4.7 0 0 0 6.7-.5.6.6 0 0 0 0-.8.3.3 0 0 0-.3-.1h-.1c-1.8 2-4 2.1-6.3 1.4ZM60.3 175.7a4 4 0 0 1 .2-4l2-3.4c-3.3 2.1-4.2 5.1-2.2 7.4ZM91.2 154.5c-.7-2.7-1.8-5.2 1.2-7.3-2 .7-3.4 2.4-2.9 4.1.3 1 .2 2.4 1.7 3.2ZM91.3 96c-.3 2.8.9 5.4-1 7.5 2-1 2.7-4.7 1-7.4ZM71.2 89c2.5 2.3 1.3 4.1-.7 5.9a3.1 3.1 0 0 0 3-2.5 3.3 3.3 0 0 0-2.3-3.4ZM103 183c2-.7 3.8.1 5.5 1 .3 0 .5.4.8 0 .2-.3-.2-.5-.5-.6a7.2 7.2 0 0 0-4.8-1.6c-1 .1-1.1.4-1 1.3ZM123.8 133.2c-2.3-1.8-3.9-1-4.9 2.4 1.5-1.1 2.5-3 5-2.4ZM114.7 171.5c-.5 0-1.3-.3-2.1 0-.3.2-.7.1-.6.5 0 .4.3.8.8.6a6 6 0 0 1 3.9.1c.3.2.7-.2.7-.5.1-.3-.3-.3-.5-.4a4 4 0 0 0-2.2-.3ZM133.5 114.7c-1 .1-2.1.7-2.9 1.5-.1.2-.3.5 0 .8.3.2.5.4.8 0 .7-.6 1.6-1 2.4-1.1.4-.1 1 0 1-.6-.2-.5-.7-.7-1.3-.6ZM102.6 131.1a3.1 3.1 0 0 0-.7-3.1c-.8-1-1.8-.5-2.7-.8 1.6.9 2.8 2.2 3.4 4ZM122.3 163.3c-1 1.2-.4 2.3 0 3.3 0 .2.7.1.4.7-.1.2.3.5.6.3.3-.1.2-.4 0-.6-.5-1.2-.8-2.4-1-3.7ZM84.1 116.3c.7 0 1.3.1 1.4-.4 0-.6-.6-.4-1-.6l-1.7-.5c-.5-.1-.7.2-.8.5-.1.3.2.6.4.6l1.7.4ZM81.1 113.5c-.4 0-.6.2-.5.5a.9.9 0 0 0 .6.8c.4.1.4-.4.5-.5 0-.4-.3-.7-.6-.8ZM134 157v-.2.2ZM61.4 181.2c-.1.3-.1.6.3.5.2-.4-.2-.3-.3-.5ZM162.4 181c.5-4.1-2-5.7-4.5-7.4-3.4-2.3-7.3-2.5-11-3.4l-5.4-1.2c-2.6-.8-5.1-1.4-7.7-2-1 0-2-1-2.7-.3-.5.5-.3 1.7-.4 2.7-.1 3-.4 6-.9 9-.1.7 0 1.7 1.2 1.2h.3c2.1.6 4.2-.4 6.4 0 2.3.2 4.6.3 6.9.2l11.6-.1a6.4 6.4 0 0 0-3.9-3.8c-2-.9-4-1.3-5.8-3 2.3 0 4.1 1 6.1 1.5a7.7 7.7 0 0 1 5.3 4.4c.8 1.5 2 1.4 3.2 1.4.6 0 1 0 1.3.8Zm-18.6-8.7h.4a1.8 1.8 0 0 1 1.6.5.2.2 0 0 1 0 .2.2.2 0 0 1 0 .2l-1.5-.3c-.2 0-.3 0-.4-.2l-.1-.4Zm-.8 0ZM162.4 174.6c.4 2 2 3.3 1.8 5.2-.1.9.6.7 1.2.7 2.1 0 2 .1 1.5-1.8-.1-.6-.8-1.2-.3-2-.5-.1-.1-1.1-1-.9-.5.1-1.1-.3-1.7-.5l-1.5-.7ZM161.6 174.5a.4.4 0 0 0 .4.2c.2 0 .3 0 .2-.2l-.4-.2s-.2 0-.2.2ZM129.7 72.7c.4 1.8.5 3.7.4 5.6 0 .4 0 .8-.6 1-.6 0-.7-.5-.8-.9l-.6-3.9a24.7 24.7 0 0 0-2-6.6c-.7-1-1.5-.9-2 .1a6 6 0 0 0-.6 2.8c0 .4.2.9-.4 1-.6 0-.8-.4-.9-.8 0-1-.3-1.8-.6-2.7a3 3 0 0 0-3.1-2 1.8 1.8 0 0 0-1.3 2l.6 3.4.4 3.6c.2 1 .5 2 1 3 .3 1.4.5 2.7.5 4 0 .5.1 1.3-.6 1.3-.6 0-.6-.7-.5-1.2 0-1-.7-1.9-.7-2.9 0-.6-.6-.6-1-.4-.9.3-2.2.2-2.1 1.7l.5 4.5c.5 2.9 1.2 5.8 2.2 8.6.1.6.3 1.1 1.3 1.1 5 0 10 .2 14.9.4 2 .1 2.6-.4 2.2-2.4-.7-4.5-.9-9-2.5-13.4l-2.3-6.1c-.3-.5-.6-.9-1.1-1l-.3.2Zm-6 11.7c1.7 0 5.2 3 5.5 4.8a.8.8 0 0 1-.3.8.7.7 0 0 1-.9-.1 10.3 10.3 0 0 0-4.8-4.3 1 1 0 0 1-.5-.8c0-.5.7-.2 1-.4Zm-1-11c-.2-.7 0-1.3.8-1.3 1 .1 0 .7 0 1l.2.4.9 4a.7.7 0 0 1 0 .6.7.7 0 0 1-.5.3c-.6.2-.6-.3-.7-.7a41 41 0 0 0-.7-4.3Z" fill="#FEFEFE"/><path d="M130 72.4c-.1-.1-.1-.5-.4-.3-.2.2-.1.4.1.6l.3-.3Z" fill="#FEFEFE"/><path d="M138 284.8a2.3 2.3 0 0 0 1.3-2c.7-3 2.3-5.8 3.3-8.8 1-2.8 1.9-5.5 2.5-8.4.3-1.4.9-2.8 1.3-4.2 1-3 1.7-6.2 2.2-9.3.1-1.5-2-3.7-3.7-3.9-1.1 0-1.2-.5-.6-1.2a2.3 2.3 0 0 0-.5-3c-1-.7-2-1-3.2-1.1-.2-.1-.3 0-.3.2s0 .4.3.4c1-.2 1.6.6 2.4.9a2 2 0 0 1 .6 3.2c-.4.4-.8.8-.7 1.4.2.7 1 .5 1.5.5a3.4 3.4 0 0 1 3.1 4c-.3 2.6-1.2 5-1.7 7.5-.4 2.3-1.4 4.5-2 6.8-.7 2.3-1.7 4.6-2.5 6.9a7.2 7.2 0 0 0-.9 3.6c-1.7 1.3-1.4 3.5-2.2 5.2l-.2 1.4ZM111.9 236.2c1.8.7 3.7 1.3 5.6 1.6 2.6.6 5 1.7 7.7 2.2 2.1.4 4.1 1.3 6.4 1.5 1.6.3 3.1.7 4.6 1.2.4 0 .8.2 1.1.3.3 0 .5 0 .6-.3 0-.3-.1-.5-.4-.5-1.8-.2-3.6-1.5-5.1-1.2-1.5.2-2.2-.7-3.3-1-1.7-.4-3.4-1.1-5.2-1.5-1.2-.2-2.3-.9-3.5-1.1l-6.6-1.8c-.9-.3-1.3.2-2 .6ZM66.7 202.3l.5.8c1.2 2 2.4 4 3.4 6l3.2 6 2.1 3c.2.2.4.7.8.3.3-.2.2-.6 0-.8-1.6-1-1.8-3.1-3.3-4.3-.4-.3-.4-1.1-.7-1.7l-4.8-9.7c-.2-.3-.3-.5-.6-.4-.3.2-.4.5-.6.8ZM91 230.4l.6.3c1-.3 1.4.5 2 .8l2.3 1 6.5 1.9a5.3 5.3 0 0 0 1.1.1.7.7 0 0 0 .5-.3l.2-.2c0-.6-.5-.6-.7-.6-3.9-.7-7.6-1.9-11.1-3.5-.6-.2-1 0-1.3.5Z" fill="#0D0D0D"/><path d="M111.9 236.2c-.2-1-1-1.4-2-1-.6.2-.8.2-1.3-.3-.8-1-2.2-.5-3.3-1.2 0 .7-.2 1.2.5 1.3 2 .6 4 1 6 1.2ZM82.3 224.4c.2 0 .3-.2.4-.3.1-.3-.1-.3-.3-.4a21 21 0 0 1-4.7-4.3c-.1-.3-.4-.4-.7-.2-.3.2-.1.4 0 .6 1.4 1.7 3.1 3.2 5 4.4l.3.2ZM90.7 229.7c-1.7-1-3-2.7-5.1-3 1.6 1.3 3 2.9 5.1 3ZM98 59.5c-.1.8-1.4-.2-1.4.8a3.5 3.5 0 0 0 2.8 2.7 1.1 1.1 0 0 0 1.1-1.4 3.6 3.6 0 0 0-2.6-2ZM102 59.4c.5-.2 1.3-.1 1.3-.7 0-.8-.7-.4-1-.4-.7 0-.8-.6-1-1-.4-.4-.7-1.3-1.4-1-.7.5 0 1.2.2 1.7a2.2 2.2 0 0 0 2 1.4Z" fill="#0D0D0D"/><path d="M52.2 167.7c-.1.1-.2.2 0 .3l.2-.1-.2-.2ZM75.5 161l-.2-.2c-.3 0-.2.2 0 .4l.2-.2Z" fill="#343434"/><path d="M143.8 172.3a.6.6 0 0 0 .5.6 14 14 0 0 0 1.5.2v-.2a1.8 1.8 0 0 0-1.6-.6h-.4ZM143 172.3ZM123.6 84.4c-.2.2-.8-.1-.9.4a1 1 0 0 0 .5.8c2 .9 3.7 2.4 4.8 4.3a.7.7 0 0 0 1 .1.8.8 0 0 0 .2-.8c-.3-1.8-3.8-4.9-5.6-4.8ZM122.7 73.4l.7 4.3c.1.4.1.9.7.7a.7.7 0 0 0 .5-.9l-1-4V73c0-.3.8-.9-.1-1-.7 0-1 .6-.8 1.3Z" fill="#0D0D0D"/><path d="M640.8 138.3c-.4 0-.4-.3-.5-.5-.2-4.6-1-9-1.5-13.6-.6-4.3-1.4-8.6-1.8-12.9-.3-2.7-.9-5.4-1.1-8.2-.3-3.4-1-6.8-1.5-10.2l-1.5-11-1.7-12c-.4-3.9-1.3-7.7-1.4-11.5a3 3 0 0 0-.3-1.1c-.2-.5.1-1.5-1-1.3-.9.1-.4 1-.4 1.6 0 1 .5 2 .2 3.1a4.4 4.4 0 0 0-6 2c-.2.8-.2 1.8 0 2.7l1.9 14 1 8.3c.7 4.3 1 8.6 1.9 13 .5 2.8.6 5.8 1 8.7.6 5.3 1.4 10.6 2.2 16 .3 2.6.6 5.2 1.2 7.8.5 2.4 3.4 3.2 5.7 1.8l1-.7c.6 2 .8 4 .6 5.9-.2 2-.1 4.2-.5 6.2-.5 2.6-.5 5.2-.9 7.7l-1 10.5-1.5 13.8c-.4 4.6-1 9.2-1.3 13.9l-.8 9.2c0 2.4-.4 4.8-.7 7.2-.3 2.3-.6 4.7-.7 7l-1.4 13.7-.9 11.1c0 1-.3 1.4-1.4 1.5-4.2.4-8.3.5-12.4.8l-13 1-8.8.8-7.5.6-7.7.8-7.6.4c-3.1 0-6.2.7-9.2.8-3.1.1-6.2.5-9.3.7l-6.1.4c-.5 0-.5 0-.6-.5a742 742 0 0 0-1.2-9.6l-1.8-13-1.3-10.4-1.4-10.5a298.8 298.8 0 0 0-2.5-18.1c-.2-.8.5-.7 1-.7h6l8.5-.3c.6 0 .7-.4.6-.9a25 25 0 0 1 .2-5.5c.2-.9-.5-.7-1-.7h-28.7c-4.4.1-8.7.2-13.1 0-5.4 0-10.7.3-16.1.1-4.6-.1-9.1.1-13.7.1-4.7 0-9.4.2-14 .1-5-.1-10 .2-15 .1h-14.8c-1.9 0-3.8 0-5.6.2-.7 0-.8 0-.7-.8 1-4.5 1.5-9 1.7-13.6.1-1.2.2-1.8-1.5-1.5-2.3 0-4.5 0-6.8-.3-5-.2-10-.3-14.9-.7-3-.3-6.1-.2-9.2-.4-2.5-.1-5.1-.1-7.7-.4-4.3-.4-8.7-1-13-2-1.2-.4-2.7-.3-4-.7l-4.2-1.3a72 72 0 0 1-10-3.7 19 19 0 0 1-5.9-4c-.6-.7-1.2-.6-1.7.2-2.7 4-6.3 7.1-10.5 9.3a1.6 1.6 0 0 0-1 1.3c-.5 4.1-.8 8.2-1.6 12.3-.4 1.8-.3 3.7-.7 5.5-.2 1.2-.7 1.6-1.8 1.6h-13.5l-5 .1c-.7 0-1.1 0-1-1 .3-1.5.4-3.1.6-4.7.1-1 0-1.9-1.4-1.6a1.8 1.8 0 0 1-2-1.2l-9-16.8-3.8-6.7c0-.1-.5-.2 0-.5 1.2-.7.3-1.5-.1-2.2-1.6-2.2-3-4.6-4.4-7a31 31 0 0 0-3-4.7c-1.7-2.2-2-4.6-2.4-7.2-.8-5.3-1.3-10.6-2.1-15.8-.7-4.6-1.5-9.2-1.9-13.9-.1-1.7-.8-3.4-.8-5.1-.1-2.6-.8-5-1.1-7.6l-1.5-10.7c-.5-3.8-1-7.6-1.7-11.3-.1-.7.2-1 .6-1a5 5 0 0 0 3.8-3.8c.4-1.6 1.4-3 2.9-3.7l13.2-8.4 14-9.1c4-2.7 8.2-5.2 12.3-7.8l15.8-10c2.7-1.6 5.4-3.5 8-5.3.7-.5 1.4-1 2.1 0h.3c2.8.1 3 2.4 3.6 4.3l3.8 11.6a1.3 1.3 0 0 0 1.8.8l2.9-.8c.4-.1.7-.2 1 .4.7 1.3.3 3 1.8 4a3.8 3.8 0 0 0 .4 3.3c.8 1.7.8 3.6 1.5 5.2.2.5 0 .7-.3 1-2.4 2.2-5.6 2.7-8.3 4a1 1 0 0 0-.6.4c-.4 1-1.2 1.2-2.2 1.3a2.4 2.4 0 0 0-2.1 1.6c-.4 1.2.3 2 .8 3a.9.9 0 0 0 .8.3c2.4-.9 4.9.2 7.3 0a12.6 12.6 0 0 0 3.7-.2h.2c1.7 1.4 3.5.6 5.1 0 2-.5 4-.3 5.9-.6.5 0 1.5 1 2.4 1 4.3 0 8.7.6 13-.3a5.4 5.4 0 0 0 4.2-4.1c1.3-4.5-.2-8-3-11.4a1.5 1.5 0 0 0-1.3-.6c-4.5.5-9 1.4-13.3 2.7-1.5.5-2.9 1.6-4.6 1.8a4 4 0 0 1-4.8-3 145.5 145.5 0 0 0-4.6-13.9c-.5-1-.4-2.6-.9-4l-.3-.7c-.2-.7-.5-1.5-1.2-1.4a1.8 1.8 0 0 0-1.7 1.7c-.1 1 0 2 .5 3 .2.7.3 1.3-.5 1.5-.9.4-.7-.5-.9-.9-1.2-3.4-2.1-6.9-3.7-10.2-.6-1.3.7-1.7 1.2-2.1 3-2.5 2.7-7.3-.6-9a6.6 6.6 0 0 0-9 3.4c-.5.7-.6 1.5-.5 2.2.2.8-.4 1-.8 1.2L341 17c-3.7 2.3-7.5 4.5-11.1 7-5 3.2-10.3 6.2-15.2 9.6a60.7 60.7 0 0 1-5.7 3.7c-2.8 1.5-5.4 3.4-8.1 5-2.5 1.4-4.8 3-7.2 4.6l-5 3.2a1 1 0 0 1-1.2 0c-4.7-3.2-10 .1-11 4.8a4.9 4.9 0 0 0 1.7 5 2.7 2.7 0 0 1 1 2.3c.6 5.7 1.6 11.3 2.3 17a373 373 0 0 0 2.2 15.5l1.1 7.6c.7 3.7 1 7.5 1.6 11.3l2 14.1c.3 1.8.4 3.6.3 5.4 0 1.3-1.2 2.6-1.9 3.9a1176.2 1176.2 0 0 1-4.6 8.7l.2.4c1.2.6.4 1.4.2 1.9-2 4.3-4.1 8.6-6 13a120 120 0 0 1-5 10.4c-.4.7-.6 1.4-1.4 1.8-.3.1-.2.3-.1.6.6 1.6-.2 3.3-.2 5 0 1-.5 1.3-1.4 1.2H255.9c-1 .1-1.3-.3-1.2-1.2.3-1 .4-2.1.3-3.2 0-.5-.2-1.2-.8-1.1-1 .1-1-.7-1.2-1.2-1.7-4.8-3.3-9.5-5.2-14.2l-1.6-4c-.1-.2-.3-.5-.2-.7 1.1-1.6-.3-2.7-.9-3.9-2-3.7-4.2-7.3-6.6-10.7-1.6-2.5-1.8-5.5-2.5-8.2l-1.6-7.6c-1-4.4-1.7-8.7-2.8-13-1.4-5.5-2.4-11-3.7-16.4l-3.6-16-1.6-6.7c-.2-.7-.1-1.5.2-2.2a5.9 5.9 0 0 0-3-7.7c-1.2-.5-2.4-1.9-3.6-1-2 1.3-3.6 0-5.3-.5-4.6-1.4-9-3-13.6-4.2-2.6-.6-5.1-1.7-7.7-2.4L179 50.5c-4.3-1.3-8.5-2.8-12.8-4l-10.2-3c-3.6-1-7.2-2.3-10.8-3.5a512 512 0 0 0-11.3-3.4c-.6-.2-.4-.5-.5-.8-.3-2-3.6-4.1-5.3-3.9a4.6 4.6 0 0 0-4 5.5 6.1 6.1 0 0 0 3 4.6c.8.6.3 1.6.5 2.3.5 3.4 1 6.8 1.3 10.3.1.9.7 2.1-1 2.4-1 .2-1.2-.1-1.3-.8l-.8-5.6a2.4 2.4 0 0 0-1.8-2.2 2 2 0 0 0-2.5 2.3c.5 4 .7 8.1 1.5 12.2.4 2.6.5 5.2.7 7.8 0 1.1-.4 1.4-1.5 1-1.6-.4-3.1-.7-4.7-.8a16 16 0 0 1-3.4-1.5c-3-1.3-6-2.3-9.2-3a6.8 6.8 0 0 0-5.8 2.2c-2.9 2.7-2.7 6-2.2 9.3a5.8 5.8 0 0 0 2.8 3.8c2.5 1.5 5 1.5 7.8 1.7 1.7 0 3.4.4 5.1.7a4 4 0 0 0 3-.5c1.5-1 3.2-.2 4.8-.5 2.6-.4 5.2.6 7.8.6.9 0 1.5 0 1.9-1 .3-.7 1.1-.5 1.6-.3 3.1.7 6.3.2 9.4.7a1.6 1.6 0 0 0 2-1.5c0-.9.5-1.6.6-2.5a1.7 1.7 0 0 0-1.7-2h-1.6c-.9-.3-1.9 0-2.4-1.3-.3-.8-1.6-1-2.6-1-1.2-.2-2.3-.6-3.5-.7-.8 0-1.5-.8-2.1-1.2-1.8-1-1.3-2.5-1.5-3.9l-1-8.3 3.3-.3a2.8 2.8 0 0 0 2.3-3.2c-.1-2.4-.4-4.8-.8-7.2-.6-2.2-.6-4.5-1.4-6.7-.2-.7 0-.9.5-1.4 1.8-2.2 3.7-.6 5.5 0 4.4 1.2 8.7 2.5 13 3.9l13.8 4.4c3 1 5.8 2 8.9 2.7 2.4.6 4.8 1.5 7.2 2.3l16 5c2.6.9 5.3 1.4 7.8 2.3l7.2 2.3c.6.2 1.2.6 2 0a6.6 6.6 0 0 0 2.8 6.4c.2 0 .3.3.4.3 1.8.2 2 1.6 2.3 3 1 3.4 1.9 6.9 2.5 10.4.7 3.7 1.7 7.3 2.3 11 .3 2.3.8 4.5 1.5 6.8 1 2.8 1 5.8 1.9 8.7l2.2 9.6a2135.3 2135.3 0 0 1 3.3 14.7c.1.5.3.8 0 1.3-3.5 4.6-5.9 9.9-9 14.7a1.4 1.4 0 0 0-.2 1.6 1.2 1.2 0 0 1 0 1.2c-2.3 5.4-4.3 10.9-6.3 16.4l-1.2 3c-.2 1-.9.8-1.5.7-.8 0-1.3 0-1.5 1.2 0 1.3 0 2.7-.3 4-.2.4-.1.6-.7.6l-17 .1c-8.8 0-17.6 0-26.4.2H156l-19 .2-7.2.2h-8.2c-.5 0-.9-.2-1.1.4l-.1.2c-2-1.4-4.3-.4-6.5-.5a60 60 0 0 0-9.2.3c-1.6 0-3-.1-4.6-.3-3 0-5.9-.3-8.8-.4-.8 0-1.6.4-2.6 0-1-.6-1.8.3-1.8 1.4v2.8c0 .6 0 1.3-1 1.1-.8 0-1 .4-.5 1.1a2.6 2.6 0 0 0 2.2 1.3l12-.2.2-.1v.3L97 202.7c-1 6-2.5 12-3.6 18-1.1 6.8-2.5 13.4-3.8 20l-4 20c-1.5 7.7-3.2 15.3-4.5 23-.8 4.9-2 9.8-2.9 14.7-.8 4.8-2 9.6-2.8 14.3-.6 3.7-1.2 7.4-2 11-1.1 4.6-2 9.2-2.9 13.9L67.6 352c-.7 4-1.4 7.9-2.3 11.8-.8 3.4-1.4 7-2 10.4l-.4 2.3c-.1.5 0 1 .5 1.1.8.2 1-.4 1-.8l1.4-6.6c1-4 1.6-8.2 2.4-12.2 1.3-7 2.8-13.8 4-20.6l2.3-11.9 1.8-9c1-4.6 1.7-9.3 2.7-13.8L81 292a239 239 0 0 0 1.7-8.6l2.9-14.3c.6-3.3 1.1-6.7 1.8-10 1.2-5.5 2-11 3.3-16.4.5-2 .6-4.2 1-6.2l1.7-8.4c1.2-6.2 2.6-12.4 3.6-18.6l2.4-12.7 1.4-7.3c.1-.8.5-1.2 1.5-1.2h7.6c3.5-.2 6.9 0 10.3-.1l9.8-.2 10.5-.2h24.2c.6 0 1.3.2 1.6-.6.2-.4.4-.2.6 0 .5.8 1.4.5 2.1.5h11.3l27.6-.2h22l30.5-.2 29.7-.3h25l11.8-.1h10.7a15888.8 15888.8 0 0 0 31-.3c3 0 6.3-.4 9.4-.2 3.4.3 6.7-.3 10.1 0h15.4l11.7-.2h7.4c2.1.1 4.3 0 6.4 0l10.3-.2c3.4 0 6.8-.2 10.2 0 4.1.3 8.2.2 12.3 0 4.4 0 8.9.1 13.4-.2l4.9.1h13.5l7.9-.2H516c6 0 12.1 0 18.2-.3 1.4 0 1.8.3 2 1.8.3 2.6.5 5 1 7.6.6 2.7.6 5.5 1 8.3l1.4 10 1.5 11.4c.4 4 1 7.9 1.5 11.9l1.6 12c-3.2.4-6.2.7-9.3.8-3.4.2-6.9.7-10.3 1-1.5.2-3.1 0-4.6.2-2 .3-4 0-5.8 1.4a4 4 0 0 0-2 4c.2 1.9.9 3.5 3 4.1l2.8.7a1.7 1.7 0 0 0 1.6-.3c1-.8 2.2-.3 3.3-.5 2-.3 4.2-.3 6.4-.5.6 0 .8.1.7.8 0 2.4 0 4.8-.2 7.2v5c0 4.4-.3 8.7-.3 13 0 4.3.1 8.6-.1 13-.3 5.2 0 10.4-.4 15.7-.2 4.2-.2 8.4-.3 12.7v7.6l-.2 4.8c0 2.5-.3 5-.1 7.4.2 2.4-.2 4.8-.1 7.2l-.2 10.8-.1 6.6c0 .8 0 1.6.2 2.4 0 .6.3 1 1 .8a.9.9 0 0 0 .5-.3.9.9 0 0 0 .2-.7c-.1-2.9.2-5.8.2-8.6V354l.4-15c.3-4.3.2-8.7.3-13 0-4.6.1-9.1 0-13.7l.3-11.5.3-15.9.3-14c0-3.5.2-7.2 0-10.8 0-.7 0-.9.9-1 2.7-.3 5.5-.2 8.2-.6l3.7-.4c.8 0 1 0 1.1.9.7 5 1.5 10.2 2 15.3l1.1 8.6c.7 4.9 1.2 9.8 2 14.6.4 3 .6 6 1.1 9 .5 2.8.5 5.5 1 8.2l1.2 8.4c.6 5.1 1.2 10.2 2 15.3.7 5 1 10 2 15l.3 2.3c.2.7-.4.6-.8.6l-10.8 1-9.8 1.1c-.6.1-1.3.2-1 1 .5 1-.1 1-.7 1.2a1.2 1.2 0 0 0-1 1.2c0 .6.6.8 1.1 1 .5 0 1 0 1.3.2.3.2 1.7-.2.8 1.2-.6 1 .7 1.6 1.5 2 .6.4.8.3.7 1.3-.2 1.6-.7 1.8-2 2-.5.1-.5.8 0 1.3a.9.9 0 0 0 .7.2 4.7 4.7 0 0 1 4.3 1c.3.2.6.3.9.2.2 0 .4-.3.6-.5v.3a.9.9 0 0 1 .2 1l-.3.3c-.3.3-.4-.2-.7-.3-.8-.5-1.8-.1-2.7 0-.2 0-.3.2-.2.4.1.3.5.3.7.3h7.6c3.2 0 6.4-.6 9.6-.2 1.5 0 2.9 0 4.3-.2l9.1-.4c3 0 5.8-.4 8.8-.4h5c2.8-.2 5.7-.2 8.6-.3 3.6-.2 7.2 0 10.7-.4 3.1-.3 6.2-.1 9.2-.4 3.1-.3 6.3-.2 9.4-.4 3.8-.2 7.7 0 11.5-.4 1.7-.2 3.5.2 5.2-.5.4-.2 1 0 1.1-.7.1-.7-.4-.9-.8-1.1-2-1.4-4.2-2.3-6.5-2.7l-2.5-.6c-.5 0-.4-.4-.4-.6l-1-5.7-1.5-10.2c-.4-3-.8-6.2-1.4-9.2-.6-4-1-8-1.7-11.9-.8-5-1.7-10.2-2.2-15.3-.5-4.4-1.3-8.8-2-13.1l-2-13-2.3-15.5a321.9 321.9 0 0 0-2.5-17.2c-.2-.7.4-.5.7-.4 4.1 0 8.1-1 12.2-.7 1.8.1 3.7-2.7 3.7-4.6 0-1.9-.6-3.6-.8-5.5 0-1.1 0-2.3.4-3.5.6-5.3 1-10.6 1.7-15.9.5-4.4.7-8.9 1.2-13.3.4-3 .5-6 .9-8.9.7-5.3.9-10.6 1.6-15.9.5-4 .8-8.2 1.1-12.3.2-3.2.8-6.4 1.1-9.6l.7-6.5.9-9.5.6-6.7c0-.4-.1-1 .4-1.2v-.5ZM402.6 48c-.3 0-.2-.3 0-.4h.1l-.1.4c0 .7-.7 1.1-.8 1.8 0 .3-.4.2-.6.1-.2 0-.4-.2-.2-.4.6-.4.7-1.4 1.6-1.5ZM98.6 73c.9-.4 1.4.2 2 .6 1 .5.7 1 0 1.5a1.7 1.7 0 0 1-1.9.2c-.6-.3-.2-1-.3-1.5 0-.3.2-.6.3-.8l-.1-.2h.1v.2Zm13.2 9.1c-.9.5-1.8.1-2.8.2 1.3-1.7 1.5-1.7 2.6-.3l.2.1c0-.3.3-.6.1-1-.5-.8-.2-1.5.7-2 .3-.1.5-.6 1-.7 1.2 2.2 1 1.8-1 3.3l-.8.4Zm250.4-69.4h.3c0 .2 0 .2-.1 0h-.2c0 .6.2 1.1.4 1.7 1 3.2 2.3 6.3 3.2 9.6 0 .8.4 1.5 1 2 .7.5 1.2-.2 1.8-.3.6-.2.7.2.8.5.2.4 0 .6-.4.7l-2 .5c-1 .3-1.3 0-1.5-1-1.2-4-2.8-7.8-4.3-11.8-.4-1.2-.3-1.8 1-1.9ZM337 21.7c0-.4.5-.6.7-.8l7.6-4.9 8.9-5.7c.3-.2.7-.8 1 0 .4.5-.3.5-.5.7-5 2.8-9.6 6-14.4 9-1 .6-2 1.6-3.3 1.7 0 .4-.3.5-.6.7l-8 5.3a3417.8 3417.8 0 0 1-39.2 25c0-.4-.6-.8 0-1.2 1.1-.7 2.2-1.6 3.3-2.2 6-3.5 11.8-7.4 17.7-11 3.7-2.2 7.2-4.6 10.8-7l11.3-7c1.5-.9 2.8-2.3 4.7-2.6Zm46.7 29.5c-1.3-.2-2.7-.1-4 .2a1.5 1.5 0 0 1-2-1.2c-.8-2.2-.7-4.5.1-6.6.2-.4.2-.6.7-.7 1.7-.1 3.3-.4 5-1a10.7 10.7 0 0 0 .6 9v.4c-.1.2-.3 0-.4-.1ZM576 361.5a1.7 1.7 0 0 1 .6-1.3 3.4 3.4 0 0 0 1-3c-.2-1.1-1.4-1.2-2.4-1.2l-1-.2-13 .3c-1.3 0-1.5-.6-1.6-1.6l-.6-4.8c-.4-1.6 0-3.5-1.1-5 .6-2.4-.3-4.7-.5-7-.3-3.7-1-7.3-1.5-11l-1.9-15c-.3-2.5-.8-5-1-7.6-.5-4.7-1.4-9.3-1.9-14l-1-7.5c-.3-2.7-.9-5.4-1-8.1-.3-2.9-.9-5.6-1.1-8.5a40 40 0 0 0-1-7.1c-.4-1.3.1-1 .7-1 4.5-.3 9-.4 13.4-.9l12.7-1L590 255l14.3-1.1 7.8-.5c.3 0 .5-.2.5.3.4 4 1.2 7.8 1.7 11.7.4 3.3 1.2 6.6 1.4 10 .2 3 1 6.1 1.4 9.3l2.2 14.8c.6 4 1 8 1.9 12 .8 4 .7 8.2 1.7 12.2.7 3 1.1 6 1.4 9l2 13.1c.8 6 1.6 12.1 2.7 18.1 0 .6.1 1-.7.9-4.2-.8-8.6-1.1-12.8-1.5-4.6-.5-9.2-1-13.9-1.2l-4.9-.2c-3.5-.2-7-.2-10.6-.2H576Zm-299-189c.4-.6.8-1.2 1.1-2 .2-.8.5-1.7.9-2.5 1.3-1.3 1.4-3 2.2-4.4 1.2-2.3 2.2-4.7 3-7 1.3-3 2.9-5.7 3.9-8.7a1.6 1.6 0 0 1 2-1.2c1.9.2 3.8.3 5.8.2 1 0 2.2-.1 2.5 1.2l1 2.2c3.7 7.4 7.3 14.7 11.2 22l-33.6.2Zm-29.3 1.9h-5.5l-21 .2c-.8 0-.9-.2-.6-.9 2.5-6.2 4.4-12.6 6.6-19 .3-.8.5-1 1.4-1l10.4.4c.5 0 .5.3.5.4 1.3 3.4 2.5 6.8 4 10s2.5 6.6 4.2 9.9Zm183-6.6c0 1.8 0 1.8-1.7 1.8-1 0-1.9-.2-2.8-.1-6.5.4-13 .1-19.5.4-4.6.2-9.1 0-13.7.3-3.8.2-7.6.1-11.4.2l-14.7.2c-3.8 0-7.5.4-11.3.3-4.1-.2-8.3.4-12.4.2-1 0-1-.3-.9-1l.5-4c0-.9.3-1.5 1.4-1.3l3.8.1 14.5.5 14.6.6c5.6.2 11.2.6 16.8.6 1.3 0 3 1.4 4-.6l.3.2c1 1.2 2.6.6 3.9.8 2 .2 3.8.2 5.8.2 2.6 0 5.2.3 7.7.4l10.3.3c1.6 0 3.1.6 4.7-.1Zm-157 12H272c-.3 0-.8 0-.7-.3.5-1.7.2-3.4.6-5 0-.5.3-.5.7-.5 3 .2 6 0 9 0h4.5l7.5-.2h8c2.3.2 4.7-.4 7-.2 2.9.2 5.8.2 8.6 0 .6-.1.7 0 .7.5l-.5 4.9c0 .2 0 .7-.4.6-1.5-.4-2.9.9-4.3.1h-1.2c-4.8 0-9.7.2-14.5 0-7.7 0-15.4.3-23.1.2ZM431 167.5a1.8 1.8 0 0 0-1.5-.5c-4.5-.2-9-.6-13.5-.6-4.3 0-8.5-.2-12.7-.5-5.1-.3-10.2-.1-15.3-.6-3.5-.3-7.1-.2-10.6-.3l-10.8-.5c-2.8 0-5.6 0-8.4-.3l-7.1-.4h-6.6c-.7 0-1.3-.3-1.1-1.2.2-.8-.4-2 .9-2h5.3c3.7.3 7.5.5 11.2.6l10.9.4 14 .7c3.6.2 7.1.1 10.6.4 4.1.3 8.3.4 12.4.6 6.4.2 12.8.6 19.2.7 1 0 2.6-.4 3.2.4.5.7 0 2 0 3.1Zm-10.3 7.7c.6.5 1 1.1 1.7 1 2 0 4.1.4 6 .1 2.4-.3.6 1.3 1 1.8s-.6.9-1.2.8h-5.6c-5.3 0-10.5 0-15.8-.2-2.7-.1-5.4 0-8-.3-5.7-.4-11.4-.2-17-.7-3.4-.2-6.8.2-10.1-.1-5.3-.6-10.6-.3-15.9-.7-4.4-.3-8.8-.3-13.1-.4-.6 0-1.2 0-1-.8 0-.5-.2-1.2 1-1.1l21.7.5 8.8.1 11.4.3 5.7.1c3.5.3 7 .2 10.4.3 6.2.3 12.4.2 18.6.3.7 0 1.5.3 1.4-1Zm9.1 0c-3.4-.4-6.9 0-10.3-.4-2.2-.2-4.5-.1-6.7-.2-4.2-.2-8.5-.1-12.8-.3-4.3 0-8.7 0-13.1-.2h-6.6c-3.3-.3-6.6-.3-9.8-.2-.5 0-1.2.4-1.5.2-1.3-.9-2.7-.3-4-.4-6-.3-12-.2-18-.4-1.7 0-3.3 0-5-.2.2-.7.6-.6 1-.6 4.4 0 8.9 0 13.3-.2 7.1-.3 14.3-.2 21.5-.5 5-.2 10 0 15-.2 1.3 0 2.8-.6 3.9-.4 3.6.8 7.2 0 10.8.1 2.7.2 5.4 0 8.1-.4 2.4-.4 5 .3 7.6 0a47 47 0 0 1 6.4 0c.8 0 1 .2.8 1-.3 1-.4 2.1-.6 3.2Zm-179.4.7v-.2h1.2c2 0 2 0 1.8 2 0 .7.3 1.7-.3 2.3-.6.7-1.5 0-2.3.1-3.3.2-6.6.3-9.8.1h-5.4l-8.2.2-12 .2c-2.2 0-2.2 0-2.2-2.2V177c-.1-.8.2-1 1-1h8l13-.2h15.2ZM233.1 135c0-2.1-.8-3.9-1.1-5.7-1-5-2.3-10-3.3-15.1l-3-13.7c-.2-.7-.9-1.4-.7-1.9a9 9 0 0 0-.7-4.2 715 715 0 0 1-4.8-21.5c-.3-1.3 1-.9 1.5-1.2.6-.4.6.4.7.8l1 5.1a2570 2570 0 0 0 7.3 32.4l5.2 22.6c.3 1.3.5 2.1-1.3 2l-.8.4Zm57-4.5a16 16 0 0 1-.6-4.3c-.2-1.3-.5-2.6-.6-4l-1.1-9c-.4-3-1-6-1.3-9C285.8 98 285 92 284 86l-1.7-12c-.5-3.8-1.2-7.6-1.4-11.5 0-.4-.8-1.1.4-1.2.8 0 1.2 0 1.3 1 .5 4.4 1.1 8.8 1.8 13.1.5 3 1 5.8 1.3 8.7l1.3 9.5 2 14.2c.9 5.7 1.6 11.4 2.6 17.1.1 1 .7 2.3.3 2.9-.7.8-1 1.8-1.7 2.8Zm90.3 30-35.3-1.4c3.9-2.2 7.2-5.1 9.8-8.7 2.1 2.1 4.7 3.8 7.6 4.8 5.8 2.2 11.8 4 17.9 5.3ZM212.6 64.3a2 2 0 0 0-1.2-.8L200.5 60 187.4 56l-8.3-2.5-9.7-3-10.4-3.3-11.4-3.5-13.5-4.4c-.2 0-.7 0-.5-.5.2-.3.2-.5.7-.5 1.2.2 2.4.6 3.5 1.2l9.8 2.9c3.4 1 6.9 2 10.3 3.2 3.5 1 7 2 10.3 3.1 2.7 1 5.5 1.8 8.2 2.6 3 1 6 2 9 2.8 4.4 1.2 8.7 2.8 13.1 4.1 5 1.5 10 3 14.8 4.7l-.7 1.4Zm74.4 82.4c-.5 1.5-1.1 3-1.8 4.4l-4.7 10.4c-1.4 3.3-3 6.5-4.2 9.9-.2.4-.3 1.3-.9 1.2-1-.2-2 .5-3 .1l1-1.6c.9-2.4 2-4.7 3.2-7l7-15.2c1-2.4 1-2.4 3.4-2.2Zm27.9 25.5h-2.8c-.2-.1-.4.1-.5-.3 0-1.1-1-2-1.4-3-1.8-4.4-4.2-8.6-6.4-13a46.6 46.6 0 0 0-4.2-8c-.3-.2-.6-.8 0-.8 1 0 2.1-.4 2.8 1 2.8 6.4 6.4 12.4 9.6 18.6l2.9 5.5Zm-62.8 2.4c-1.2-.1-2.4.4-2.9-.7-2.3-6-4.8-11.7-7.4-17.5l-1-2.3h2.7a1.2 1.2 0 0 1 1.4 1c1.5 4.3 3 8.6 4.7 12.9l2.5 6.6Zm-34.2 0c-1.5.3-1.6-.3-1-1.6a437.2 437.2 0 0 0 6.8-18.7c.5-1.2 1.4-.6 2-.6.8 0 .5.8.4 1.2l-2.3 6.2c-1.6 4-3 8.3-4.4 12.5-.3.8-.6 1.3-1.5 1ZM117.7 81.9c1.5-2.1 2.3-5.7.8-8-.2-.3-.5-.6-.2-1.1.3-.6.8-.3 1.1-.3l3.5.4c1 0 1 .3 1.2 1 .6 2 .8 4 .6 6a2 2 0 0 1-2 2.1h-5Zm12.8-4.8c-.2-2.1-.2-2.1 2-1.8l3.3.8c1.7.4 2 .8 2 2.6l-.2 1.3c-.1 1.3-.8 1.6-2 1.5-1.4-.2-3-.3-4.4-.2-1 0-1-.5-1-1 0-1.1.2-2.2.3-3.2Zm243.4 101.5a1.2 1.2 0 0 1-1.5.7c-2-.2-3.9-.2-5.8-.2-3.2.1-6.5 0-9.7.2l-8.6.1h-6.7c-.6 0-.6-.1-.4-.6 0-.4-.3-1.2.5-1h2.6a1375.9 1375.9 0 0 0 24.6.9h5ZM123.2 51.8v-.5c-.1-.6-.3-1.2.4-1.3.7-.1.8.5.8 1.2l.4 3.3c.8 4 1 8.1 2 12.2l.4 4c.1 1.4-.2 1.5-1.5 1.2-1-.3-.6-1.1-.7-1.7l-.4-6.3c-.5-4-.6-8-1.4-12Zm248.2-6.4c.1 1.7-.4 3.6.8 5.1.2.3.5 1.6-.8 1.5l-4.5-.4c-1.5-.2-1.4-1.6-1.7-2.6-.2-1 .3-1.5 1.2-1.8 1.6-.7 3.3-1.3 5-1.8ZM377 42c-.8 1.6-1.2 3.3-1.3 5 0 1.7.4 3.4 1.3 4.8-3 .8-3.7.6-4.2-2-1-5.3-.7-6.7 4.2-7.8ZM369.6 19c.4 2 1.2 3.7 1.7 5.5 1.3 5 3.1 10 4.7 14.9.6 1.7.7 1.7-1 2.3-.8-2.5-1.4-5-2-7.4-1.1-4.1-2.5-8.2-3.7-12.3a3.4 3.4 0 0 1 .3-3ZM124.8 72.8c1-.3 1.8.4 2.8.5.8 0 1.2.5 1.3 1.4 0 2.1 0 4.2-.3 6.3 0 .5.4 1.1-.4 1.5a2.5 2.5 0 0 1-2.2-.4c-.4-.2 0-.9.2-1.3l.1-1.1a12 12 0 0 0-1.5-7Zm4.6-13.5-1.9-.1c-.3 0-.6-.2-.6-.5s.4-.4.7-.4c2.2 0 3-.7 2.8-2.8-.4-4-1-8.2-2-12.2 0-.3-.6-.7.1-.8.5-.1 1-.2 1.2.6.4 4.5 1.5 8.9 1.9 13.4.2 2.5.2 2.6-2.2 2.8Zm-28 17.6c-1.8-.7-.6-1.2-.2-1.6.3-.3 1-1 1.4-.4.4.6 1.4 1 1.2 1.7a1.3 1.3 0 0 1-1.8.8h-.7c-1.5 0 .5.9-.3 1.3-.4.3.3.4.4.3 1.4-.6 1.4 1 2.2 1.4.1 0 .3.4 0 .6-.6.5-1.3.1-2 0s-1.5-.4-1.2-1.4c0-.2 0-.3-.3-.4-1.3-1-1.3-1-1.3-2.5a3 3 0 0 0 2.6.2Zm288.9-37.3c1 0 1.2.4.8 1.2-.9 1.6-2 3-3 4.5-.2.2-.2.5-.5.4A4.6 4.6 0 0 1 386 44a2.3 2.3 0 0 1 2-1.2h.5c.2-.2.1-.3 0-.5-.7-1.7-.1-2.6 1.7-2.6Zm5.2-.6c-.2.7.9.8.4 1.7-1 1.8-1.1 2-2.8.6-.7-.5-.4-2.7.3-2.6 1.3.2 2.4-.8 3.7-.5-.1 1.2-.6 1.5-1.6.8ZM108 81.2l-.5-1.5c-.1-.5 1.1-2 1.5-1.8.4.3.7.7 1 1.3a1.1 1.1 0 0 1-.3 1.2 3.7 3.7 0 0 1-4.2 1.3c-.5-.1-1-.4-.3-1 .8-.8 1.3-1.3 1.8 0a.7.7 0 0 0 1 .5Zm282.4-37.4 1.8-2.2c.6.6 1.6 1 1.7 1.7a2.2 2.2 0 0 1-1.4 2.2c-.4 0-2.1-1.2-2.1-1.7ZM111.8 75.1c1.5 2 1.4 2.8-.1 3.8-.5.3-1 .3-1 0-.2-1-1.3-2 0-2.8l1-1Zm-2.2 1c-1.6-2-2.2-1.7-.2-3.8 2 1 1.8 2.4.2 3.8Zm286-33.1c.8-.5.6-2 1.9-2 .6 0 1.4 0 1.6.8.1.5-1.6 2.4-2 2.2-.4-.4-1.2-.3-1.5-1Zm3.5-5.4a1.8 1.8 0 0 1 1.3 1.5c0 .6-.2 1.8-.8 1.8-.6 0-1.8-.2-1.8-1.1a2.5 2.5 0 0 1 1.3-2.2ZM107.3 73l-2.2-2.4.3-.2c1.2-1.4 2 0 2.8.5.3.2.5.4.2.8a4 4 0 0 1-1.1 1.3Zm-2.7-.9a7 7 0 0 1 2 2c-.5.5-1.2 1.5-1.6 1.4a2.8 2.8 0 0 1-1.7-1.6c-.2-.5.9-1.2 1.3-1.8Zm-4-.4c.7-.5 1.1-1.4 1.9-1.5a1.4 1.4 0 0 1 1.3 1.3 1.6 1.6 0 0 1-2.5 1.2c-.4-.3-.6-.6-.6-1Zm287.7-25.4c.6-.5 1-1.5 1.8-1.6.5 0 1.5.9 1.5 1.6a1.6 1.6 0 0 1-1.6 1.4 1.9 1.9 0 0 1-1.7-1.4Zm-281.2 32c-1.5-1.9-1.6-2.5-.6-3.3.5-.3 1-.1 1.3.3 1.1 1.3 1.1 1.3-.7 3Zm291-33.8c1.5-.5 1.4-3.1 3.8-2-2.1 3-2.1 3-3.8 2Zm-12.6 3.1c-.6 0-1.6-1.3-1.5-2 0-.8.9-.6 1.2-1 .2-.1 1.9 1.6 1.7 1.8-.4.4-.6 1.1-1.4 1.2ZM103 78.2c.7-.5 1.3-1.2 1.8-1 .8 0 1.1 1 1.3 1.8a1.3 1.3 0 0 1-.4.9 1.3 1.3 0 0 1-1 .3c-.8-.2-.9-1.4-1.7-2Zm295-32.6c.4.2 1 .4 1.2.8.1.3-.3.7-.6 1l-.7.7c-.5.7-1 0-1.5 0a.5.5 0 0 1-.6-.4 5 5 0 0 1 2.3-2Zm-4.6.6A9 9 0 0 1 395 44c.4-.2 1.5.6 1.4 1a3.3 3.3 0 0 1-1.7 2c-.2.1-.9-.5-1.4-.8Zm-279.4 30c-.5-.6-1-1.4-1.3-2.1 0-.3.8-1.3 1-1.2 1 .1 1.2 1 1.5 1.8.1.4-.6 1-1.2 1.5Zm270.3-33.6c.8-.6.3-2 1.8-2 .5 0 1 .5.8.7-.3.8-.9 1.6-1.6 2-.2.2-.6-.4-1-.7Zm1.7 5.6c.6-.4 1.3-1 1.8-.9.5.2 1.6.4 1.5 1.2a1.4 1.4 0 0 1-1.5 1.1 2.7 2.7 0 0 1-1.8-1.4Zm12.5.7c1.6-2.3 1.7-2.3 3.1-1.6-1.7 2.4-1.7 2.4-3 1.6Zm-283 30.3c-1.3-1.8-1.3-2 .2-3.3 1.8 1.2.7 2.3-.3 3.3ZM392.8 50c1-1.2 2-2 3.4-.8-.9 1.3-1.9 2-3.4.8Zm-2-1.5c.8-1 1.7-2.3 3-.5-1 .4-1.6 2.5-3 .5ZM112 73a6 6 0 0 1-1.6-2.3l.1-.3c.8-.1 1.2.5 1.6 1 .3.2 1 .4.4 1-.2.2-.2.6-.5.6Zm-7.4-2.9c-.4-.6-1.8-.5-1.4-1.7.3-.8 1.1-.5 1.5-.2.7.5.6 1.3 0 2Zm12.5 3.2c.6 1.1.9 2.4.6 3.6-1.3-1.9-1.4-2.6-.6-3.6Zm278.2-22.6c1.1.1 2-2 3.3-.4a2.5 2.5 0 0 1-3.3.4ZM115.6 81.7c-.6-1.6.7-2.1 1.2-3 1 1.5-.2 2.1-1.2 3Zm-14.1-12.1c-.7.6-.8 1.6-1.8 1.8-.1 0-.4.1-.4-.3s1.3-2 1.6-2c.2 0 .3.3.6.5ZM387.2 50c-.4.5-1 1.3-1.4 1a2.8 2.8 0 0 1-.9-2.5l2.3 1.5Zm1.3.1c1-.5 2-1.5 2.9 0-.8 1.1-1.8 1.1-3 0ZM227 150.1c.1-.5.3-1 1-1 .5 0 .7.5.7 1 0 .6-.2 1-.8 1-.6-.1-.8-.5-1-1ZM402.6 43.2l.3 1.5a1 1 0 0 1-.6 1.3 1 1 0 0 1-1.2-.2c-.3-.4.3-.7.5-1l1-1.6ZM112.5 82.6c.3-.6 1-.6 1.4-1 .3-.3.6-.6.8-.2a.8.8 0 0 1-.1 1.2c-.8.5-1.4.2-2.1 0Zm3.4-9.2c-.6-.8-1.3-1.2-1.6-2.3 1 .5 2.6.3 1.5 2.3Zm125 76.7c.5 0 .8.1.8.6s-.3.6-.7.6c-.4 0-.8-.2-.7-.7a.6.6 0 0 1 .5-.5Zm152.3-98.9a2 2 0 0 1-2.4.2c.9-.5 1.5-1.3 2.4-.2Zm7.1-.1c-.6.5-1.2 1-2.2.6.8-.1 1-1.6 2.2-.6Zm-166 87.9c.5 0 .6.3.6.7 0 .3-.2.7-.5.7a.8.8 0 0 1-.7-.8c0-.4.3-.6.7-.6Zm53.4 2.9c0-.5.3-.6.7-.6.4 0 .7.2.7.6 0 .4-.4.6-.8.6-.5 0-.6-.2-.6-.6Zm98.5-90.3c.8-.1 1.7-1.4 2.5 0-.8.6-1.6-.2-2.5 0Z" fill="#0D0D0D"/><path d="M430.6 167.8c-1.6.7-3.2 0-4.7 0-3.4 0-6.8 0-10.3-.2l-7.7-.4c-2 0-3.9 0-5.8-.2-1.3-.2-2.8.4-4-.8l-.1-.2c-1.1 2-2.8.6-4 .6-5.7 0-11.3-.4-16.9-.6l-14.6-.6-14.5-.5-3.8-.1c-1.1-.2-1.3.4-1.4 1.2a730 730 0 0 0-.5 4.2c0 .6 0 .9.9 1 4.1 0 8.3-.5 12.4-.3 3.8.1 7.5-.3 11.3-.3 4.9 0 9.8 0 14.7-.2 3.8 0 7.6 0 11.4-.2 4.6-.3 9.1 0 13.7-.3 6.5-.3 13 0 19.5-.4l2.8.1c1.8 0 1.8 0 1.6-1.8Z" fill="#F5F4F3"/><path d="M273.8 179.9c7.7.1 15.4-.2 23.1-.1l14.5-.2 1.2.1c1.4.8 2.8-.5 4.3-.1.4 0 .3-.4.4-.6l.5-4.9c0-.5 0-.6-.7-.6-2.8.3-5.7.3-8.6 0-2.3 0-4.7.5-7 .4h-8c-2.5-.1-5 0-7.5.2l-4.6-.1c-3 0-6 .2-8.9 0-.4 0-.6 0-.7.5-.4 1.6 0 3.3-.6 5 0 .4.4.4.7.4h1.9Z" fill="#fff"/><path d="M431 167.4c0-1 .5-2.4 0-3.1-.6-.8-2.1-.4-3.2-.4-6.4-.1-12.8-.5-19.2-.7-4.1-.2-8.3-.3-12.4-.6-3.5-.3-7-.2-10.5-.4l-14.1-.8-10.9-.3-11.2-.5c-1.8-.1-3.6-.3-5.3-.2-1.3 0-.7 1.3-1 2-.1 1 .5 1.2 1.2 1.2l6.6.1 7.1.4 8.4.3 10.8.4c3.5.1 7 0 10.6.4 5 .4 10.2.3 15.3.6 4.2.3 8.4.5 12.7.5 4.5 0 9 .4 13.5.6a1.7 1.7 0 0 1 1.5.5ZM420.6 175c0 1.4-.7 1.1-1.4 1.1-6.2 0-12.4 0-18.6-.3-3.4-.1-6.9 0-10.3-.3l-5.8-.1-11.4-.3-8.8-.1-21.7-.5c-1.1 0-.9.6-1 1-.2.9.4.9 1 .9 4.4.1 8.8.1 13.1.4 5.3.4 10.6.1 15.9.7 3.3.3 6.7-.1 10 .1 5.7.5 11.4.3 17 .7l8.1.3a314 314 0 0 0 21.4.2c.6 0 1.6-.3 1.2-.8-.4-.5 1.4-2-1-1.8-1.9.3-4-.1-6 0-.8 0-1-.6-1.7-1.1ZM429.7 175c.2-1 .3-2.2.6-3.2.2-.8 0-1-.8-1-2.1-.2-4.3-.2-6.4 0-2.6.3-5.1-.4-7.5 0a45 45 0 0 1-8.2.4c-3.6 0-7.2.7-10.8 0-1-.3-2.6.3-4 .3-5 .1-10 0-15 .2-7 .3-14.3.2-21.4.5l-13.3.2c-.4 0-.8-.1-1 .6 1.7.2 3.3.3 5 .2 6 .2 12 .1 18 .4 1.3 0 2.7-.5 4 .4.3.2 1-.2 1.5-.2 3.2 0 6.5 0 9.8.2h6.6c4.4.2 8.8.1 13.1.2 4.3.2 8.6.1 12.8.3 2.2 0 4.5 0 6.7.2 3.4.4 7 0 10.3.3ZM250.3 175.8h-15.1l-13.2.2h-8c-.7 0-1 .2-1 1v1.3c.1 2.3.1 2.2 2.4 2.2l11.9-.2c2.7 0 5.5-.2 8.2-.1h5.4c3.2 0 6.5 0 9.8-.2.8 0 1.7.6 2.3 0 .6-.7.2-1.7.3-2.5.3-2 .3-2-1.8-2l-1.2.1v.2ZM233.1 135.1l.8-.4c1.8.1 1.6-.7 1.3-2l-5.1-22.6a11779.6 11779.6 0 0 0-7.4-32.4l-1-5.1c-.1-.4-.1-1.2-.7-.8-.5.3-1.8-.1-1.5 1.2l.7 2.9c1.2 6.2 2.7 12.4 4.1 18.6a9 9 0 0 1 .7 4.2c-.2.5.5 1.2.6 1.9 1 4.5 2.1 9 3 13.7 1.1 5 2.5 10 3.4 15 .3 2 1.2 3.7 1.1 5.8ZM290.2 130.6c.8-1 1-2 1.7-2.8.4-.6-.2-2-.3-2.9-1-5.7-1.7-11.4-2.6-17l-2-14.3c-.5-3.1-1-6.3-1.3-9.5l-1.3-8.7a258 258 0 0 1-1.8-13c0-1.1-.5-1.2-1.3-1.1-1.2 0-.5.8-.4 1.2.2 3.9.9 7.7 1.4 11.6L284 86c.9 6 1.8 12.1 2.5 18.2l1.3 9.1c.3 3 .8 6 1 9l.7 4c0 1.5.2 3 .7 4.3ZM380.4 160.6c-6-1.3-12-3.1-17.9-5.3-2.9-1-5.5-2.7-7.6-4.8a28.9 28.9 0 0 1-9.8 8.7l35.3 1.4ZM212.6 64.3l.7-1.4a345 345 0 0 0-14.8-4.7c-4.4-1.3-8.7-2.9-13.2-4.1l-8.8-2.8c-2.8-.8-5.5-1.6-8.3-2.6L158 45.6l-10.3-3.2-9.8-3c-1-.5-2.3-.9-3.5-1-.5 0-.5.1-.7.4-.2.6.3.5.5.6l13.5 4.3 11.4 3.6c3.4 1 7 2 10.4 3.2l9.7 3c2.7 1 5.5 1.6 8.3 2.5a817 817 0 0 1 13.1 4c3.6 1.3 7.2 2.4 10.9 3.5a2 2 0 0 1 1.2.8ZM287 146.7c-2.4-.2-2.3-.2-3.4 2.2l-7 15.2a54.4 54.4 0 0 0-3.2 7l-1 1.6c1 .4 2-.3 3-.1.6 0 .7-.8.9-1.2 1.2-3.4 2.8-6.6 4.2-10l4.7-10.3a35 35 0 0 0 1.8-4.4ZM314.9 172.2l-3-5.5c-3-6.2-6.7-12.2-9.5-18.6-.7-1.4-1.8-1-2.7-1-.7 0-.4.6-.1.9 1.6 2.5 3 5.2 4.2 8 2.2 4.3 4.6 8.5 6.4 13 .4 1 1.3 1.8 1.4 3 0 .3.3.1.5.1 1 .2 1.9.2 2.8.1ZM252 174.6l-2.4-6.6-4.7-12.9a1.2 1.2 0 0 0-1.4-1h-2.6c.2.8.5 1.6 1 2.3 2.4 5.8 5 11.6 7.3 17.5.4 1.1 1.7.6 2.9.7ZM217.9 174.6c1 .3 1.2-.2 1.5-1 1.4-4.2 2.8-8.4 4.4-12.5l2.3-6.2c.1-.4.4-1.1-.3-1.2-.7 0-1.7-.6-2 .6a326 326 0 0 1-7 18.8c-.5 1.2-.4 1.8 1 1.5ZM117.7 82h5a2 2 0 0 0 2-2c.2-2 0-4.2-.6-6.2-.2-.6-.3-1-1.2-1-1.2 0-2.3-.1-3.5-.3-.4 0-.8-.3-1.1.3-.3.5 0 .8.2 1.2 1.5 2.2.7 5.8-.8 8ZM384 51a10.7 10.7 0 0 1-.7-9c-1.6.5-3.2.8-4.9 1-.5 0-.5.2-.7.6a9.2 9.2 0 0 0 .1 7.2 1.5 1.5 0 0 0 1.8.6c1.3-.3 2.7-.4 4-.2l.4-.2ZM337 21.7c-2 .3-3.3 1.7-4.8 2.6l-11.3 7c-3.6 2.4-7.1 4.8-10.8 7-6 3.6-11.7 7.5-17.7 11-1.1.6-2.2 1.5-3.3 2.2-.6.4 0 .8 0 1.2a29464.4 29464.4 0 0 0 39.2-25l8-5.3c.3-.2.6-.3.6-.7ZM130.5 77.1l-.2 3.1c0 .6 0 1.1.9 1 1.5 0 3 0 4.4.3 1.2 0 1.9-.2 2-1.5l.2-1.3c0-1.8-.3-2.2-2-2.6l-3.4-.8c-2-.3-2-.3-2 1.8ZM373.9 178.6h-5a681.8 681.8 0 0 1-24.7-.9h-2.5c-.8 0-.4.7-.5 1-.2.6-.2.7.4.7h6.7c2.8-.2 5.7 0 8.6-.1l9.7-.1a69.5 69.5 0 0 1 6.7 0c.2 0 .4-.3.6-.6ZM123.2 51.8c.8 4 1 8 1.4 12l.4 6.4c0 .6-.3 1.4.7 1.7 1.3.3 1.6.2 1.5-1.2 0-1.3-.2-2.7-.5-4-1-4-1.1-8.2-1.9-12.2l-.4-3.3c0-.7-.1-1.3-.8-1.2-.7 0-.5.7-.4 1.2v.6ZM371.4 45.4c-1.7.5-3.4 1.1-5 1.8-1 .3-1.4.9-1.2 1.8.3 1 .2 2.4 1.7 2.6l4.5.4c1.3 0 1-1.2.8-1.5-1.2-1.5-.7-3.4-.8-5.1Z" fill="#F5F4F3"/><path d="M377 42.1c-5 1-5.2 2.5-4.2 7.9.5 2.5 1.3 2.7 4.2 2a8.6 8.6 0 0 1-1.3-4.9c.1-1.7.5-3.4 1.3-5ZM369.6 19a3.4 3.4 0 0 0-.3 2.9c1.2 4 2.6 8.2 3.7 12.3.6 2.5 1.2 5 2 7.4 1.7-.6 1.6-.6 1-2.3-1.6-5-3.4-9.9-4.7-15-.5-1.7-1.3-3.4-1.7-5.4ZM124.8 72.8a12 12 0 0 1 1.5 6.9l-.1 1.1c-.1.4-.6 1-.2 1.3a2.5 2.5 0 0 0 2.2.4c.8-.4.4-1 .4-1.5.2-2 .4-4.2.3-6.3 0-1-.5-1.4-1.3-1.4-1 0-1.7-.8-2.8-.5ZM362.2 12.6c-1.3 0-1.4.7-1 1.9 1.5 4 3.1 7.8 4.3 11.9.2.8.6 1.2 1.5 1l2-.6c.5 0 .6-.3.4-.7-.1-.3-.1-.7-.8-.5-.6.1-1.1.8-1.8.3-.6-.5-1-1.3-1-2-.9-3.3-2.1-6.4-3.2-9.6a9 9 0 0 1-.4-1.7ZM129.4 59.3c2.4-.2 2.4-.3 2.2-2.8-.4-4.5-1.5-8.9-2-13.4 0-.8-.6-.7-1-.6-.8.1-.2.5-.2.8 1 4 1.6 8.1 2 12.2.2 2.1-.6 2.7-2.8 2.8-.3 0-.7 0-.7.4 0 .3.3.5.6.5h1.9ZM101.4 76.9a3 3 0 0 1-2.7-.2c0 1.5 0 1.6 1.4 2.5.2.1.3.2.3.4-.3 1 .5 1.3 1.2 1.4.7.1 1.4.5 2 0 .3-.2.1-.6 0-.6-.8-.4-.8-2-2.2-1.4-.1 0-.8 0-.4-.3.8-.4-1.2-1.2.3-1.3h.7a1.3 1.3 0 0 0 1.8-.8c.2-.7-.8-1.1-1.2-1.7-.4-.6-1 0-1.4.4-.4.4-1.6.9.2 1.6ZM337 21.7c1.3 0 2.1-1 3.2-1.7 4.8-3 9.5-6.2 14.4-9 .2-.2.9-.2.5-.8-.3-.7-.7 0-1 .1l-8.9 5.7-7.6 4.9c-.3.2-.6.4-.7.8ZM390.3 39.6c-1.8 0-2.4 1-1.7 2.6.1.2.2.3 0 .4-.1.1-.3.2-.4.1A2.3 2.3 0 0 0 386 44c.3.7.8 1.4 1.5 1.8.3 0 .3-.2.5-.4 1.1-1.4 2.1-2.9 3-4.5.4-.8.2-1.3-.8-1.2ZM395.5 39c1 .7 1.5.4 1.6-.8-1.3-.3-2.4.7-3.7.5-.7 0-1 2-.3 2.6 1.7 1.3 1.9 1.2 2.8-.6.5-1-.6-1-.4-1.7ZM108 81.2a.7.7 0 0 1-.9-.5c-.5-1.3-1-.8-1.8 0-.7.6-.2.9.3 1a3.7 3.7 0 0 0 4.2-1.3 1.1 1.1 0 0 0 .2-1.2c-.2-.6-.5-1-1-1.3-.3-.3-1.5 1.3-1.4 1.8l.5 1.5ZM390.5 43.8c0 .5 1.7 1.8 2 1.7a2.2 2.2 0 0 0 1.5-2.1c-.1-.7-1.1-1.2-1.7-1.8l-1.8 2.2ZM111.8 75l-1 1c-1.4 1-.3 2-.1 2.9 0 .3.5.3 1 0 1.5-1 1.6-1.8 0-3.8ZM109.6 76.1c1.6-1.4 1.7-2.7-.2-3.8-2 2-1.4 1.8.2 3.8ZM395.6 43c.3.7 1.1.6 1.6 1 .3.2 2-1.7 1.9-2.2-.2-.8-1-.7-1.6-.7-1.3-.1-1 1.4-2 1.9ZM399.1 37.6a2.5 2.5 0 0 0-1.3 2.2c0 .9 1.2 1 1.8 1 .6.1.9-1 .8-1.7a1.8 1.8 0 0 0-1.3-1.5ZM107.3 73.1a4 4 0 0 0 1.1-1.3c.3-.4 0-.6-.2-.8-.9-.4-1.6-2-2.8-.5l-.3.2 2.2 2.4ZM104.6 72.2c-.4.6-1.5 1.3-1.3 1.8a2.8 2.8 0 0 0 1.7 1.6c.4.1 1-.9 1.6-1.5a7 7 0 0 0-2-1.9ZM100.7 71.8a1.6 1.6 0 0 0 3.1-.2 1.4 1.4 0 0 0-1.3-1.3c-.8 0-1.2 1-1.8 1.5ZM388.3 46.4a1.8 1.8 0 0 0 1.7 1.4 1.6 1.6 0 0 0 1.6-1.4c0-.7-1-1.7-1.5-1.6-.7.1-1.2 1-1.8 1.6ZM107.1 78.3c1.8-1.6 1.8-1.6.7-3-.4-.3-.8-.5-1.3-.2-1 .8-.8 1.4.6 3.2ZM111.8 82l.7-.4c2.2-1.5 2.3-1.1 1-3.3-.4 0-.6.6-1 .8-.8.4-1.1 1-.6 2 .2.3-.1.6 0 1h-.1ZM398.1 44.6c1.7 1 1.7 1 3.8-2-2.4-1-2.3 1.6-3.8 2ZM385.5 47.7c.8 0 1-.8 1.4-1.2.2-.2-1.5-2-1.7-1.8-.3.4-1.2.2-1.2 1 0 .7 1 2 1.5 2ZM98.7 72.9c0 .2-.3.5-.3.8.1.5-.3 1.2.3 1.5a1.7 1.7 0 0 0 2-.2c.6-.6 1-1 0-1.5-.7-.4-1.2-1-2-.6Z" fill="#F5F4F3"/><path d="M103 78.2c.7.6.8 1.8 1.6 2A1.3 1.3 0 0 0 106 79c-.2-.7-.5-1.8-1.3-1.9-.5 0-1.1.6-1.8 1ZM398 45.6a5 5 0 0 0-2.3 2 .5.5 0 0 0 .2.4.4.4 0 0 0 .4 0c.5 0 1 .8 1.5 0l.7-.7c.3-.3.7-.6.6-.9-.3-.4-.8-.6-1.1-.8ZM393.3 46.2c.5.3 1.2 1 1.4.8a3.3 3.3 0 0 0 1.7-2c.1-.4-1-1.2-1.4-1-.7.7-1.3 1.4-1.8 2.2ZM114 76.2c.5-.5 1.2-1 1-1.5-.2-.7-.5-1.7-1.4-1.8-.2 0-1 .9-1 1.2.4.7.8 1.5 1.3 2.1ZM384.2 42.6c.4.3.8.9 1 .8.7-.5 1.3-1.3 1.6-2.1.1-.2-.3-.7-.8-.7-1.5 0-1 1.4-1.8 2ZM386 48.2a2.7 2.7 0 0 0 1.7 1.4 1.4 1.4 0 0 0 1.5-1.1c0-.8-1-1-1.5-1.2-.5 0-1.2.5-1.8.9ZM398.4 48.9c1.4.8 1.4.8 3.1-1.6-1.4-.7-1.5-.7-3 1.6ZM115.3 79.2c1-1 2-2 .3-3.3-1.5 1.4-1.5 1.5-.3 3.3ZM393 50c1.4 1.1 2.4.5 3.3-.8-1.4-1.3-2.4-.4-3.4.8ZM390.8 48.5c1.5 2 2.1-.1 3.2-.5-1.4-1.8-2.3-.5-3.2.5ZM112 73c.3 0 .3-.3.5-.5.7-.6 0-.8-.4-1-.4-.5-.8-1.1-1.6-1l-.1.3A6 6 0 0 0 112 73ZM104.6 70.2c.8-.6.8-1.4 0-2-.3-.2-1.1-.5-1.4.3-.4 1.2 1 1.1 1.4 1.7ZM117 73.4c-.7 1-.6 1.7.7 3.6.3-1.2 0-2.5-.6-3.6ZM395.3 50.8a2.5 2.5 0 0 0 3.3-.4c-1.3-1.7-2.2.5-3.3.4ZM115.6 81.7c1-.9 2.1-1.5 1.2-3-.5.9-1.8 1.4-1.2 3ZM101.5 69.6c-.3-.2-.4-.5-.6-.5-.3 0-1.6 1.6-1.6 2 0 .4.3.3.4.3 1-.2 1.1-1.2 1.8-1.8ZM387.2 50l-2.3-1.5a2.9 2.9 0 0 0 .9 2.5c.4.3 1-.5 1.4-1ZM388.5 50.1c1.1 1.1 2 1.1 2.9 0-1-1.5-1.9-.5-3 0ZM227 150c.2.6.4 1 1 1s.8-.3.8-.9c0-.5-.2-1-.8-1-.6 0-.8.5-1 1ZM402.6 43.2l-1 1.5c-.2.4-.8.7-.5 1.1a1 1 0 0 0 1.2.2 1 1 0 0 0 .6-1.3l-.3-1.5ZM112.5 82.6c.7.2 1.3.5 2 0a.8.8 0 0 0 .4-1s0-.2-.2-.2c-.2-.4-.5-.1-.8.1-.4.5-1.1.5-1.4 1.1ZM115.8 73.4c1.1-2-.5-1.8-1.5-2.3.3 1 1 1.5 1.5 2.3ZM111.8 82l-.2-.1c-1.2-1.4-1.3-1.4-2.6.3 1-.1 2 .3 2.8-.2ZM240.8 150l-.4.2-.1.4c0 .5.3.7.7.7.4 0 .7 0 .7-.6 0-.5-.3-.6-.9-.6ZM393.2 51.2c-.9-1-1.5-.3-2.4.2a2 2 0 0 0 2.4-.2ZM400.3 51.1c-1.1-1-1.4.5-2.2.6 1 .5 1.6 0 2.2-.6ZM234.4 139c-.4 0-.7.2-.7.6a.7.7 0 0 0 .7.8c.3 0 .5-.4.5-.7 0-.4 0-.7-.5-.7ZM402.6 48.1c-1 0-1 1-1.6 1.5-.2.2 0 .4.2.4.2.1.5.2.6-.1.1-.7.8-1 .8-1.8ZM287.7 141.9c0 .4.1.6.6.6.4 0 .8-.2.8-.6 0-.4-.3-.6-.7-.6-.4 0-.7.1-.7.6ZM386.2 51.6c.9-.2 1.7.6 2.5 0-.8-1.4-1.7-.1-2.5 0ZM402.6 48.1l.1-.4h-.2c-.1.1-.2.3 0 .4Z" fill="#F5F4F3"/><path d="m99.9 188.6-.1-.4-.3.1.4.3Z" fill="#fff"/><path d="M98.7 72.9v-.2h-.1l.1.2ZM362.2 12.6h.2c0 .2.1.2 0 0h-.2ZM383.6 51.2c.1.1.3.3.4.1V51l-.4.2Z" fill="#F5F4F3"/><path d="M386.7 385.7c1.5-.9 3.2-.3 4.7-.6 2.2-.2 4.2-.7 6.1-1.6.5-.3 1-.5.8-1 0-.6-.4-.9-1-1.1-2-.8-4-1.2-6.2-1.4L387 379c0-.6.4-.5.6-.7.8-.9.8-1.5-.3-2l-2.7-.9c-1-.1-2-.4-2.8-.8-.7-.3-1.4.2-2.2.9l.6-6.5c.4-5.8 1-11.6 1.6-17.3.3-2.3.4-4.7.3-7 0-.8.2-1.3 1.1-1.1h1.5c.8 0 1.2-.4 1.2-1.3 0-4.9.7-9.7.6-14.6l.2-2.5c0-1-.5-1.5-1.7-1.6l-11.6-.2c-.7 0-.6-.1-.6-.7l1.4-12.3c.3-2.2.2-4.4.4-6.6.6-4.5.8-9 1.4-13.4.4-3.3.5-6.7.8-10l.5-4.1c0-.9.5-1 1.2-.8 2 .5 2.2.2 2-1.6 0-.6 0-1.3.2-1.8 1.5-5 2.3-10 3.4-15l.5-2.3c.5-1.5.2-2-1.4-2.1l-5-.3-10.6-.8c-3.3-.2-6.6-.6-9.8-.7-4 0-7.8-.6-11.7-.8-5.7-.2-11.3-1-17-1.4l-9.2-.5c-3.8-.3-7.7-.4-11.5-.8-6.1-.6-12.2-.7-18.3-1.3-1.3-.1-1.8.4-1.8 1.7 0 2.1-.7 4.2-.9 6.3-.2 2.1-.7 4.2-.8 6.3-.1 1.3-.3 2.5-.6 3.7-.3 1-.3 2 0 2.9.7 1 1.9 1.1 3 1.2 2 .1 2 0 2.2 2.1.3 3.8.5 7.7.6 11.5.2 3.3.7 6.5.8 9.8l.6 10.5c0 2.9.3 5.8.5 8.6l.7 10c0 .7-.2.9-1 .9-5.4-.3-10.9-.5-16.3-.4-1.3 0-1.7.5-1.9 1.7-.4 3.9 0 7.7-.1 11.6l-.3 7.6c0 .9.2 1.1 1 1 1.8-.2 1.7-.2 1.7 1.7 0 2.2.1 4.3 0 6.4l.2 6.1c0 4.2.2 8.3 0 12.5.2 3 .2 6.2 0 9.2 0 1 .8 1.9-.2 2.8-.3.3.5.5.8.6l10.8.4 11.6.4c4 .1 8.1.5 12.2.4 2.6 0 5.3.3 8 .4l10.6.1 7.7.3c1.4.2 2.8.2 4.3.2 3.3-.5 6.6.3 9.9.3 5.4.1 10.8.2 16.1.5 2.6.2 5 .3 7.6.2.3 0 .7-.2.9.3h1.7c.6-.6 1.2-.4 1.8 0h5.3Zm-42.8-101.2c1.3 0 2.5-.3 3.7-.7.6-.2.9-.5.9-1 0-3 .6-6 .3-9-.1-.8.3-.9 1-.7 4.4.8 8.8.5 13.2 1 3.2.5 6.5.6 9.7.8.9 0 1.7.1 2.6.4.8.5 0 1.6 0 2.5-.2 5.3-1 10.6-1.5 16-.5 6.4-1.4 12.7-2 19-.4 3.2-.6 6.4-.7 9.6 0 .3.2.8-.4.7-.8-.1-1.5.2-2.3.2l-8.9-.4c-2.7 0-5.4.2-8.1-.1-3.7-.4-7.4-.2-11.1-.4l-22.1-.5-13.4-.2c-2.7-.2-5.4-.3-8-.2-.3 0-1.1.4-1.1-.7l-.3-8.4-1-14.3c0-2.9 0-5.8-.4-8.6-.5-3.8-.4-7.6-.8-11.3-.2-2.8-.5-5.5-.6-8.3 0-1.6.7-1.5 1.5-1.4 3 .7 6 .5 9 .9 3.4.4 6.9.6 10.3.9.6 0 .9.2.8.9-.3 2.2-.4 4.5-.2 6.7 0 1-.3 2.4 1 3 1 .7 2 1 3.2 1.3 5.4.8 10.8 1.8 16.2 2.2 3.2.2 6.3-.3 9.5.1Zm-35.7 65c0 1.7.2 3.3.7 4.9a2 2 0 0 0 1.9 1.5c4.3.5 8.6.1 12.9.3 3.2 0 6.4-.3 9.6-.7l10.6-1c1.7-.2 3.9-.1 4.3-2.6.3-2.6 1.4-5 1.3-7.6 0-.7.4-1 1-1h6.7c3.1 0 6.3.2 9.4.1h8.3c1.6-.2 3.2-.1 4.9 0 .4.2 1 0 .8.7-.2 1.5-.4 3-.4 4.4 0 1.7-.5 3.3-.5 5 0 3-.6 5.8-.8 8.8a145 145 0 0 1-.6 8.6l-1 12c0 .6.2 1.2-1 1h-3.2c-3 0-6.1-.3-9.2-.3-2.9 0-5.8 0-8.7-.2l-7.6-.2c-2.8-.1-5.7 0-8.5-.2l-10.3-.4-10.3-.2-16.3-.6a729 729 0 0 0-21.6-.4c-1.2 0-1.3-.4-1.3-1.4v-16c0-6.4 0-12.9-.3-19.3 0-1.8.7-1.7 1.8-1.8h.7c5 .2 10.1.4 15.2.2 3.7 0 7.4.4 11 0 .7 0 .4.3.4.5.3 2 0 3.9.1 6Zm76.2-7.7c-4.5-.1-8.9-.2-13.2-.1H359l-11.5-.1H325.7c-4.4-.2-8.9-.1-13.3-.1h-35.5c-.5 0-.9 0-.7-.8l.2-3.3c.2-4.6-.2-9.2 0-13.9 0-.9.3-.9 1-.8l12.4.1c1.9 0 3.8.2 5.6.3l6.6.3h6.2l6.2.2c3.6 0 7.2 0 10.8.2 3.8.2 7.6.2 11.5.3 5.8.3 11.6 0 17.4.3 6.2.4 12.4.3 18.7.5 3.5.1 7.1.3 10.7.2.8 0 1.2.2 1.1 1.2-.2 2.6-.2 5.1-.2 7.7v7.8Zm-3-87.2c.9 0 1.6-.1 1.2 1.2 0 .5-.1 1.2-.3 1.7-1 3.3-1.3 6.7-2.3 10-.5 1.7-.8 3.5-1 5.3 0 .4 0 .7-.6.7-1 0-2.2 0-3.3-.2-3.9-.5-7.8-.7-11.6-1l-9.8-.7-8.8-.6-5.8-.4c-3.2-.5-6.4-.5-9.6-1-3.5-.4-7.1-.4-10.7-.7a761.2 761.2 0 0 0-30.6-2.3c-1 0-1.2-.3-1-1l.6-3.6 1.1-7.2c.2-2.1.7-4.2 1-6.3 0-.5.3-.6.9-.5l7.5.6 10.8.7 11.9 1a784 784 0 0 1 19.8 1.3c5.7.5 11.5 1 17.2 1.2l12.6.9c3.6 0 7.3.4 10.9 1Z" fill="#0D0D0D"/><path d="M381.4 385.8c-.6-.4-1.2-.6-1.7 0h1.7ZM343.9 284.5c-3.2-.4-6.3.1-9.5-.1-5.4-.4-10.8-1.4-16.2-2.2-1.2-.2-2.3-.6-3.3-1.2-1.2-.7-.9-2-.9-3.1-.2-2.2-.1-4.5.2-6.7 0-.7-.2-.9-.8-1-3.4-.2-6.9-.4-10.3-.8-3-.4-6-.2-9-.9-.8-.1-1.5-.2-1.5 1.4.1 2.8.4 5.5.6 8.3.4 3.7.3 7.5.8 11.3.4 2.8.3 5.7.5 8.6l.9 14.3.3 8.4c0 1.1.8.7 1 .7 2.7-.1 5.4 0 8.1.2 4.5 0 9 0 13.4.2l22 .5c3.8.1 7.5 0 11.2.4 2.7.3 5.4 0 8.1 0l9 .5c.7 0 1.4-.3 2.2-.2.6 0 .4-.4.4-.7 0-3.2.3-6.4.8-9.5.5-6.4 1.4-12.7 2-19.1.4-5.4 1.2-10.7 1.4-16 0-.9.8-2 0-2.5-.8-.3-1.7-.4-2.6-.4-3.2-.2-6.5-.3-9.7-.8-4.4-.5-8.8-.2-13.2-1-.7-.2-1.1-.1-1 .8.3 3-.4 5.9-.3 8.9 0 .5-.3.8-.9 1-1.2.4-2.4.6-3.7.7ZM308.2 349.5c-.1-2 .2-4-.1-5.9 0-.2.3-.5-.3-.4-3.7.3-7.4-.2-11.1 0-5.1.1-10.2 0-15.2-.3h-.7c-1.1.1-1.9 0-1.8 1.8.3 6.5.2 12.9.2 19.3v16c0 1 .2 1.4 1.4 1.4a729 729 0 0 1 37.9 1l10.3.2c3.4 0 6.9.2 10.3.4l8.5.2c2.5 0 5 0 7.6.2 2.9.2 5.8.2 8.7.2l9.2.3h3.2c1.2.2 1-.4 1-1l1-12 .6-8.6c.1-3 .9-5.9.8-8.8 0-1.7.4-3.3.5-5 0-1.5.2-3 .4-4.4.1-.7-.4-.5-.8-.6-1.7-.2-3.3-.3-5 0h-8.2l-9.4-.2h-6.7c-.6 0-1 .3-1 1 0 2.6-1 5-1.4 7.6-.3 2.5-2.5 2.4-4.2 2.6l-10.6 1c-3.2.4-6.4.7-9.6.7-4.3-.2-8.6.2-13-.3a2 2 0 0 1-1.8-1.5c-.5-1.6-.8-3.2-.7-4.9ZM384.4 341.8V334c0-2.6 0-5.1.2-7.7 0-1-.3-1.2-1.1-1.2-3.6.1-7.2 0-10.7-.2-6.3-.2-12.5-.1-18.7-.5-5.8-.3-11.6 0-17.4-.3-3.9-.1-7.7 0-11.5-.3l-10.8-.2-6.2-.2H302c-2.2 0-4.4-.2-6.5-.3l-5.7-.3-12.4-.1c-.7 0-1 0-1 .8-.2 4.7.2 9.3 0 14 0 1 0 2.1-.2 3.2-.2.8.2.9.7.9 2.5 0 5-.2 7.6-.1h41.2l8.7.1h13.1l11.5.1h25.4ZM381.5 254.6c-3.6-.5-7.3-.8-11-.9l-12.4-.9a410 410 0 0 1-26.6-2l-10.5-.6c-4-.2-8-.6-12-1l-10.7-.5-7.5-.7c-.6 0-.8 0-.9.5-.3 2.1-.8 4.2-1 6.3-.2 2.4-.7 4.8-1 7.2l-.7 3.5c-.2.8 0 1 1 1.1a479.5 479.5 0 0 1 30.6 2.3c3.6.3 7.2.3 10.7.8 3.2.4 6.4.4 9.6.9 2 .3 3.9.2 5.8.4l8.8.6 9.8.7c3.8.3 7.7.5 11.6 1 1.1.2 2.2.1 3.3.2.6 0 .6-.3.7-.7.1-1.8.4-3.6.9-5.3 1-3.3 1.4-6.7 2.3-10 .2-.5.2-1.2.3-1.7.4-1.3-.3-1.2-1.1-1.2Z" fill="#fff"/></svg>