<svg width="78" height="78" viewBox="0 0 78 78" fill="none" xmlns="http://www.w3.org/2000/svg">
<g clip-path="url(#clip0_2318_3138)">
<path d="M78 0H0V78H78V0Z" fill="url(#paint0_linear_2318_3138)"/>
<path d="M35.9307 55.0704C33.3534 54.5148 31.035 53.0239 29.3684 50.8502C27.7018 48.6766 26.7894 45.954 26.7858 43.1436V30.7697H23.0967V43.1436C23.1015 46.8627 24.3083 50.4658 26.5128 53.3431C28.7173 56.2205 31.784 58.1954 35.1942 58.9337C35.3164 58.9601 35.4408 58.9735 35.5656 58.9738C35.9966 58.9736 36.4144 58.8145 36.7485 58.5234C37.0184 58.2863 37.2197 57.9719 37.3288 57.6171C37.4379 57.2623 37.4503 56.8816 37.3645 56.5196C37.2788 56.1575 37.0984 55.829 36.8446 55.5724C36.5907 55.3158 36.2737 55.1417 35.9307 55.0704Z" fill="white"/>
<path d="M52.5164 30.7697V43.1436C52.5134 45.9521 51.6028 48.6733 49.9387 50.8466C48.2745 53.02 45.959 54.5121 43.384 55.0704C43.1415 55.1161 42.91 55.2132 42.7031 55.356C42.4963 55.4988 42.3183 55.6845 42.1796 55.902C42.0409 56.1195 41.9444 56.3645 41.8958 56.6225C41.8471 56.8806 41.8473 57.1464 41.8962 57.4044C41.9452 57.6623 42.042 57.9072 42.1809 58.1245C42.3198 58.3418 42.4981 58.5273 42.7051 58.6698C42.9121 58.8123 43.1437 58.9091 43.3863 58.9544C43.6289 58.9998 43.8775 58.9927 44.1175 58.9337C47.5282 58.1961 50.5956 56.2215 52.8007 53.344C55.0058 50.4666 56.213 46.8631 56.2181 43.1436V30.7697H52.5164Z" fill="#D03F2C"/>
<path d="M45.3157 20.8912H43.521V22.1022H45.6403V23.0397H42.3818V17.9821H45.6465V18.9229H43.521V19.9904H45.3157V20.8912Z" fill="url(#paint1_linear_2318_3138)"/>
<path d="M41.3615 18.2923H36.5175C36.4963 18.2919 36.4755 18.287 36.4561 18.2778C36.4367 18.2686 36.4193 18.2554 36.4047 18.239C36.3902 18.2225 36.3789 18.2031 36.3714 18.1819C36.364 18.1607 36.3606 18.1381 36.3615 18.1155C36.361 18.0932 36.3647 18.0709 36.3724 18.0501C36.38 18.0293 36.3914 18.0103 36.4059 17.9942C36.4203 17.9781 36.4377 17.9652 36.4568 17.9562C36.476 17.9473 36.4966 17.9425 36.5175 17.942H41.3521C41.3733 17.942 41.3943 17.9465 41.4138 17.9553C41.4333 17.964 41.451 17.9769 41.4658 17.993C41.4806 18.0092 41.4923 18.0283 41.5001 18.0494C41.5079 18.0704 41.5117 18.0929 41.5113 18.1155C41.5122 18.1599 41.4972 18.2029 41.4693 18.2358C41.4415 18.2687 41.4029 18.2889 41.3615 18.2923Z" fill="black"/>
<path d="M51.701 23.0797H46.7072C46.6676 23.0739 46.6314 23.0529 46.6051 23.0207C46.5789 22.9885 46.5645 22.9473 46.5645 22.9046C46.5645 22.8619 46.5789 22.8206 46.6051 22.7884C46.6314 22.7562 46.6676 22.7353 46.7072 22.7294H51.701C51.7406 22.7353 51.7768 22.7562 51.8031 22.7884C51.8293 22.8206 51.8438 22.8619 51.8438 22.9046C51.8438 22.9473 51.8293 22.9885 51.8031 23.0207C51.7768 23.0529 51.7406 23.0739 51.701 23.0797Z" fill="black"/>
<path d="M46.9583 23.7344C48.5842 21.9963 48.5842 19.1785 46.9583 17.4404C45.3323 15.7024 42.6961 15.7024 41.0701 17.4404C39.4441 19.1785 39.4441 21.9963 41.0701 23.7344C42.6961 25.4724 45.3323 25.4724 46.9583 23.7344Z" fill="#D03F2C"/>
<path d="M45.3157 20.8912H43.521V22.1022H45.6403V23.0397H42.3818V17.9821H45.6465V18.9229H43.521V19.9904H45.3157V20.8912Z" fill="url(#paint2_linear_2318_3138)"/>
<path d="M57.3313 23.7363C58.9573 21.9982 58.9573 19.1804 57.3313 17.4423C55.7053 15.7043 53.0691 15.7043 51.4431 17.4423C49.8171 19.1804 49.8171 21.9982 51.4431 23.7363C53.0691 25.4743 55.7053 25.4743 57.3313 23.7363Z" fill="white"/>
<path d="M55.6903 20.8912H53.8956V22.1022H56.0149V23.0397H52.7471V17.9821H56.0118V18.9229H53.8863V19.9904H55.6809L55.6903 20.8912Z" fill="url(#paint3_linear_2318_3138)"/>
<path d="M29.4795 20.5876C29.4795 19.7073 29.7238 18.8467 30.1814 18.1147C30.639 17.3828 31.2895 16.8123 32.0505 16.4756C32.8114 16.1389 33.6488 16.0509 34.4565 16.2229C35.2642 16.3949 36.0061 16.8191 36.5883 17.4418C37.1704 18.0646 37.5667 18.8579 37.727 19.7214C37.8873 20.5849 37.8044 21.4799 37.4888 22.2931C37.1732 23.1062 36.6391 23.801 35.954 24.2897C35.2689 24.7783 34.4636 25.0387 33.64 25.0381C33.0933 25.0381 32.5521 24.9229 32.0471 24.6993C31.5421 24.4756 31.0833 24.1477 30.697 23.7344C30.3106 23.3211 30.0042 22.8304 29.7953 22.2905C29.5864 21.7506 29.4791 21.1719 29.4795 20.5876Z" fill="black"/>
<path d="M33.8359 22.9229C33.5505 22.9351 33.2658 22.8868 32.9979 22.7809C32.7301 22.6749 32.4845 22.5135 32.2753 22.3057C32.0725 22.0967 31.9134 21.8442 31.8085 21.5647C31.7036 21.2852 31.6552 20.9852 31.6667 20.6843V20.5676C31.6594 20.1464 31.7416 19.7289 31.907 19.3465C32.0584 19.0055 32.3019 18.7208 32.6061 18.5291C32.938 18.3289 33.3144 18.2286 33.6954 18.2389C33.9554 18.2246 34.2152 18.2699 34.4574 18.3718C34.6997 18.4736 34.9187 18.6296 35.0999 18.8294C35.4629 19.2851 35.6463 19.8735 35.6118 20.4708V21.0179H33.0025C33.0384 21.2488 33.1488 21.4589 33.3146 21.6118C33.4906 21.7639 33.7129 21.8411 33.9389 21.8286C34.1241 21.8378 34.3087 21.8003 34.4778 21.7192C34.647 21.638 34.7959 21.5155 34.9127 21.3616L35.5119 22.1189C35.3339 22.3746 35.0945 22.5741 34.819 22.696C34.5104 22.8463 34.175 22.9237 33.8359 22.9229ZM33.6892 19.3498C33.3053 19.3498 33.0649 19.6201 33.0025 20.1639H34.3321V20.0571C34.3393 19.9626 34.3286 19.8676 34.3007 19.7776C34.2728 19.6876 34.2283 19.6046 34.1698 19.5333C34.1063 19.4683 34.0307 19.4183 33.9478 19.3867C33.865 19.3551 33.7769 19.3425 33.6892 19.3498Z" fill="white"/>
</g>
<defs>
<linearGradient id="paint0_linear_2318_3138" x1="39" y1="0" x2="39" y2="78" gradientUnits="userSpaceOnUse">
<stop stop-color="#FFC100"/>
<stop offset="1" stop-color="#FFA500"/>
</linearGradient>
<linearGradient id="paint1_linear_2318_3138" x1="44.0142" y1="17.9821" x2="44.0142" y2="23.0397" gradientUnits="userSpaceOnUse">
<stop stop-color="#FFC100"/>
<stop offset="1" stop-color="#FFA500"/>
</linearGradient>
<linearGradient id="paint2_linear_2318_3138" x1="44.0142" y1="17.9821" x2="44.0142" y2="23.0397" gradientUnits="userSpaceOnUse">
<stop stop-color="#FFC100"/>
<stop offset="1" stop-color="#FFA500"/>
</linearGradient>
<linearGradient id="paint3_linear_2318_3138" x1="54.381" y1="17.9821" x2="54.381" y2="23.0397" gradientUnits="userSpaceOnUse">
<stop stop-color="#FFC100"/>
<stop offset="1" stop-color="#FFA500"/>
</linearGradient>
<clipPath id="clip0_2318_3138">
<rect width="78" height="78" rx="39" fill="white"/>
</clipPath>
</defs>
</svg>
