<svg xmlns="http://www.w3.org/2000/svg" viewBox="0 0 98 98" xml:space="preserve"><path fill="#3E3E3C" d="M65.37 23.44a7.43 7.43 0 1 0-.02-14.87 7.43 7.43 0 0 0 .02 14.87zm0-12.25a4.82 4.82 0 1 1-.01 9.65 4.82 4.82 0 0 1 .01-9.64zm-17.8 20.16c-.86.4-1.66 1.32-2.55 2.39l-.24.29a330.1 330.1 0 0 0-5.28 6.38 439.63 439.63 0 0 1-3.05 3.72l-.27.32c-.1.12-.18.26-.23.42l-.13.4a4.89 4.89 0 0 0 2.52 5.95c1.17.56 3.55 1.07 6.24-1.9l6.62-7.62c-.3 1.78-.6 3.7-.74 5.67-.26 3.4-.18 6.86-.07 10.12l-.02.79c-.06 1.49-.11 3.02-.28 4.46L43.5 78a4.85 4.85 0 0 0-.05 3.75A4.85 4.85 0 0 0 48 84.83a4.86 4.86 0 0 0 4.46-2.88L60.3 66.2l.06-.15.05-.13c.33-.93.39-2.24.44-3.29l.03-.52.02-.37 11.57 8.44 2.5 6.59a4.9 4.9 0 0 0 6.3 2.84 4.86 4.86 0 0 0 2.85-6.3l-3.4-8.92c0-.03-.04-.1-.05-.13-.43-.89-2.84-3.26-7.18-7.05-4.05-3.54-6-5.02-7.02-5.65.02-2.92.13-6 .66-9.03.14-.84.3-1.6.49-2.28l.74.62a4.87 4.87 0 0 0 4.99.75l9.7-3.8c1.12-.44 2.24-.88 3.34-1.33a4.86 4.86 0 0 0 2.66-6.38 4.9 4.9 0 0 0-6.37-2.66c-.93.38-1.86.74-2.8 1.1l-7.5 2.94a81.52 81.52 0 0 0-4.47-3.54c-1.27-.92-2.8-1.9-4.58-2.32-3.29-.77-6.22.8-8.8 2.2l-.68.36c-1.83.97-4 2.1-6.28 3.16zm7.49-.86.69-.36c2.29-1.23 4.65-2.5 6.98-1.96 1.33.3 2.6 1.13 3.65 1.9 1.48 1.06 2.95 2.28 4.37 3.46l.55.46c.37.3.87.39 1.31.21L80.82 31c.95-.37 1.9-.74 2.84-1.13a2.28 2.28 0 0 1 1.73 4.22c-1.1.45-2.2.88-3.3 1.31l-9.73 3.81c-.79.33-1.69.2-2.34-.34l-2.22-1.84a1.3 1.3 0 0 0-2.05.52c-.49 1.26-.88 2.75-1.2 4.54-.61 3.5-.7 7-.7 10.26v.02l.02.17.01.08.06.2.02.04.11.21.05.06.1.13.07.06.12.1.09.05.12.06.11.04.09.04c1.6.76 12.46 10.24 13.48 11.76l3.37 8.87a2.27 2.27 0 0 1-1.33 2.94 2.29 2.29 0 0 1-2.94-1.33l-2.64-6.95a1.3 1.3 0 0 0-.45-.59l-13.68-9.98a1.3 1.3 0 0 0-1.1-.2h-.02l-.2.08-.04.02a1.26 1.26 0 0 0-.42.34l-.04.05-.03.05a1.21 1.21 0 0 0-.13.24l-.02.06c-.17.5-.28 1.38-.36 3.02l-.03.52c-.04.79-.1 1.98-.3 2.56L50.1 80.85a2.3 2.3 0 0 1-4.2-1.82l6.66-15.43c.04-.11.08-.23.1-.35.2-1.6.26-3.27.31-4.88l.03-.83v-.1c-.1-3.2-.19-6.6.06-9.88.18-2.39.6-4.8.97-6.9l.06-.4c.1-.57.22-1.15.34-1.72a1.3 1.3 0 0 0-1.96-1.39l-1.64 1.02a1.3 1.3 0 0 0-.33.3l-.2.26-.25.31-7.43 8.58c-1.75 1.92-2.8 1.41-3.16 1.25a2.28 2.28 0 0 1-1.17-2.78l.05-.16.11-.13c1.04-1.24 2.05-2.5 3.07-3.74l2.1-2.57c1.04-1.27 2.09-2.53 3.15-3.77l.26-.32c.34-.4 1.25-1.5 1.64-1.69 2.32-1.08 4.53-2.23 6.39-3.21zm-38.42 49c0-.72.58-1.3 1.3-1.3h20.28a1.3 1.3 0 1 1 0 2.6H17.94a1.3 1.3 0 0 1-1.3-1.3zm25.39-8.8H27.78a1.3 1.3 0 1 1 0-2.6h14.25a1.3 1.3 0 1 1 0 2.6zM16.64 58h20.97a1.3 1.3 0 1 1 0 2.6H16.64a1.3 1.3 0 1 1 0-2.6zm-8.05-8.8c0-.73.58-1.31 1.3-1.31h18.3a1.3 1.3 0 1 1 0 2.6H9.9a1.3 1.3 0 0 1-1.3-1.3zm4.96-11.42h20.4a1.3 1.3 0 1 1 0 2.61h-20.4a1.3 1.3 0 1 1 0-2.6zm30.06-10.1a1.3 1.3 0 1 1 0 2.6H25.4a1.3 1.3 0 1 1 0-2.6h18.21zm2.85-7.5h-26.7a1.3 1.3 0 1 1 0-2.6h26.7a1.3 1.3 0 1 1 0 2.6zm42.7 67.94c0 .72-.58 1.3-1.3 1.3H9.89a1.3 1.3 0 1 1 0-2.6h77.97c.72 0 1.3.58 1.3 1.3zM30.94 9.89c0-.72.58-1.3 1.3-1.3H51.5a1.3 1.3 0 1 1 0 2.6H32.24a1.3 1.3 0 0 1-1.3-1.3zm-17.5 68.3a1.3 1.3 0 1 1 0 2.6h-1.56a1.3 1.3 0 1 1 0-2.6h1.56zm2.79-10.1h6.1a1.3 1.3 0 1 1 0 2.6h-6.1a1.3 1.3 0 1 1 0-2.6zm26.14-7.5a1.3 1.3 0 1 1 0-2.6h1.56a1.3 1.3 0 1 1 0 2.6h-1.56zm-10.84-11.4c0-.73.58-1.31 1.3-1.31s1.31.58 1.31 1.3-.58 1.3-1.3 1.3h-.01a1.3 1.3 0 0 1-1.3-1.3zm-15.8-21.52h5.07a1.3 1.3 0 1 1 0 2.6h-5.07a1.3 1.3 0 1 1 0-2.6zm35.68-10.1h1.56a1.3 1.3 0 1 1 0 2.6H51.4a1.3 1.3 0 1 1 0-2.6zM8.6 9.88c0-.72.58-1.3 1.3-1.3h16.88a1.3 1.3 0 1 1 0 2.6H9.9a1.3 1.3 0 0 1-1.3-1.3z"/></svg>