<svg xmlns="http://www.w3.org/2000/svg" viewBox="0 0 90 90" xml:space="preserve"><path fill-rule="evenodd" fill="#3E3E3C" clip-rule="evenodd" d="M48.73 19.02a1.13 1.13 0 0 0-.68 2 23.47 23.47 0 0 1 5.17 6.66c1.85 3.62 3.36 7.87 2.16 12.32-.37 1.36-.9 1.99-1.47 2.91a5.73 5.73 0 0 0-.75 4.02c.45 3.01 2.08 4.86 3.14 7.4.31.75-.01 1.13-.47 1.17l-3.63.35c-1.32.12-2 1.02-1.95 2.13l.13 3.03c.02.5 0 .74-.7.56a1.13 1.13 0 0 0-1.39 1.38c.23.84.21 1.07.14 1.23s-.4.54-1.28 1.21c-1.32.9.16 2.83 1.37 1.8.94-.71 1.61-1.24 1.99-2.1.2-.48.03-1.02-.02-1.52 1.56.14 2.24-.9 2.16-2.66l-.13-2.81 3.52-.34a2.9 2.9 0 0 0 2.34-1.63c.4-.85.39-1.85-.01-2.73-1.26-2.8-2.62-4.44-2.98-6.81-.2-1.39.01-1.77.45-2.5.45-.73 1.26-1.75 1.73-3.5 1.43-5.26-.38-10.12-2.34-13.94a25.68 25.68 0 0 0-5.67-7.33 1.13 1.13 0 0 0-.83-.3z"/><path fill-rule="evenodd" fill="#3E3E3C" clip-rule="evenodd" d="M33.33 13.06a24.74 24.74 0 0 0-17.78 7.26c-7.9 7.92-9.81 20-3.94 29.9a6.93 6.93 0 0 1 1 5.42c-.37 1.75-1.32 3.66-2.33 5.93a4.72 4.72 0 0 0-.22 3.3 8.41 8.41 0 0 0 2.01 3.2c3.92 4.24 11.4 8.33 17.62 9.18 1.15.15 2.28.05 3.26-.5s1.73-1.48 2.27-2.7c.56-1.26 1.02-2.13 1.43-2.47.42-.35.87-.5 2.28-.1.98.28 2 .63 3.05.78.96.15 2 .12 2.97-.35.45.22.92.37 1.4.41 1.6.15 3.09-.43 4.54-.84 1.4-.4 1.85-.25 2.27.1.42.34.87 1.2 1.43 2.46a5.51 5.51 0 0 0 2.27 2.71c.98.55 2.11.65 3.26.5 6.22-.85 13.7-4.94 17.62-9.19a8.42 8.42 0 0 0 2-3.2c.34-1.1.26-2.25-.2-3.3-1.02-2.26-1.97-4.17-2.33-5.92a6.92 6.92 0 0 1 .99-5.41c5.87-9.92 3.97-22-3.94-29.91a24.78 24.78 0 0 0-29.35-4.24 24.9 24.9 0 0 0-7.1-2.56 24.91 24.91 0 0 0-4.48-.46zm-.02 2.27a22.51 22.51 0 0 1 9.3 2.13 25.36 25.36 0 0 0-8.03 9.19c-1.96 3.81-3.77 8.68-2.34 13.94.47 1.75 1.28 2.76 1.72 3.5.45.72.66 1.11.45 2.5-.35 2.37-1.71 4-2.97 6.8-.4.89-.41 1.89-.02 2.74a2.9 2.9 0 0 0 2.34 1.63l3.52.34-.12 2.8c-.09 2 .78 3.06 2.68 2.61-.08.33-.23.61-.22 1 .02.96.63 1.9 1.66 2.68.91.7.68.62 1.06 1.6.18.48.4.9.64 1.28-.2 0-.42-.01-.67-.05-.78-.12-1.72-.42-2.76-.72-1.79-.51-3.3-.32-4.34.53-1.03.85-1.5 2.02-2.07 3.29-.4.93-.84 1.4-1.3 1.65-.45.25-1.01.34-1.85.23-5.46-.74-12.86-4.78-16.26-8.48a6.32 6.32 0 0 1-1.5-2.31 2.24 2.24 0 0 1 .12-1.72c.98-2.2 2.02-4.22 2.47-6.4a9.52 9.52 0 0 0-1.25-7.02c-5.36-9.04-3.64-19.92 3.58-27.15a22.49 22.49 0 0 1 16.16-6.6zm23.2 0c5.9-.06 11.75 2.2 16.14 6.59 7.23 7.23 8.95 18.11 3.6 27.15a9.52 9.52 0 0 0-1.27 7.03c.46 2.17 1.5 4.18 2.48 6.39.27.6.3 1.09.1 1.72a6.35 6.35 0 0 1-1.48 2.32c-3.4 3.69-10.8 7.73-16.27 8.47-.83.12-1.4.02-1.85-.23-.45-.25-.89-.72-1.3-1.65-.56-1.27-1.03-2.44-2.06-3.3s-2.56-1.03-4.34-.52c-1.52.44-2.85.84-3.71.76s-1.42-.34-2.09-2.07c-.32-.83-.63-1.7-1.8-2.6-.78-.6-.77-.72-.78-.93s.2-.81.46-1.8a1.13 1.13 0 0 0-1.66-1.27c-.9.52-1.29.33-1.25-.38l.13-3.03c.03-.68-.3-1.41-.79-1.75-.49-.34-.93-.36-1.17-.38l-3.62-.35c-.7-.07-.67-.65-.47-1.17.97-2.57 2.68-4.39 3.14-7.4a5.73 5.73 0 0 0-.75-4.02c-.57-.92-1.1-1.55-1.47-2.91-1.2-4.45.3-8.7 2.16-12.32 2.33-3.68 5.33-7.44 8.88-9.33 1.7-.9 3.52-1.7 5.17-2.18a22.3 22.3 0 0 1 5.86-.84z"/></svg>