<svg xmlns="http://www.w3.org/2000/svg" viewBox="0 0 500 500"><path fill="#3E3E3C" d="M385.11 184.65c-13.7-49.84-39.45-82.08-76.54-95.82-49.87-18.48-106.39 2.76-125.95 15.94-58.32 39.3-63.25 92.09-63.44 94.32-.07.8.11 1.6.51 2.3l13.03 22.91-19.65 66.54a16.15 16.15 0 0 0-.89 4.18c-.34 4.53.78 8.3 3.35 11.21 5.27 5.95 14.97 6.4 22.77 6.76l2.39.12 15.25 43.02a27.44 27.44 0 0 0 29.39 18.17c7.98-.99 16.05-2.19 24.06-3.59v43.59a4 4 0 1 0 8 0v-44.93c10.75-1.72 43.53-7.9 62.78-21.57a4 4 0 0 0-4.63-6.53c-21.16 15.02-62.27 20.62-62.68 20.68l-.1.02h-.1c-9.4 1.73-18.92 3.2-28.31 4.36a19.47 19.47 0 0 1-20.87-12.9l-16.12-45.49a4 4 0 0 0-3.38-2.64c-1.62-.16-3.41-.24-5.31-.33-5.96-.28-14.13-.66-17.15-4.07-1.09-1.24-1.54-2.97-1.36-5.3a7.89 7.89 0 0 1 .55-2.39l20.17-68.29a3.98 3.98 0 0 0-.36-3.11l-13.22-23.25c1.06-7.8 9.29-53.14 59.79-87.18C205.54 98.95 258.83 78.9 305.8 96.3c34.53 12.79 58.62 43.22 71.6 90.44 7.99 29.05-2.74 58.25-31.87 86.78-28.58 27.98-29.08 52.96-29.09 54.03v71.09a4 4 0 1 0 8 0v-71.05c0-.06.13-5.75 3.46-14.49 3.08-8.09 9.61-20.54 23.22-33.87 21.56-21.12 44.97-54.67 33.99-94.61ZM320.44 410.29a4 4 0 1 0 0 8 4 4 0 0 0 0-8Z"/><path fill="#3E3E3C" d="m261.87 116.43-.79-.04h-2.2l-.18.02c-43.34.69-78.39 36.14-78.39 79.63s34.72 78.61 77.78 79.62l.79.04 1.1.01 1.1-.01.18-.02c43.34-.69 78.39-36.13 78.39-79.63s-34.72-78.61-77.78-79.62Zm-73.55 79.62a71.75 71.75 0 0 1 71.67-71.67c.53 0 1.05.03 1.58.04 8.77.4 16.9 4.1 22.97 10.48a33.59 33.59 0 0 1 9.3 24.17 33.63 33.63 0 0 1-33.82 32.98h-.06a41.56 41.56 0 0 0-29.56 12.23 41.52 41.52 0 0 0-12.27 29.57c0 9.72 3.22 18.61 8.68 25.69a71.72 71.72 0 0 1-38.49-63.49Zm71.67 71.67c-.52 0-1.04-.03-1.56-.04a33.62 33.62 0 0 1-32.3-33.82c0-9.04 3.53-17.53 9.93-23.92a33.62 33.62 0 0 1 23.91-9.89h.06a41.59 41.59 0 0 0 41.82-40.78 41.52 41.52 0 0 0-8.84-26.8 71.71 71.71 0 0 1 38.66 63.58A71.75 71.75 0 0 1 260 267.72Z"/><path fill="#3E3E3C" d="M258.36 176.8c8.75 0 15.88-7.12 15.88-15.88s-7.12-15.88-15.88-15.88-15.88 7.12-15.88 15.88 7.12 15.88 15.88 15.88Zm0-23.75a7.89 7.89 0 1 1-.02 15.78 7.89 7.89 0 0 1 .02-15.78ZM258.36 218.01c-8.75 0-15.88 7.12-15.88 15.88s7.12 15.88 15.88 15.88 15.88-7.12 15.88-15.88-7.12-15.88-15.88-15.88Zm0 23.75a7.89 7.89 0 1 1 .02-15.78 7.89 7.89 0 0 1-.02 15.78Z"/></svg>