<svg width="140" height="141" viewBox="0 0 140 141" fill="none" xmlns="http://www.w3.org/2000/svg">
<rect x="10" y="10.75" width="120" height="120" rx="30" fill="#D03F2C"/>
<path d="M120 58.3259C120.002 56.7692 119.645 55.2396 118.964 53.8926C118.284 52.5457 117.304 51.4294 116.126 50.6574L74.0061 21.9902C72.7922 21.178 71.412 20.75 70.0067 20.75C68.6013 20.75 67.2211 21.178 66.0072 21.9902L23.8253 50.6574C22.6597 51.4506 21.6941 52.578 21.0234 53.9288C20.3527 55.2796 20 56.8073 20 58.3617C20 59.9162 20.3527 61.4438 21.0234 62.7946C21.6941 64.1454 22.6597 65.2728 23.8253 66.066L35.8237 74.0928V94.2316C35.8309 95.8055 36.1911 97.3508 36.8697 98.7189C37.5482 100.087 38.5223 101.232 39.6982 102.043L66.2572 119.602C67.443 120.355 68.7762 120.75 70.1316 120.75C71.4871 120.75 72.8203 120.355 74.0061 119.602L100.565 102.043C101.741 101.232 102.715 100.087 103.394 98.7189C104.072 97.3508 104.432 95.8055 104.44 94.2316V73.8778L112.189 68.6461V88.1398H120V58.3259ZM96.6906 94.1599L70.0067 111.79L43.6352 94.2316V79.3963L66.0072 94.6616C67.2252 95.4598 68.6038 95.8796 70.0067 95.8796C71.4095 95.8796 72.7881 95.4598 74.0061 94.6616L96.6281 79.1813L96.6906 94.1599ZM70.0067 86.9214L27.8248 58.2542L70.0067 29.5154L112.189 58.1826L70.0067 86.9214Z" fill="white" stroke="white"/>
<rect x="10" y="10.75" width="120" height="120" rx="30" stroke="#D03F2C" stroke-width="20"/>
</svg>
