<svg width="140" height="141" viewBox="0 0 140 141" fill="none" xmlns="http://www.w3.org/2000/svg">
<rect x="10" y="10.75" width="120" height="120" rx="30" fill="#D03F2C"/>
<path d="M70 76.2347C65.5797 76.2347 61.3405 77.9626 58.2149 81.0383C55.0893 84.114 53.3333 88.2855 53.3333 92.6351C53.3333 96.9847 55.0893 101.156 58.2149 104.232C61.3405 107.308 65.5797 109.035 70 109.035C74.4203 109.035 78.6595 107.308 81.7851 104.232C84.9107 101.156 86.6667 96.9847 86.6667 92.6351C86.6667 88.2855 84.9107 84.114 81.7851 81.0383C78.6595 77.9626 74.4203 76.2347 70 76.2347ZM62.8571 92.6351C62.8571 90.771 63.6097 88.9832 64.9492 87.665C66.2888 86.3469 68.1056 85.6064 70 85.6064C71.8944 85.6064 73.7112 86.3469 75.0508 87.665C76.3903 88.9832 77.1429 90.771 77.1429 92.6351C77.1429 94.4992 76.3903 96.287 75.0508 97.6052C73.7112 98.9233 71.8944 99.6638 70 99.6638C68.1056 99.6638 66.2888 98.9233 64.9492 97.6052C63.6097 96.287 62.8571 94.4992 62.8571 92.6351Z" fill="white"/>
<path d="M96.3143 41.6347L81.1762 20.75L25.5143 64.5061L22.4286 64.4734V64.5202H20V120.75H120V64.5202H115.419L106.305 38.2843L96.3143 41.6347ZM105.357 64.5202H57.6048L93.1714 52.5901L100.419 50.3081L105.357 64.5202ZM86.9048 44.7929L50.1905 57.1073L79.2667 34.2498L86.9048 44.7929ZM29.5238 102.799V82.4622C31.5328 81.7617 33.3577 80.6287 34.8652 79.1461C36.3728 77.6634 37.5251 75.8684 38.2381 73.8918H101.762C102.475 75.8691 103.627 77.6649 105.134 79.1484C106.642 80.6318 108.467 81.7656 110.476 82.4669V102.803C108.467 103.505 106.642 104.638 105.134 106.122C103.627 107.605 102.475 109.401 101.762 111.378H38.2476C37.5342 109.399 36.3808 107.602 34.8715 106.118C33.3623 104.634 31.5352 103.5 29.5238 102.799Z" fill="white"/>
<rect x="10" y="10.75" width="120" height="120" rx="30" stroke="#D03F2C" stroke-width="20"/>
</svg>
