<svg width="140" height="141" viewBox="0 0 140 141" fill="none" xmlns="http://www.w3.org/2000/svg">
<rect x="10" y="10.75" width="120" height="120" rx="30" fill="#D03F2C"/>
<path d="M29.5238 70.75C29.5129 60.894 32.9678 51.3808 39.226 44.0349C45.4841 36.6891 54.1049 32.0278 63.4347 30.9453C72.7646 29.8627 82.1466 32.435 89.7814 38.1689C97.4161 43.9027 102.766 52.3943 104.805 62.015C107.467 63.1443 109.806 64.9755 111.597 67.3316C113.388 69.6877 114.57 72.4891 115.029 75.465C115.171 73.915 115.238 72.34 115.238 70.75C115.238 43.135 93.9191 20.75 67.6191 20.75C41.3191 20.75 20 43.135 20 70.75C19.9922 77.3097 21.2173 83.8066 23.6049 89.8683C25.9926 95.93 29.496 101.437 33.9143 106.075C34.8066 107.014 36.0175 107.542 37.2807 107.544C38.5439 107.545 39.7559 107.019 40.65 106.082C41.5442 105.146 42.0473 103.874 42.0486 102.548C42.05 101.221 41.5494 99.9489 40.6572 99.01C37.121 95.301 34.3172 90.8953 32.4066 86.0457C30.4961 81.1961 29.5164 75.9981 29.5238 70.75ZM94.7143 61.22C93.3435 56.9332 91.0676 53.0273 88.0566 49.7943C85.0456 46.5612 81.3775 44.0847 77.3266 42.5498C73.2756 41.015 68.9467 40.4615 64.6633 40.9309C60.38 41.4002 56.2531 42.8802 52.5912 45.2602C48.9294 47.6402 45.8273 50.8585 43.5169 54.6747C41.2065 58.4908 39.7476 62.806 39.2493 67.2976C38.751 71.7891 39.2262 76.3409 40.6392 80.6124C42.0523 84.884 44.3668 88.7649 47.4095 91.965C47.852 92.4299 48.3773 92.7987 48.9555 93.0504C49.5336 93.3021 50.1534 93.4318 50.7793 93.432C51.4052 93.4323 52.025 93.3031 52.6034 93.0518C53.1817 92.8005 53.7073 92.4321 54.15 91.9675C54.5928 91.5029 54.944 90.9514 55.1838 90.3443C55.4235 89.7372 55.547 89.0865 55.5472 88.4293C55.5474 87.7721 55.4244 87.1212 55.185 86.514C54.9457 85.9067 54.5948 85.3549 54.1524 84.89C52.0604 82.6924 50.4848 80.0133 49.5506 77.0651C48.6164 74.1169 48.3492 70.9806 48.7703 67.9051C49.1914 64.8296 50.2891 61.8994 51.9764 59.3469C53.6637 56.7944 55.8943 54.6898 58.4911 53.2C61.0879 51.7101 63.9796 50.8761 66.9369 50.764C69.8941 50.6519 72.8356 51.2648 75.5279 52.5541C78.2203 53.8434 80.5896 55.7737 82.4478 58.1918C84.306 60.6099 85.6022 63.4494 86.2333 66.485C88.4911 63.8711 91.4445 62.0357 94.7143 61.22ZM58.0953 70.75C58.0953 68.0978 59.0987 65.5543 60.8847 63.6789C62.6708 61.8036 65.0932 60.75 67.6191 60.75C70.1449 60.75 72.5673 61.8036 74.3534 63.6789C76.1395 65.5543 77.1429 68.0978 77.1429 70.75C77.1429 73.4022 76.1395 75.9457 74.3534 77.8211C72.5673 79.6964 70.1449 80.75 67.6191 80.75C65.0932 80.75 62.6708 79.6964 60.8847 77.8211C59.0987 75.9457 58.0953 73.4022 58.0953 70.75ZM110.476 78.25C110.476 81.5652 109.222 84.7446 106.989 87.0888C104.757 89.433 101.729 90.75 98.5714 90.75C95.4141 90.75 92.3861 89.433 90.1535 87.0888C87.9209 84.7446 86.6667 81.5652 86.6667 78.25C86.6667 74.9348 87.9209 71.7554 90.1535 69.4112C92.3861 67.067 95.4141 65.75 98.5714 65.75C101.729 65.75 104.757 67.067 106.989 69.4112C109.222 71.7554 110.476 74.9348 110.476 78.25ZM120 105.125C120 112.905 113.876 120.75 98.5714 120.75C83.2667 120.75 77.1429 112.935 77.1429 105.125V104.61C77.1429 99.71 80.9238 95.75 85.5857 95.75H111.557C116.224 95.75 120 99.715 120 104.61V105.125Z" fill="white"/>
<rect x="10" y="10.75" width="120" height="120" rx="30" stroke="#D03F2C" stroke-width="20"/>
</svg>
