<svg width="140" height="141" viewBox="0 0 140 141" fill="none" xmlns="http://www.w3.org/2000/svg">
<rect x="10" y="10.75" width="120" height="120" rx="30" fill="#D03F2C"/>
<path d="M65.6672 85.3818C57.6394 84.2935 50.3244 80.1972 45.2016 73.9214C40.0787 67.6456 37.5302 59.6585 38.0715 51.5754C38.6127 43.4923 42.2033 35.9163 48.1172 30.3795C54.031 24.8428 61.8268 21.7583 69.928 21.75C78.0391 21.7422 85.8497 24.819 91.7763 30.3567C97.7029 35.8943 101.302 43.4784 101.844 51.5714C102.386 59.6644 99.8301 67.6607 94.6947 73.9391C89.5593 80.2175 82.2286 84.3082 74.1889 85.3818V94.1848H95.4932V102.707H74.1889V119.75H65.6672V102.707H44.3628V94.1848H65.6672V85.3818ZM69.928 77.1413C76.1433 77.1413 82.104 74.6723 86.4989 70.2774C90.8938 65.8825 93.3628 59.9218 93.3628 53.7065C93.3628 47.4912 90.8938 41.5305 86.4989 37.1356C82.104 32.7408 76.1433 30.2718 69.928 30.2718C63.7127 30.2718 57.752 32.7408 53.3571 37.1356C48.9623 41.5305 46.4933 47.4912 46.4933 53.7065C46.4933 59.9218 48.9623 65.8825 53.3571 70.2774C57.752 74.6723 63.7127 77.1413 69.928 77.1413Z" fill="white" stroke="white"/>
<rect x="10" y="10.75" width="120" height="120" rx="30" stroke="#D03F2C" stroke-width="20"/>
</svg>
