<svg width="140" height="141" viewBox="0 0 140 141" fill="none" xmlns="http://www.w3.org/2000/svg">
<rect x="10" y="10.75" width="120" height="120" rx="30" fill="#D03F2C"/>
<path d="M93.2105 31.55C91.8426 31.55 90.5306 31.0338 89.5633 30.1148C88.596 29.1959 88.0526 27.9496 88.0526 26.65C88.0526 25.3504 88.596 24.1041 89.5633 23.1852C90.5306 22.2662 91.8426 21.75 93.2105 21.75H113.842C115.21 21.75 116.522 22.2662 117.489 23.1852C118.457 24.1041 119 25.3504 119 26.65V46.25C119 47.5496 118.457 48.7959 117.489 49.7148C116.522 50.6338 115.21 51.15 113.842 51.15C112.474 51.15 111.162 50.6338 110.195 49.7148C109.228 48.7959 108.684 47.5496 108.684 46.25V38.4786L78.8045 66.8643C77.8373 67.7829 76.5256 68.299 75.1579 68.299C73.7902 68.299 72.4785 67.7829 71.5113 66.8643L57.1053 53.1786L29.8045 79.1143C28.8317 80.0069 27.5288 80.5008 26.1765 80.4896C24.8241 80.4784 23.5304 79.9631 22.5741 79.0546C21.6178 78.1461 21.0753 76.9171 21.0636 75.6324C21.0518 74.3476 21.5717 73.1099 22.5113 72.1857L53.4586 42.7857C54.4259 41.8671 55.7376 41.351 57.1053 41.351C58.473 41.351 59.7846 41.8671 60.7519 42.7857L75.1579 56.4714L101.391 31.55H93.2105ZM31.3158 100.15V114.85C31.3158 116.15 30.7724 117.396 29.8051 118.315C28.8378 119.234 27.5259 119.75 26.1579 119.75C24.7899 119.75 23.478 119.234 22.5107 118.315C21.5434 117.396 21 116.15 21 114.85V100.15C21 98.8504 21.5434 97.6041 22.5107 96.6852C23.478 95.7663 24.7899 95.25 26.1579 95.25C27.5259 95.25 28.8378 95.7663 29.8051 96.6852C30.7724 97.6041 31.3158 98.8504 31.3158 100.15ZM57.1053 80.55C57.1053 79.2504 56.5618 78.0041 55.5946 77.0852C54.6273 76.1663 53.3153 75.65 51.9474 75.65C50.5794 75.65 49.2675 76.1663 48.3002 77.0852C47.3329 78.0041 46.7895 79.2504 46.7895 80.55V114.85C46.7895 116.15 47.3329 117.396 48.3002 118.315C49.2675 119.234 50.5794 119.75 51.9474 119.75C53.3153 119.75 54.6273 119.234 55.5946 118.315C56.5618 117.396 57.1053 116.15 57.1053 114.85V80.55ZM77.7368 85.45C79.1048 85.45 80.4167 85.9663 81.384 86.8852C82.3513 87.8041 82.8947 89.0504 82.8947 90.35V114.85C82.8947 116.15 82.3513 117.396 81.384 118.315C80.4167 119.234 79.1048 119.75 77.7368 119.75C76.3689 119.75 75.057 119.234 74.0897 118.315C73.1224 117.396 72.5789 116.15 72.5789 114.85V90.35C72.5789 89.0504 73.1224 87.8041 74.0897 86.8852C75.057 85.9663 76.3689 85.45 77.7368 85.45ZM108.684 65.85C108.684 64.5504 108.141 63.3041 107.174 62.3852C106.206 61.4663 104.894 60.95 103.526 60.95C102.158 60.95 100.846 61.4663 99.8791 62.3852C98.9118 63.3041 98.3684 64.5504 98.3684 65.85V114.85C98.3684 116.15 98.9118 117.396 99.8791 118.315C100.846 119.234 102.158 119.75 103.526 119.75C104.894 119.75 106.206 119.234 107.174 118.315C108.141 117.396 108.684 116.15 108.684 114.85V65.85Z" fill="white" stroke="white"/>
<rect x="10" y="10.75" width="120" height="120" rx="30" stroke="#D03F2C" stroke-width="20"/>
</svg>
