<svg width="80" height="80" viewBox="0 0 80 80" fill="none" xmlns="http://www.w3.org/2000/svg">
<rect width="80" height="80" rx="40" fill="black"/>
<path d="M56.2941 62.5C55.2647 62.5 54.3893 62.135 53.6679 61.405C52.9465 60.675 52.5866 59.79 52.5882 58.75C52.5882 57.7083 52.9489 56.8225 53.6703 56.0925C54.3918 55.3625 55.2663 54.9983 56.2941 55C57.3235 55 58.1989 55.365 58.9203 56.095C59.6418 56.825 60.0016 57.71 60 58.75C60 59.7917 59.6393 60.6775 58.9179 61.4075C58.1965 62.1375 57.3219 62.5017 56.2941 62.5ZM32.8235 65C28.7059 65 25.2059 64.51 22.3235 63.53C19.4412 62.55 18 61.3733 18 60C18 59.0417 18.6794 58.1875 20.0382 57.4375C21.3971 56.6875 23.1882 56.0833 25.4118 55.625V60H30.3529V15L50.1176 24.75L35.2941 32.5V55.125C38.8353 55.3333 41.7794 55.8858 44.1265 56.7825C46.4735 57.6792 47.6471 58.7517 47.6471 60C47.6471 61.375 46.2059 62.5525 43.3235 63.5325C40.4412 64.5125 36.9412 65.0017 32.8235 65Z" fill="#D03F2C"/>
<g style="mix-blend-mode:hard-light">
<path d="M63.2941 62.5C62.2647 62.5 61.3893 62.135 60.6679 61.405C59.9465 60.675 59.5866 59.79 59.5882 58.75C59.5882 57.7083 59.9489 56.8225 60.6703 56.0925C61.3918 55.3625 62.2663 54.9983 63.2941 55C64.3235 55 65.1989 55.365 65.9203 56.095C66.6418 56.825 67.0016 57.71 67 58.75C67 59.7917 66.6393 60.6775 65.9179 61.4075C65.1965 62.1375 64.3219 62.5017 63.2941 62.5ZM39.8235 65C35.7059 65 32.2059 64.51 29.3235 63.53C26.4412 62.55 25 61.3733 25 60C25 59.0417 25.6794 58.1875 27.0382 57.4375C28.3971 56.6875 30.1882 56.0833 32.4118 55.625V60H37.3529V15L57.1176 24.75L42.2941 32.5V55.125C45.8353 55.3333 48.7794 55.8858 51.1265 56.7825C53.4735 57.6792 54.6471 58.7517 54.6471 60C54.6471 61.375 53.2059 62.5525 50.3235 63.5325C47.4412 64.5125 43.9412 65.0017 39.8235 65Z" fill="#D03F2C"/>
</g>
<path d="M60.2059 62.5C59.152 62.5 58.2557 62.135 57.5171 61.405C56.7785 60.675 56.4101 59.79 56.4118 58.75C56.4118 57.7083 56.7811 56.8225 57.5196 56.0925C58.2582 55.3625 59.1536 54.9983 60.2059 55C61.2598 55 62.1561 55.365 62.8946 56.095C63.6332 56.825 64.0017 57.71 64 58.75C64 59.7917 63.6307 60.6775 62.8921 61.4075C62.1535 62.1375 61.2581 62.5017 60.2059 62.5ZM36.1765 65C31.9608 65 28.3774 64.51 25.4265 63.53C22.4755 62.55 21 61.3733 21 60C21 59.0417 21.6956 58.1875 23.0868 57.4375C24.4779 56.6875 26.3118 56.0833 28.5882 55.625V60H33.6471V15L53.8823 24.75L38.7059 32.5V55.125C42.3314 55.3333 45.3456 55.8858 47.7485 56.7825C50.1515 57.6792 51.3529 58.7517 51.3529 60C51.3529 61.375 49.8774 62.5525 46.9265 63.5325C43.9755 64.5125 40.3922 65.0017 36.1765 65Z" fill="url(#paint0_linear_2344_10523)"/>
<defs>
<linearGradient id="paint0_linear_2344_10523" x1="42.5" y1="15" x2="42.5" y2="65" gradientUnits="userSpaceOnUse">
<stop stop-color="#FFC100"/>
<stop offset="1" stop-color="#FFA500"/>
</linearGradient>
</defs>
</svg>
