<svg width="80" height="80" viewBox="0 0 80 80" fill="none" xmlns="http://www.w3.org/2000/svg">
<rect width="80" height="80" rx="40" fill="black"/>
<g style="mix-blend-mode:hard-light">
<path d="M61.4396 23.7046V56.1969C61.4396 56.6278 61.268 57.041 60.9625 57.3457C60.6569 57.6503 60.2426 57.8215 59.8105 57.8215H32.116C31.2518 57.8215 30.4231 58.1638 29.8121 58.7732C29.2011 59.3825 28.8578 60.209 28.8578 61.0707H56.5523C56.9844 61.0707 57.3988 61.2419 57.7043 61.5466C58.0098 61.8512 58.1814 62.2645 58.1814 62.6953C58.1814 63.1262 58.0098 63.5394 57.7043 63.8441C57.3988 64.1488 56.9844 64.32 56.5523 64.32H27.2287C26.7966 64.32 26.3823 64.1488 26.0768 63.8441C25.7712 63.5394 25.5996 63.1262 25.5996 62.6953V28.5784C25.5996 26.8549 26.2862 25.202 27.5082 23.9833C28.7303 22.7646 30.3877 22.08 32.116 22.08H59.8105C60.2426 22.08 60.6569 22.2511 60.9625 22.5558C61.268 22.8605 61.4396 23.2737 61.4396 23.7046Z" fill="#D03F2C"/>
</g>
<path d="M57.5998 20.197V52.9354C57.5998 53.3696 57.4281 53.7859 57.1226 54.0929C56.8171 54.3999 56.4027 54.5724 55.9707 54.5724H28.2761C27.412 54.5724 26.5833 54.9173 25.9722 55.5313C25.3612 56.1452 25.0179 56.9779 25.0179 57.8462H52.7125C53.1446 57.8462 53.5589 58.0187 53.8644 58.3257C54.1699 58.6326 54.3416 59.049 54.3416 59.4831C54.3416 59.9173 54.1699 60.3336 53.8644 60.6406C53.5589 60.9476 53.1446 61.1201 52.7125 61.1201H23.3889C22.9568 61.1201 22.5424 60.9476 22.2369 60.6406C21.9314 60.3336 21.7598 59.9173 21.7598 59.4831V25.1078C21.7598 23.3712 22.4463 21.7058 23.6684 20.4778C24.8904 19.2499 26.5479 18.5601 28.2761 18.5601H55.9707C56.4027 18.5601 56.8171 18.7325 57.1226 19.0395C57.4281 19.3465 57.5998 19.7628 57.5998 20.197Z" fill="#D03F2C"/>
<path d="M54.0802 17.3047V49.797C54.0802 50.2279 53.9086 50.6411 53.6031 50.9458C53.2976 51.2504 52.8832 51.4216 52.4511 51.4216H24.7566C23.8925 51.4216 23.0637 51.7639 22.4527 52.3733C21.8417 52.9826 21.4984 53.8091 21.4984 54.6708H49.193C49.625 54.6708 50.0394 54.842 50.3449 55.1467C50.6504 55.4513 50.8221 55.8646 50.8221 56.2954C50.8221 56.7263 50.6504 57.1395 50.3449 57.4442C50.0394 57.7489 49.625 57.9201 49.193 57.9201H19.8693C19.4373 57.9201 19.0229 57.7489 18.7174 57.4442C18.4119 57.1395 18.2402 56.7263 18.2402 56.2954V22.1785C18.2402 20.455 18.9268 18.8021 20.1488 17.5834C21.3709 16.3647 23.0284 15.6801 24.7566 15.6801H52.4511C52.8832 15.6801 53.2976 15.8512 53.6031 16.1559C53.9086 16.4606 54.0802 16.8738 54.0802 17.3047Z" fill="url(#paint0_linear_2344_10521)"/>
<defs>
<linearGradient id="paint0_linear_2344_10521" x1="36.1602" y1="15.6801" x2="36.1602" y2="57.9201" gradientUnits="userSpaceOnUse">
<stop stop-color="#FFC100"/>
<stop offset="1" stop-color="#FFA500"/>
</linearGradient>
</defs>
</svg>
