<svg width="80" height="80" viewBox="0 0 80 80" fill="none" xmlns="http://www.w3.org/2000/svg">
<rect width="80" height="80" rx="40" fill="black"/>
<path d="M40.1508 13.0003C36.3682 13.0024 32.651 13.9658 29.3631 15.7962C26.0752 17.6266 23.3292 20.2612 21.3939 23.4422C19.4586 26.6232 18.4004 30.2415 18.3229 33.943C18.2453 37.6444 19.1511 41.3022 20.9515 44.5581L17 57L31.1903 53.8625C39.3163 57.4459 48.8517 55.8363 55.282 49.7961C61.7126 43.7561 63.7476 34.4971 60.4238 26.4034C57.1 18.3091 49.0843 13.0043 40.1716 13L40.1508 13.0003Z" fill="#D03F2C"/>
<g style="mix-blend-mode:hard-light">
<path d="M47.1508 19.0003C43.3682 19.0024 39.651 19.9658 36.3631 21.7962C33.0752 23.6266 30.3292 26.2612 28.3939 29.4422C26.4586 32.6232 25.4004 36.2415 25.3229 39.943C25.2453 43.6444 26.1511 47.3022 27.9515 50.5581L24 63L38.1903 59.8625C46.3163 63.4459 55.8517 61.8363 62.282 55.7961C68.7126 49.7561 70.7476 40.4971 67.4238 32.4034C64.1 24.3091 56.0843 19.0043 47.1716 19L47.1508 19.0003Z" fill="#D03F2C"/>
</g>
<path d="M42.1508 16.0003C38.3682 16.0024 34.651 16.9658 31.3631 18.7962C28.0752 20.6266 25.3292 23.2612 23.3939 26.4422C21.4586 29.6232 20.4004 33.2415 20.3229 36.943C20.2453 40.6444 21.1511 44.3022 22.9515 47.5581L19 60L33.1903 56.8625C41.3163 60.4459 50.8517 58.8363 57.282 52.7961C63.7126 46.7561 65.7476 37.4971 62.4238 29.4034C59.1 21.3091 51.0843 16.0043 42.1716 16L42.1508 16.0003Z" fill="url(#paint0_linear_2344_10527)"/>
<defs>
<linearGradient id="paint0_linear_2344_10527" x1="41.5" y1="16" x2="41.5" y2="60" gradientUnits="userSpaceOnUse">
<stop stop-color="#FFC100"/>
<stop offset="1" stop-color="#FFA500"/>
</linearGradient>
</defs>
</svg>
